<mxfile host="app.diagrams.net" modified="2023-11-27T04:06:16.287Z" agent="Mozilla/5.0 (Windows NT 10.0; Win64; x64) AppleWebKit/537.36 (KHTML, like Gecko) Chrome/119.0.0.0 Safari/537.36 Edg/119.0.0.0" etag="Uw7gYijqY738ntWfMz3m" version="22.1.4" type="github">
  <diagram name="Page-1" id="-9EnWkBtCoFWr6ZUS6qe">
    <mxGraphModel dx="1155" dy="661" grid="1" gridSize="10" guides="1" tooltips="1" connect="1" arrows="1" fold="1" page="1" pageScale="1" pageWidth="850" pageHeight="1100" math="0" shadow="0">
      <root>
        <mxCell id="0" />
        <mxCell id="1" parent="0" />
        <mxCell id="OrEcLO75rSHBagCI1_9a-1" value="" style="shape=image;verticalLabelPosition=bottom;labelBackgroundColor=default;verticalAlign=top;aspect=fixed;imageAspect=0;image=data:image/png,iVBORw0KGgoAAAANSUhEUgAAAewAAAF2CAYAAACs16tFAAAABHNCSVQICAgIfAhkiAAAAAlwSFlzAAAh1QAAIdUBBJy0nQAAIABJREFUeJzsnXd0FOX+/98zszW9kQZJIAklAQKB0BKQoEGQKvGCCnKxYUfvV7+X37Xe7/XqLSKo6FXvUVBsiDQLIiQgiEhvEQhJSAgB0ns223dmfn/kPONustnsJltm477O4Wh2Z2eeac/n+XQKAA8fPnz48OHDh8cIDQ2FQqHo8jnP82hpaYFOp4PEA+Py4cOHDx8+RIdcLsewYcM8cuycnBwMHjy4y+csy2LTpk0oKCjoENg0TYOiqB53SLbh+e6Vcnv205nAwEDMmjULoaGhDv/Wh4/fAyaTCSzLAuj+/eN5HiaTyZ3DAsdxYFnW5pzgLtx97q6E4zgAHXMzwWQyieI6E3ieF829dwYsyyI4OBjz588Hy7LCPXAXUqkUDMN0+dxkMkEmkwFAh8C+9957kZmZadcOezoRmqahVCodEtz+/v6YNm0agoOD7f6NDx+/J4jA1mg0VidInueh1WrdJrR4ngfP89DpdMJCwpOQ8+8vwsOawNZoNG4XIrZgWRY6nc7Tw3AKPM9Dr9eD4zj4+fmBZVno9XowDAOj0ejp4QlIAGD8+PFYtGhRjxtTFNXjCyGRSBAQEGDxoPnw4aNvSCQSMAxjVSjxPC9ouu6C4zjo9XpRCOv+iLX5k6ZpUQls4Ldxim1cjmIymcAwjKDJ0jQNhUIBiqJAURQMBoOHR9iBQz5snuchkUj6lenJh4/+gMFgcKt2aTQanSKsxSiExID5vST/L5VKBTO0GCBCzVw79VYkkt9EIbneZDEilUoBdFgUPH3tHVKDZTIZ/P394efnB6VSKfwjqxKyTW/82D58+OgZ83fNHHebgp11PN98YR3iGybCkGVZMAwDuVxu1c/pCYj2SVGUhcDzRsh58DwPg8FgsfigKApSqVQUVmO7rjJFUVAqlcKg5XK5xfc8zwufSSQS3wvow4eLkEql0Ov1XTQwb9SuAedYBtx9/u6AuDmIECH/KIoCTdMe1/TMoSgKDMOApmnhPnjr/eB5HkajESaTSRDQDMOAYRhRXPMeBTa5CSzLQi6XWxXG5CHy4cOH66AoCiqVCqdOnUJMTAwGDhwIwDKC3B04U0D21oxKBBrQcV3EFkHdV8w1VqlUCqPRKAhvMQVBESiKEpQ2YhXw5vth7npgWdau+C13YFPKMgwDPz8/UZlhfPj4vWIymfDhhx/izjvvxNdffy2Y735PMSVEUJtMJuj1euh0OtEEBDkTc3OzuYbHcZwolSOitNmbIixWulM+xSCsgR40bJlMBqlUKjjdfXgnKpUKWq0WAwYM8OqXyVWwLIuGhgbhpbx+/To2btxoV8rKiBEjsHTp0h7fEYlEgtDQ0F4vfDUaDdavX4+1a9diypQpmDFjhts1GSIsxaDhEZ8usS6IwVzpCoimR1GUEL9gNBpFvUjxZmsH8Vfr9XpPD8UqPZrEfRO899HU1ITm5mbh740bN+LHH3/Ehg0busQfhIWF/W4L1rS2tqKhoQENDQ149NFHhUlQq9Xi6tWr4DgOEokEMTEx3b4Hhw4dwieffNLjexIbG4s333wTqampqKqqglarRVBQECIiImA0GlFZWQme5xEVFQV/f/8uv6+rq8OuXbsQExOD//u//0NSUpJbi1YQYa3T6TweDUwmVU8UinE3ZIHE8zxomvYKS6enn4++IiafdWckAFBSUoLW1lZf4ZJ+QF1dHf7617/i22+/FT5rbW2FRqNBTk5OF8GyaNEiLFq0CNOmTbPQEvvrQo0IuJaWFrzyyivYunUrDAYDamtrAXS8rBkZGUKJwNDQUDz11FPdRmcXFRVh8+bNgtbJcRwuX76M5uZmpKWlwc/PD0DHIuDZZ5/FypUr8dZbb6GwsBDTp0/HnXfeibq6Ovz73/9GQkIC7rzzTsTGxgr7VyqVuOmmm7B582bwPI/p06cjJiYGANyuBXSOnvUUJpNJEGK/B8g1NxgMkEqlorgH/RFzd4sYhTUAUAD4qKgofP7550hPT7f4kqRt+fAe9uzZg9zcXGi1Wrt/ExQUhKVLl0KhUEAqleKZZ55BVFSUC0fpOUwmEz777DPs3bsXX375pfD50KFDsWjRIvj7+2PBggUICQnp1f5ZlsXx48dRVVWFW2+9FUFBQQA6Fk1vvPEGNm3aBACIj49HamoqTCYT6urqcOuttyIzMxMNDQ24du2asD+O46BWqxEcHIzc3FzExcXBZDK5XWiRSmKensjIpCqWxYOrIefqTZYEsVS/cxSxWJA6YzKZ8J///AcnT57s0LBbWlrw8ssvIyQkBHfffTeysrKwefNmrFy5sluBTSaK/qqJeRssy6K0tBTr16932L/V1taG999/H0BHVoBKpcKrr76KsLAwVwzVo3z22Wd44YUXUFlZCaDjfOPj4/Hyyy8jIyOjz/mkDMNYLfMbHByMRx55BBMnTgTQ4YqIiYkBx3Foa2tDampqFz94S0sLysvLce+99+K5555DXFwcgN8mcXdiMplEM5H1xzSu7iBBZz3VkffRN8giWCzPeHdIgA7T2qFDhwAAcXFx8Pf3x48//oh58+YJmoa5YCbBLjRNd2sq9OE+eJ5HYWEhnn32WeTn5/dpdctxHE6cOOGQhi5mzCe41tZWHDhwAJWVlVAqlUhMTIS/vz8efPBBTJw40eHoW/N927NwjY6Oxpw5c+ze7xdffIFff/0Vc+fOxezZs4XvJRKJkOrjDsTmK+5PDSd6gpynQqEAy7KiDTYj4+Q4zivvjXkOuZjpok785z//wX/+8x8AwOrVq/GHP/wBc+fOxYABA4RtTCYTDAaDz1wuEsrKyvDEE08Iiy4fv1FSUoJDhw6B4zgUFBTg888/B9AR3b19+/ZeW4jkcjnUajW+++47xMfHY/z48U4bc1NTE/Ly8nDhwgX86U9/ErRygrtTZ8gkLJfLPZ5fS3yMvxdIqhTg/pgFeyGR7CzLeu29oWlaKPol5nOwaf/bs2cPioqKkJKSIgTPyOVy4YU1GAz9IvfO2+B5Hu3t7aiursann36KY8eO4ejRo07bv8lkQkNDg2CilUqlCA4OFmX+Z0/8+uuvePbZZ6FSqYQGGQEBAYJvuTvIc71lyxYAwIIFCyCXy4XmNnK5HAqFArGxsSgrK8OxY8dw9913IyIiAkCHOZvneQQFBdl8N2pra5Gfn48ZM2aAYRj8/PPPaGpqQmJiInJzczFkyBCrv3PX+2ZeXQvoeBbEquX1d8Q2x5oL6v5g9ZBIJKBpWnQC++TJkygvLwdgR1pXTk4OeJ5HVVUVwsLCLKJhic3fz8/PJ7TdzIcffohPPvkExcXFTjdfl5WV4b777hPcHaNHj8bq1asRGxtrNeVIzGRnZyMjIwN79+4F0OFjfvTRR5GTk9Ptb+RyOUJCQkDTtGCKHjhwIBiGEVKKSGWnO++8E9XV1bhx4wYSExMFq9PLL78Mg8GAF198sYtv2vxd2bt3L7Zv346jR49CoVDg9ttvx2233YaUlBSwLAutVgu1Wg2WZS2uPSkT7GrXhXljB1J+0kdXHHWPOLpvnueFCHGxCEYSSyGW8fQVUqhGbJSXl6OhoQFADwKbZVl88cUX2LFjB9LT0/G3v/0Nw4YNs9iGRKt2zu/14VoqKipw7tw5l+xbrVbj7Nmzwt9nz57Frl278Pjjj2PVqlVelf43YMAAZGZm4siRI1CpVEhMTMSECRO6PMcEuVyO8PBwQSiPHDmyx2PExMQIqVaE8PBwGI1GoQa/OUFBQcJiaNWqVXjooYcAdEwYwcHBUCgUwt8mkwkbNmxAUFAQli9fLuzDXRMLRVFQKBRCVTFPYl6OVEyYtzd1RZEpUtWN5J6LAXLOYhmPsyDPO1FMxfbM9ahhq1QqqFQq7N+/HxkZGcLEtGjRIiiVSigUCl/HHTdCAsyOHTvmtmMaDAbU1NTgrbfewm233eZUf607iI6OhlKpRHt7OxYtWoRx48ZZ3U6pVCI0NFQQ1n3hb3/7GwDr3bXMV/K2itZQFAW1Wo21a9fiqaee6vK9O0zTZJykqpinJ2hPH98aLMu6TGkx73PuyQpzJPDQ/PqLoeKdszEvBQv8dv3Fkvdvdw4Ly7LYunUrmpubMWzYMMyePRtKpdLXncuNcByHsrIyPPvsszh+/Ljbj++tua8HDx5EQ0MDJk+ejJycnC7VomiaRlhYGORyudM0JKIl9wXzdn8ajQYGg8FiAeDOCYSYwz2ZX0smUzEJCiLIiLbpzLnQvJCHJyENR8R03V2J+T0kzz3DMILP3pPXwSGH1OXLlwVbOkEMxRR+L6hUKvzlL3/Bnj17PD0Ur0ClUuHkyZNoampCTEwMnn/+eSQnJ3fZjqIo+Pn5ibJmvkwmQ1JSErZt24adO3d6LFLYmS01+xNEULuiixZZrHkaTwspT0MWihKJROiv4Sl6FUFSW1uLbdu2oaSkRFh1i8Fc0N9hWRY3btzw2MtjMBhw6NAhqNVqjxzfUQoKCjB16lTk5+dDKpUiKiqqiwZEer2L1UoUHR2NTZs2YdasWVi/fj2qq6s9Mg7f+20dmqYFt6AzA/KINicGi5ZYg7E8AWnC4imh7dATJpPJEBAQAIqicO3aNVy/fh08z3tFQXoffUen0+Hzzz9Ha2urp4fSIw0NDfjqq69gMBjg5+eH3NxcqxHuNE0Lz7QYoSgKqampeOaZZxAfH4+2tjY0NzejpaXFZZM50RjN/3kasZiHO0OEmTO7GpICKWLQrgEIBbL6WgWwP+Epge3QHZg2bRqysrIQHR2NIUOGQCKR4PLly4iIiMCgQYNEO+n5cA4BAQGiFm7mtLa2Ij8/H0BHxPatt95qtdCPv7+/qKv1sSyLw4cPY82aNTh9+jT+93//V6jx/+KLLwrlSp0F0ew6CwtPa3piLx3pbN+1mEzQFEUJOco+a+pvsSWewCGBffjwYVy6dAnr168Xgs0SExO9ZhL30XtomsbatWuxZMmSHouOiI1HHnkESUlJnh6GTerq6lBYWNhFIDU0NOCxxx5DU1MTAAhZGizLoqCgAGq1GkOHDnWKlYuYYMUYXCi29JrfE8RP3x/TuHoLKSbk7mfSpsAmkwAJNtHr9VCpVBY3TSKR+EwlvwN4nkd+fj54nsfSpUsRGBjo6SHZDclm6IxMJgPDMOA4zu0FQUh08a5du3DhwgWUlpZi9+7d4DjOIk2S4zhoNBoEBARg+vTpuO+++xAQEACtVos1a9ZAq9UiKyvL6vnFxcVh5syZYBgGcrkcFEXBaDRamJWJT460FBRrYBkxPfd3gSEWF4Q5Yq5h7knkcjkMBoNb3xmbknbChAnQ6XQoLCwUHiJn5Kj68D54nse2bdtQXFyMefPmeZXA7g65XN5j6VBXQLTYffv2YfXq1SgtLQXQsUAODg7GXXfdZVG7H+hYGI8aNUrooObn54fly5fj1KlT+Pjjj61Gj4eHhyMvLw+BgYFYtWoVwsPDsXPnTpw4cUJYoAQHB+Pee+9FeHi4i8+6b3hSu7N1XGebwsXWaEVsiwexQCLH5XK5W1ty2hTYxcXFyMnJwa233gqWZREcHIyYmBgEBAQI22i1WqE0qQ8fYuHatWs2K3MRv5w7aW5uRllZGerq6rBu3ToUFhZaRH3fddddmD9/PmJiYnr0q0skEqSnpyMtLQ3z5s2zOmGUlJTg888/h8lkwoMPPgigw7WxcuVKoUa5RCIR/eJLDFon0aTIPGdeotYZkHMUUz9mMeQdix0yj7jLAmFzxmpubsZ3330HmUwGnudx9913Y8KECcIqkKZplJaWgqIohIeH+zRvH6Lh1KlTaGtr6/Z7qVTqVkHV2tqKN954A++++y5YlkVbW5swMQcEBGDy5MkYP348EhIS7N4nz/NQKBQYMmSI1XcvISEBmZmZ0Gg02Lx5M1paWnDLLbdg6tSpXuHGIgFOYjDVm9fzdpVyYjQaRSOsCf2pVrgr4DjOre6aHt9anU4naCp6vV7wdQEdJryWlhYLoe3DdYghGMhbytAuXLgQGzZsQFNTkzARmk+05CVzx7moVCq89dZbWL9+PVpbWwW/MckBz83NxbJlyxwubUkKa3SXckMWJf7+/njqqaeEFEyxW8NIgJMYnncCiZJ2ZZMjMQpGUpLWh3Xc7d93eJltvtIlUaWtra1obm72CWwXs3HjRly+fNljx/fz88Pjjz8u+FHFjFwux4ABA1BcXIzt27djwoQJFtqrTqdDU1MTwsLCXC60KyoqsGnTJiF/PTw8HE888QSioqIglUqF9rUkncdeIUVW9ba2J9Gs3tZNTyxFQwDXu0+IxVKMglGMiwgx4e53qselNsMwGDJkCFJTU4Vev+YQv4vPz+F6ioqKPFq0ZMSIEZgyZYpT6mS7moiICNx5550AgCtXrqC9vd3i+/Pnz2PNmjUuf24rKyvx5z//GVevXhU+UygUGDduHLKysjBx4kQhLdJRzZdkcZj7eEmzAvI3qYPsTcKa47jf1XxCrAliw5dK1zMSicSlbpIux+tpA4VCgfvuuw+JiYk2A2Gam5tx9epVxMbGCuYjH/0HiqIwfPhw0QcoEerq6vDxxx8DgNXnMSwsDKNHj3bpc8qyLL755hscOHDAYuIjwUrmbRmJ5cqRCZJoZOS/pLAFafPYXzI6JBIJOI7rd8LD3D8vNk2WjE1s4xIT5N0lAYjuqPPf42xFGiMEBATYFNj19fU4f/48zp49i+vXrzt1kD48D8/z+P7771FVVeXpodgFx3FCzfN58+YhNjbW4vtBgwZh9uzZLi2re+nSJWzatKnLizx//nxERESAZVno9XrBDN4XgWQymSxyQsXQCrO3UBQFuVwu/JPJZF4TO+EoYu6CJUYTvZjgOA56vR4Gg8Ft99Cmhk3TNBYuXGh3+UOO41BTU2O1BKSPvtHY2Ijm5maPHZ+maTz//PMYOXKkx8bQW1JTUxEcHOzWY1ZUVODJJ5/EyZMnAXRo1fHx8ViwYAEWLVok1CK2JVTr6uos/N6Oxg7YI7CrqqqgUqkQEBCA2NhYUQhF4nPv/Fl/K5wi1g5oPlN4z3RONRRFHjYAtLW1Cc3ZyaB6iq4lJ+PMHEUSPv97NbXv378fhw4d8tjxKYpCXFwc/Pz8PDYGRzh79ixUKhUGDhwolPN0ByzL4ty5c/jll19w6dIl8DwPmUyGW2+9FQ888ACio6OFADMA3ZY35DgOW7duRV5eHgAgMzMTGRkZCA4OxpgxYyCVSoX6B8Q0Z455sFlBQQE0Gg3Gjh1r8R5XV1fjnXfegb+/P8aOHdvFCuHDNubznKNznRhyy7uDRD6LdXxiwFOtT20KbI7jcODAAUyfPh3JyckoKChAWVkZ5s2bJ5Q6tEZrayva2tqcptXU19fjnXfewZw5czBp0iThczFoA+5i2LBhSEpKwtmzZz09FK9gw4YNqKysxB133IGxY8e65Zg8z+Ps2bN49NFHcerUKeHzoKAgi2Il5r7LzsKaTJLnz5/HqVOnUFdXBwD4+uuv8fXXXyMtLQ2vv/46QkJCEBkZCZqmhXRLa3Ach6amJrS2toJhGMhkMmzduhUMwyAlJQXjx4/HwoULERgYaLPQjA9LeJ5Hc3Mzzp8/j6lTpzrsWrG2yBIL/dGa4Qo8cX0cylUoKCjAd999h8bGRixfvrxbbUutVkOj0TgssNvb28HzfJfApoaGBvz973/Hl19+iUGDBgHoqAr10EMPObR/b2bs2LEYNWqUT2CLEJ7nUVdXh6KiIjz33HMWwvrmm2/GH//4R0RHR1tsbzQarb7wKpUK69evx7lz51BZWSl8vnz5cuTm5iIgIADJyclCffTOtcE7Q9M05s2bZ/HZ2LFjQdM0UlNThcUMx3FQKpWC5kDGJoZJ29F0N3egUqmQl5eH9PT0XmnXYkpb6wxN05DL5b4a4iKkR4EdGRkppPGEh4dDLpejqKgItbW1gsbQmZCQEIeEdUlJCRoaGvDLL7/AaDQiOzvb4nuSEnP58mUhD3nixIl2799H3wgODu42rc+bqampQUlJiSCU4uPjhQUh0BF0c+nSJahUqi6/pSgKQ4YMwY0bN6DRaPDOO+/g8OHDgkYMdLTuTEtLQ1paGiiKEjQqW0LQaDSisLDQQlgHBwdj4sSJuOmmmyy2JUEvjjJq1KgunxHzOSmuQhYBJAqWoiiPTd5iLI/p7++P2bNnIygoyCE3nbeU+zR/Xn2Ihx67dc2cOVPwAWZlZeHYsWMoKirCwYMHodVqhajhhIQEJCYmgqZpNDY2orS0FAMGDEBERITVZt88z+PatWvYv38/Pv30UxQUFAgr+9dff91iW2sPTudm9tYCVXz0naCgIDz++ONYtWoVQkNDPT2cHmFZFkePHsWNGzcAwOYzcenSJaxbt05YBN522224+eabBc1Hp9Nhw4YNKC8v7xI/QdM0FixYgLy8PLS1tUGtVneZhJOTkzFv3jy7U3dMJhN+/fVXtLe3CyZWf39/rFq1CnPnzrXYlhTbcLYGTIQzeWfNg+PEUCJULDAMg5CQEId+Q+5Vd9YVseENY/y90aOGLZfLhcmDtCNkWRYnT57EyZMnLQT2qFGjsGzZMvj5+aG8vBw3btxAcnIyhg0b1mW/NTU1+Mtf/oIvv/yyy3cajabHgf/www+ora0V/l64cCEWLlzo0jQdT+KpyXLQoEF4+OGHLUy6YoXjOJw6dQoPPPAASkpKMGTIECxZsqTbKlUZGRn485//jCtXrgDoKL37xhtvoKioqMu206ZNw2233Sb8zbIsNm7ciJqaGgC/takEOgQvx3GorKzEsWPHBKHdE0ajEbt370ZQUBBeeOEFMAwDf39/zJkzx+IciInYlXmf1sy8RHhTFOXWlB+yGBeDCdnRAFjzvHiWZYVnwxtwV26xN0IWte62lDjkw6ZpGpGRkYiMjERNTY3Fg1dRUYHW1lYsXrxY8G0bjcZuU5FaW1tx7NixXg/8woULuHDhgvD34cOHwbIsFi1a5BWNDRxl165dQsSwO3nuuecQFRXl9uM6As/zuH79OoqKivDCCy+gpKQEUqkUI0eOREZGhs3fpqenIz09HUDH5JqVlWW1aciAAQO6+KEzMjKEXG8Cx3H47rvvsHnzZjQ0NODixYuYM2eO8L2tYB6appGSkoKnn34a06ZN6yIQiLAgOdfu1IBIeU6yYHd2UQ1rEdfmkdRiCTBVq9XYv38/hg0bhpSUlB6337ZtGw4cOIBXX30VCoXCa7RWsiDxBZ91jycUKIckm0KhwD333INr165h37590Ol0uHjxojBpGY1GlJaWIj09XdB0rb1oRqMRp0+ftkuTtpfy8nI899xzCAwMRHZ2tleUz7QXnudRX1+PpqYmtx6XoigkJCQ43JTCXfA8j5qaGhw/fhwbN27EqVOn0NDQAJqmMX36dDz22GMO7Y9hGLu7ZVEUhcTERKtjGj58ODiOw5YtW4Syk53TuKxNgjKZDA8++CDi4uIEHyLxKQMdE4Qn2y+aN0xxRe1rk8kkLAzIvEEagIhBaPA8j9raWiiVSruek/r6ehQUFKC0tNQrCtl0Hp9YrrtY8cQi0mENOyQkBCEhIUhLSwPLsvjiiy+wa9cuwXQSGBiIpKQkNDY2Qq/XIzIysst+tFot1q9fbxGg01d4nkdpaSkeffRRrFu3DosWLXLavj3N1atXsXv3brdrVDfddBPi4+PddkxHaW5uxj/+8Q+89957YFkWoaGh+OMf/4jAwEAsXLgQgwcPdvuYKIpCSEgIHnnkERw8eBA8zwslQ4EOoUu01O5+yzCMUD2J53mh/7xerxeFOZUIVVdo2cTEaO47F4vQ4HkegwYNQlJSkl3bX7x4EadOncL06dOtxvGIEbJoYhhG9IFxnoSYxN2tZfcosIkZjpjiSF1m4o8ZO3YsGhsbcc899yA2NhbZ2dmQy+VobW2FyWTqEqj0008/4bXXXkNJSYlLTujq1avYs2cPZs6cKUx03k5gYCDuv/9+zJgxA6+//jquXbvm8mMSgW0eNS0G9Ho96uvrwbIsXnvtNXzyySdgWRYDBw7E008/jdmzZ0Mul3s0ANFgMKCmpgZGoxEMw0AikVgIHoZhutVeSDMd8yJFBHPB72mI28mZudvmWnVvaqu7Ep7n0dTUBJZlER0dbXMRwbIsSktL8emnn8Lf3x85OTleJ7BpmoZUKoXBYBDui1juhRgwX1y6E5sCm+d5VFVVoaysTIgUJ2keZAKSy+WCNjB48GAUFhYKvx8xYoTwYuv1ely+fBmHDx/G7t27XXhKwLfffouRI0ciJycHycnJNmugewMRERGYN28eVq9ejfr6ercd1139ou2F4zjk5+fjn//8J1paWlBdXY2YmBjI5XLcd999mDt3rijM9xzHYePGjUJQJMuygv+XYO1lJ121Ok+MRHhJJBLRmFaJFuZMSJMPsUWjk4j83bt3Qy6X495777VYVHSmra0NH374ISoqKrB06VIkJyeL6j2yBpnPzeMkpFIpZDKZr+qZFUjWhLvpsdLZt99+i3PnzuH555+HTCbrYqKKjo7GfffdB4qisHLlSpw/fx40TSMpKQlPPvkk7rjjDvj7+6O2thb33HOPyzRrc0gE+tixY7F9+3a3lqZ0FVeuXMHx48eh1Wo9PRSPYTAY8OKLL6KgoAA8zyMsLAwPPvggZs2aBT8/P1FpMaTXNfBbVSvim+1OU1EqlV3Oged5p8Z6iBWyOCQCQkwCG+hobTtnzhyhupwtWJZFfX09Ro8ejdtuu81reiuYp5uR59Xnx+6KJ2ut92gSNxqN0Ol0NiNblUolWJbFtGnTMHLkSNA0jeTkZNy4cQNHjhyBv78/1Go1xo0bJ6TQuBqtVgu1Wt1vHrZDhw7hyJEjbjueTCbz+ETD8zxUKhVMJhOMRiM+++wzXLlyRbinTU1N2LNnD26//XZRCWsAWLx4Mfbt2weFQmExNhKsZe25FJtFwxaeqqXsCoh7j2Fz3DhsAAAgAElEQVSYbnuHy+Vy+Pv7O/ROMAwjuufSFiQugSycyHvn4zeIwuqpZ99p+U8Mw1itoGQeWJaVlYX29nZs3brVWYe1icFgwLVr16BUKr2i6Ict3N0POCMjo0uxDlfAsizq6uqg0+kQEhIi3CeVSoXq6mq8+uqrKC4uBsdxKCsr65JyJVa/Gk3TGD58OHJzcwUhQALQgI73haZpYULUarWgaRr+/v6eHLZDuOrau/OeksmXCG2FQiGkMxF0Oh0SExMtqjdKpdJutc+2tjavXMyQcyYLR7FZOcQAKdfqrmdUr9dbWNjcGpmjUCiQlJTktlaHZWVlWLJkCT766KN+o2m7i4KCAuzbt8/lx/n1119x77334uabb8ZLL72E/fv3o7q6Gm+//TZuvfVWbNmyBcePH8fJkyetprW1tLSgvLzcKWMhvjtnRSYHBAQgJibGYiKkaRoymaxL85wbN24IFde8DXP/p73/HNlnX8djazvgtwVC5zrq5LPy8nKUlpZa/LazNYTnebS1teHUqVP48MMP0dDQIFR+9AZMJpNgSRVj7XZPQ66Lu2vAX7582aI3gdsrjIwcORLLli3D5s2bXd7f2Wg04vr169i1axcWLlxodzqGj45GLN988w1yc3Ptzk3uDZ988olQEOadd97Bu+++i08++QRvvvmmXQF2BQUF+PTTT/HKK6/0eSxGoxEGgwEymcylgYqkZrd5Ba9Ro0Y5XOpSLBiNRuTn53ebvSCXyzFt2jQcOXIEGo0Gubm53Rbj+eabb3D9+nXwPA8/Pz/MmjUL4eHhDo3HYDAgLy8PtbW1GD9+vFAYxxqd3RMk3oAI2oaGBqjV6i79DTqj0Wjw0UcfYcuWLcjMzMSKFSuwcOFCh8btScwXN+625nkLJLjanej1eou4JY+UBBs7diz27NnjcoFN+OWXX3DmzBkMHjzYa0qXarVaNDc3o7m5GRs3bsTRo0fdaiXgeR6HDh3Cww8/jClTpuDRRx+1mlPfm/02NzcL6UCdK4UBHebGoKAg1NfXY/jw4XjqqaegUCjw1VdfoaCgQNiOZVk0NjbiyJEj+OmnnzBy5EiEhob2+R6bTCbQNN2lMIhUKrXqfya+SmJG3LdvH86fP4/s7Oxux2Ler5o08dBoNF5hEtdoNNi6dStOnz4tRFCfPXsW9fX1UCgU8PPzQ1tbG0wmE5RKJYKDg1FQUIATJ05Aq9XiypUrFn25zTl69KgwL4SHh+PKlSsWAiQuLg7333+/hXZLugMS5HI5QkNDceXKFWzevBnHjx/HsmXLLNI8yT3sfI/N/ZM839GF7eTJk5g0aVIX/zXx9ep0Onz22Wf44YcfkJ2djRUrVnhVoKuYW32KAXPt2tO4XWCTdJDY2Fio1WqLeuCuwmg0Yv369cjOzsaAAQNcfry+QibEt99+G3q9HqWlpR7pVczzPPbu3YsjR46Apmm8+OKLfd6nXq/Ha6+9Jpjbr1+/DqAj1zwxMREymQyjR4/G//zP/+DTTz/FX/7yF8ydOxcMw2D69OkWZvH6+nqsX78ehYWFeOmll5CUlIT7778fwcHBkMlkSEhIsKvinXmtAeC3LlidBXN3hULIi0y6XCUmJiIyMhLx8fE2Fw/mQufy5cugaRpZWVk9jtcTVFdXo6GhAQBw5MgRfPDBB2hsbISfnx9iYmIQFBSEoKAgpKenIysrCzt27EBVVRUmTJiArKws1NTUoLm5GWq1GklJSTh27JjVLmhhYWEICwsDAMyZMwcRERH48ssvLXzCNTU1aG1tFf7++eefhVgVAMjJycG4ceOQlJQkzC8k4tl8MdZdtK+5aTwqKgqJiYnYv38/ZsyYISyoSLR/aWkptFotjh07hsjISDzwwAOIjIz0muBBwLNRz2KHXBuxuAgoAD2qbQMHDsTLL7/s9BzXq1ev4r///a8wabuSuLg4HD16FAMHDnT5sfrKr7/+innz5rnluvQEKfU6f/58rFy5ss/70+v1WL9+PV599VVh0lUqlfjf//1frF69ulfFbvLz8/Huu+/i4MGDaGlpAdDRKnPDhg1ITk62+VuiIbp7QURW7ebVywIDA0WpYVdVVeHFF1/Ejz/+aPG5UqnE3XffjdzcXLflv/M8j8OHD+Pnn38WFk8KhQKLFy92WVU+juOwd+9eSKVSYTEBdCwc3nvvPcTHxyM2Nhbx8fFYtmyZ1/itCaTkrY+ueGJuMOf06dNYv379b7UYPDYSdAjRzMxM7Nixw6W+AZqmMW/ePGFVLOYXiuM4qNVqUazmACAxMRFr1651mh9bJpPhkUceQWxsLH744Qfs2bMHkZGRWLVqVa+F1YwZM5CRkYHdu3fjp59+wgcffACO46BSqaDRaKBUKrtoPMTE5Yqa2PZiHsBiNBqh0WiEKOXu6Ivm1ptGGo2NjXj11Vdx+PBhobb87NmzwTAM/Pz8kJ2d7fbUpSlTpmDixInC36RUqqugKAq33HILzpw508Ui+MADD2DUqFGIi4vrEl3uDYip9KvYIIt5MWHXU05MhDKZzKkPJE3TyMjIwLlz51BcXOy0/XaG+GNfeuklvP7666IN7iFNPl577TW3VjTrDqVSiWeeeQZxcXFOC8KiKAqBgYFYtmwZZsyYgUcffRRSqRShoaG9frYkEglCQ0OxbNkyBAYG4oMPPkB9fT1efPFFzJ49G4888kiXCZ3jOJv1BdwFSfcqLi6GTqfDjBkzur0OpL1t59/bA1mg8DwvXAtri5jOf9fW1uLnn3+GwWCAv78/HnzwQUyYMMFji14inN3ZkY/4qidPnuy2Y7oTX651V8hCxisFdl1dHbZt24Zly5Y51fTF8zwuXLiAiooKp+2zu+OUlpZiwoQJLj1OXzGZTPjHP/6B77//3uMvEU3TWLlyJRYvXuyyzmexsbGIjY112v7UarVQSU+v1+PixYsYMWJEt9YKTwpr83aVADB69OgefYmdTXOdU8OA33pHE+FM0o/Mze8ktYzkh3fOOWZZFjU1Nbh8+TI2btyI9vZ2oXqhN6Uq+bAPTy9axYoYe4HbJbBZlkVJSQmuXr2K4cOHO3UAGo3G5UUGaJrGH//4R7zyyitOzQFvb2/HV199hdraWvj5+SE3NxdxcXF9GmdWVhbUajV27twpVPnyxAuVmpqK+fPni6I2t73cuHED77//vvB3TEwMbr75ZquBXyT40ZORn+bCkvSQt0Xn58Cab400GzEPkulcEpVYFzpX9iILBpZlsXfvXrz//vtCFP+ECRPwwAMPOJxi5cOHNyJWV4HddqWamhpUVFQ4XWC7ioCAAEEzlEqlWLp0qVPSksxpb2/H+vXrUVBQgLi4OEyaNKlPApthGCxZsgQzZ87EnDlzoFarsWHDBly8eBFAR/Uvd6360tLSkJOT45ZjOYvOJQMHDRqEOXPmWN2WpmmhFGN/wlrjjO7Met012SgvL8f3338PtVoNiqKQlpaG+++/H0OGDHHJmB3BZDJBrVZDqVSKqqkPWQCKzYRqD6QMaX97F/qCs1vHOgu7BXZcXByGDh3q9AEEBgYiOjoadXV1TnvY5XI5Vq9eLUzWxJznbCQSCZKTk8GyLJYtW2a1NGtvCA0NRW5uLoCOABsSTf3Xv/4V33//vVOOYQuFQoHo6GiXH8eHOGlsbMSlS5cAdORCP/LIIx7pLU5ob29HQ0MDGIaBVqvFG2+8gQULFuDmm28WLEAsy6KqqqrLHBIaGoqQkBCrddqdpUVJpVLBpy7Wid4a5Py9MVjOlZjHe4gNuwX21atXUVRU5NRVNkVRmD59OsaOHYutW7fi8OHDTrlIJJp1/PjxThhl94SHh+OLL74Az/OCKdLZmKclmaeUuJKUlBQ8+eSTbjmWJyETlRhfTLEgk8kQFRXlMb81wzCorq7Gd999h8DAQEyfPh0sy2LDhg1obW0VFpYsy6KwsLCLe23q1KnIysqyGjBLMgR6q1mSojc0TYNhGKHdsLUcfrHia/BhCQk0E6ulxG4J44rkemJGCg0NxfTp03H06FGnXCiTyYTt27dj6tSpGDx4sMsmGxI96i7mzp2LAwcO4MaNGy47BsMwmD9/vmgj6W0RFhaGnJwcfPTRR3ZtzzCM102wrsJoNOLgwYO4dOkSqqurAXQ83/bEMBgMBhw8eBA3btzAyJEjMWnSpF6NgWjBCoVCqBpH0zRGjx6NESNGCIF6Tz/9NAoLCyGRSNDe3g6gQ8t96KGHusQCmEeUdxbY5LvuBBapqc3zPE6fPi3UrDcYDJBIJLj11lst2m2S+cybTONi6rHuacQaGW6OR/OwCc7OozSZTPj222/h7++Pf//734iKihKVv6u3zJw5E0OGDEFlZaXLXjCe51FRUeGVq269Xo/Kykq7tycTrE/LBs6fP481a9agpqZGEJoBAQG44447eswSOHToED744AO0tLTg9ttv75XAlslk8PPzA0VRQl63Xq8XhLb5/JCRkYGMjAyHj9EZIsC7mxtIAJ7BYMDAgQMRGhoKjuOwZ88e5OXloaKiAs8++6zXlDu2hnkP7N8zZHFmMplEUwPDGqIQ2K5i27ZtOHjwIBYtWoTc3FwEBQVhzJgxXiu8Q0JC8O677+Kpp57qUnXKmYj5gbWFWq0WfK/mkOAyaxPT9evXhV7H7qKzCVYMPsTGxkahKEhKSgpeeOEF0DSNoKAgm4vp1tZWnDt3Tqgw5yhSqRSBgYFCu1HgN7Okp4OgiIWhuLgYcrkcmZmZ4DhOML2XlZVZjJEEPYpZQ+uMT1h3QBr/iB2HBDapzOQKE3NoaCjS0tJw9uxZpz1ERqMR1dXV2LhxI7744gukp6fjq6++QkREhEXAhbdA0zRSUlKwcuVKlwlsEqDnbYsac/MlgQia7ibQoqIivPnmm4iIiMC4ceOQlZXVY6WxvoyPjMN8FU+sS9aqhblLiDc3N1s0l1EoFHbV3Od5HkVFRTh69CgAICIiAiNHjrT7uBKJBIGBgULaWed9exrSoGXMmDEWroG0tDSrlf9IzWlvQAzXV0x4y/VwaGY6f/684N9yNuHh4ZgyZYpLArd0Oh1aWlrQ2toqrIDb2tpQWlrabRN6scIwjKCRuALiTrDWmEHMtLe3Y8OGDUKnp7CwMCxYsMDmb/z9/cHzPLZt24bXX38da9asQWFhIfR6fZ+1pM49mQ0Gg/DP3IJBFhp6vd5im84WAVfmhTY0NAjNWEjteHtoaWnBN998I+Rqx8TEYNy4cXb9lghr0uWsM562OBCIiZ4sYGmaxuTJk12SMeMOSCySM/u+ezPedg0cko4VFRVoaWlxWQON0aNH4+abb8bFixeh0+mE7kC9RSKRQKlUCsKnrKwM//73vzF16lSh4L1er3daOpa7yMzMxJNPPondu3fj6tWroqzI4270ej0OHDggCI+AgIBu/ZzEZ52amor//ve/uHz5Mv7f//t/OHz4ME6cOIHAwEBMmjQJCxYsQGxsbJe2ivZAtC1zoW2LzuZflmUhlUqFhRnx5ZJoZPP9WUtZ6i1KpRKpqak9bkcipKurq8FxHCiKwoABA+xaSNI0LQhraxCrA03TvoBAF0Aiw32xGxAqAHra/WIvDquzZGXmihVwQEAAFi9ejIULF6KwsBDvvvtun/ypAwYMQHZ2NgoLCwF0aPExMTEWCwFr/ZjFTkhICF5++WUsX74c99xzj3B+PuxDJpOB4zgwDIOEhATExcUhLy8PO3fuxLfffouffvoJZWVlyM/Px7/+9S+kpaXZvW/SprOv7fg6F4EBIGijJDgG6BB+RPCZVy2zF51Oh/Pnz9ttyiWZEQqFAnK5HDfddBO2bdsGhmGwbNkyuxY35sF+trYhCxQx+YTJYslZvdc9AcMwXmO6dwfeFLPjkMDmeR4ajQZ6vb7HiYGskG1hXhKR/C2Xy8EwjFPqV9M0bZFmYi0avba2FhcvXkRiYqLVrk6OwHEctFqtcAypVAqapq2u4r744gs0NTWBoijcddddDrUGpCgKAQEBCA8Pd/qEIZFIMG/evF61ufQkSqUSCxcuRHl5uU1zPsmXl0gkQgoQwzCIiIjAihUr8Ic//AH/+Mc/BPP6N998g1OnTmHEiBFIT0+HXC63+lyTidxcmDobsggwf45IYx6gYyFizR9si9bWVmzevBlqtRoymQwTJ05EUFBQt9v7+fkJ0dz19fXYsWMHDAaD8Lk9/n9rNdCtQd5XMQlsoOOa33XXXdBqtYKWKhYTvj0Qi4hMJhNNn2dPQAIbvcnK4JDA1uv1yM/Px5AhQ3qsfUxMLtYgDwt5uUmzeLlcDoPBIDxEMpmsz71ISaOD7qiqqkJtbS3q6+sxadKkXgltrVaL1tZWNDc34/nnn8fUqVNhMplwyy23IDY2FjqdDm+//bZQYhQAjhw5YtFUQSqVws/Pr8da5yaTCU1NTWBZ1qnV4QgRERFYtmyZU2uuuwN/f38sX74cO3bssLjOgKU/lGij7e3tQgUsgkwmg0wmw/PPP4/Zs2fj448/xpYtW2A0GhEbG4uhQ4fimWeeQXx8vIVgMvdTu9q0Zmv/JpNJMJkTejKXk0UGANx222245557us3BJ+le5tHcvdHUXBXY52xsTeQURaGpqQkHDx7E4sWL3do9rC8YjUYYjUZBofKmhYYzEXuBlO5w6CnjOA6VlZV2TUo9rdo6p0MAsEjgT0hIwG233Yb8/HyhOIKrIM1NmpubMXXqVERGRqK5uRmXLl3C8OHDoVAoUFBQYPEbmqaRkJCAuro6oVGCVqtFbW0t8vLyAABr166FRCIBz/Noamqy6mvmOA4PP/ww5HI5Zs6ciTVr1lhE6F66dAnNzc2IjIwEz/O4ePEi/va3v6Gurg4sy6KxsdFp10GpVOKVV14RRc3o3jB48GCsXr0aK1asED6TSCSQyWRCNTqKotDc3Ixdu3bhqaeesrqfkJAQ3HLLLUhJSYFUKsXx48dRXFyMqqoqqFQqrFy5EkOHDhVq07tLWPcEaephDrEo2DM5x8XFiapgjhgCgohwM4eY6TUaDa5cuSLMdUQ5EGtuM3HXAL8Fn4lxnK7G1ZYwV+KxZaG1B8X8M6lUiptuugkURWHfvn1oa2uza7/mvrHhw4fblZ6kVqtRWFiI8vJy5OXlYfr06WAYBk888QTuuusuhIWF4d133+1ynFmzZuHMmTO4evWqhRmW+MXt9Y8Tobt161YolUqMHTtW+O6zzz5DcXExxo0bB5ZlcebMGbS0tLjEjMWyLM6ePYvc3FyEhoY6ff+uRiqVCgKnc+ASx3FQKBSCALentnx0dDTWrl2L4uJifPrpp8jPz8evv/6K5557DlOmTEF2djaysrIglUo9LqwJnd8rYvbrzlReUFCAtrY2wWdsC4PBgLNnz2LcuHEwmUw4fvy4059Dc/cY4PlezaTimvnfBD8/P6Snp1tUOiPPglieB3PMc9vFOkZ3wHGcV+RcW0PUdhwS1CKVSrFly5Yet1cqlZg7d64gpNPT0+1qW3jw4EHs378fOp0OBw8exJdffolRo0ahvr4eb7/9dre/27Rpk/0nYwcajcaiPaQ5e/fudeqxrGEwGLBhwwY89thjXimwO0MmWzIx6XQ6SCQSwdJhMBis1pgm0DSN0NBQTJ48GePHj0deXh5WrFiBxsZG7N69G4WFhUhJSUFERITbzqk32DJd5+XloaGhAcnJyRg9erTN/XAcB7VaLcSyfP311w5raAqFwmbcBdH8xGBiJpYTa8+HRqPB6dOnkZOTYzFWZ0bs+/DRGdE7kqRSKaZMmYJ58+bZfNFlMhkWLFiA6dOnIysrC1lZWXYJa6Aj3cvclNja2opffvmlz2P3RnieR1VVlcc1m75SXV2N1157DVVVVYJQIYVyQkJCkJmZ6ZBJTCKRYPbs2Vi3bl2/WMx0Jjo6usfAR5lMhtGjR3d5D+VyOVasWGFX3IO1BRJZUGi1Wuh0OhgMBmi1Wmi1Wo8HRHVndaiursahQ4dQU1PzuzQreyverF0DvRDYJpMJV65ccZv9nwSoDR8+3Gb1JZ7nhdU/WeX2tNLleR41NTVeVyTElRgMBrz++utO9Y27k5iYGCQlJcFgMGDfvn348MMPYTKZBFO4TCbrVfoTSUUaOnRot/nD3k5P18RoNKK4uFjQOlNTUwVT+sCBA+2+LsTqYd5sgQSaks/E4F81r2veme3bt+PUqVP48ssvhbmQnIunFxn9BVcEJpr78b0Rh6+IXq/Hjz/+6PZiHUlJSRgxYkS333Mch8bGRoduBs/zKCgoQFVVlTOG2C/geR719fVe698aN24cZs6cCaBj8dHc3AyJRAKFQiF0geoLsbGxyMrKAgC0tbXh+PHjog0ycjYsy6K2thY6nQ5SqRR33HGHQ5OqeXcsYsGxVlJWLOh0Ovzwww84efJkl+/a2tqg1WrR1tYmjJ0E/XmzQBAT5n3GHcFWsSKxPmv2InqTuDkTJ05EcnKyxaRLGhSEh4dj0qRJDtXALi8vx7Fjx7z6BvqwDRHWnQWLwWCwmGztJSEhAevWrcP9998PiUSC9957D88++yyOHDnilVGnjqBUKrv4bMnn9rx3DMMI/QiINkpSOsWIRCJBYmIiBg0aZPX76OhoLFmyRBT+dnswb7AidiQSiZDh4ChVVVXYsmULmpqaXDAyz9Kru6fX6z1iRo6Pj8ddd91lUdQjMjISq1atwqpVqzB48GCH9qdSqYQORT76D7GxscIz0p1r5Nq1a/j22297ZUlISEjAmjVr8NVXXyEuLg5Hjx7FG2+84XWWmtbWVqekTGZnZyMlJcXmNqRqGbnexJcoZkuOTCZDRkZGt5Y9Pz8/JCcne40Q9CZzcOc0xO5qzpvD8zxaWlrw0UcfYefOndi9e7fFd2Jws/SVXj1plZWVOH78uLPH0iMkajc5OVkIfJFKpQgPD0d4eLjXdZjy4XwoikJWVla3WhEhKSkJd999d69W8BRFISwsDFlZWVi9ejWUSiUaGhpw5swZaDSa3g7d7fzyyy8oLCzExIkTe4wQN5lMKCoqsnp+/v7+TqlM6E3QNI329nZcvHhREARiXnwA3hPBTtO0UCGSXFN7BC3Hcfjxxx9x7tw56PX6Lmm1/SG+oFcCmzR19wRKpRKLFy/G2LFjIZVKMWnSJK8xSflwPTzPY+vWrSgqKrK5HenD3JcJTCKRIDMzEwsWLIBer8d7771nsaoXO3q9HgqFAg899BByc3N7vBb93eTvCLfccgsoisLXX38tFHwSe2YFMTOLHXNLALmm5kW1uqO0tBS//PILTCYTIiMjMXHiRIt99ofn1yslXUhICAYNGoTCwkIMGzbMYYHN8zzKysqwf/9+F43Qu9HpdCgtLYVMJkNERIRXrMqtkZiYiKVLl7p0kkpISMA///lPcByHnTt3YuPGjdi3bx/uvvtuJCQkIDAwEGFhYaK8hpmZmaioqLArulsikSAjI0N411QqFT766CPRa5V9QaVS4fvvv8fcuXO7pIiOGTPGIo2NZLOIoXOeyWRCfX29xQLC3h7nnoZUi3O0kxjJYCgrKwPDMEhMTMSwYcME4d+5ra234pUCG+joxDVixAiHTXEcx+H69evYuXMnKioqXDQ676a0tBT33XcfnnrqKTz55JOeHk6vqaqqQn5+PiZOnGghtJ1d8jI+Ph4vv/wyzpw5g8uXL6O5uRmhoaGQy+WQy+V46KGHEB4e7rTjdabzuRB/HdDVF0gmQp7nERISgiVLltjdPtT8uhmNRlRUVCA4OBjR0dFOOhNxoVQqkZaWhqqqKiQnJ1t81/mak/S23rSs5HkedXV1uHbtmrAvR0hISEB4eDhUKhVKSkqEhYbRaERcXBwoikJoaChmzZqFyMhIi+ptLMvi0qVL4DgOcXFxNmsMuNKkTtJxScMkAHYtfsi1PnHiBPLy8hATE4OhQ4di0aJFkEgk0Gq1Ftt5O14rsMeNG4dx48Y5/DuWZbFv3z6Ul5e7YFT9A4PBgIqKCq+PsgwNDcXo0aO7TDJqtRpnzpzBwoULnXIclmVx7tw5i0DMe+65B1FRUdi+fTtUKpVLBXbnDl7mvjqGYYTFCk3TQvcrlmVhMplsduYyx2g04uzZsxgzZgyqq6tx9OhRNDY2Yvjw4Zg6darzT0oEMAwDqVSK0tLSLgL7zJkzaG5uRmxsbJftHXUXNjY24qOPPsL+/fuRlZWFwMBAh34fEREBf39/VFZWYteuXUhPT0dsbCwSEhKQmZkJhmFQXV2NyspKRERE4OjRo0KwrcFgwM6dOxETE4OJEyfaVIBmzJhh9/PiKCUlJfD39xeygOxdVHMch7Nnz2Ljxo3w8/PDQw89hLFjxwqdE/sbvRbYBoMBer0ecrncmeNxKSaTCSqVSvS+Jh99Izg4GHK5HPHx8bj99tu7dNbSarVONQ+yLItt27ahpqYGNE1jxowZiIuLQ3R0NJ588knQNA2WZVFUVIRdu3YBAObPn+9wkxWiOZNe3ubFRroz95mXZiW9tHsTLUsm0ffffx+1tbWorKzEggULMGLECLuCPUmzDG9r2xoZGYmYmBjhb51OJzT7oWla0OQcwWQyCTn8p0+fhkajwY0bNzB37lzMmzfP7gqNhKtXr6KxsRFDhgzB448/jqFDhyI0NNRCI46OjsbFixfx/vvv4+LFi4iIiMCkSZMQGBiI+++/H1FRUUItC3PMux26MlaooKAAoaGhSExMFBaY9hTyOXbsGD799FMEBgZi+fLlGDNmjFfEE/SWXt+BCxcuICUlpVdarqeor6/H5s2bUVlZ6emhiBaKojB48GAoFArR18i2Bk3TeOKJJ3DlyhWhQ5c5LMvixx9/xPz5851q3jNPV/r111/R0NCAmJgYYZKjKAoJCQm444478MEHH2Djxo3405/+ZJd/27wQhF6vF8yHjvrk+hLJLJFIkJycjKNHj2Lp0qWQy+WIjo622yV17do1lJSUIDc3t1fH9wdR8JgAACAASURBVBQURUGj0aC2thZRUVEoLCzEm2++CZqmMXz4cIwaNcpiQWjrXra1taGlpQWNjY3YuHEjVCoV6uvrERMTgwceeABxcXHw9/d3eIxJSUk9NrOhKApxcXEICgoSyjaHhYV1SUnrvB+JRGJ3//K+4Ofnh3PnzmHSpEnCAslWUx2TyYSzZ88KleZWrFiB0aNHg6Zp6HS6fhFgZo1eC2y1Wm13NyqxYDAYUFNT0y9NJc6AYRjcdNNNeOuttxAVFdWrycPTUBSFQYMG4Y033rBqmmQYBvPnzxdaY7ri+AMGDOjiF6YoCkFBQQgKCsKqVavw3//+F2vWrMHjjz+OuLg4q/simjPp22uuFXvCJxcQEID77ruvVz3jZTIZAgMDwXGc1+QtE8rLy7F3714MHToUN27cQGNjI5599llkZ2dbLFjIPaFpustiqqmpCZ988gkOHz4MjuOgUqkwe/ZsQZtOSEiwO5agtwQHBzvU554E0rmDnJwcZGZmor6+HlFRUUJqlzVYlsXJkyfxwQcfICAgAKtWrUJaWpqwOO8v/mpr9Fpgm9fN9cQLSLQFWzfWfFuj0SjqqkqehLSiJBrpd999h8cee8wrBTYhKCjIqlmMoij4+/sLeZ7O0hzkcjlomoZUKkVubi4SExO73TYuLg6rVq3Cm2++iXPnzmHgwIHdPsOkNagYoGnaYXMtISYmBjExMWBZ1mvygQkjRoxAcnIyTpw4AZPJhNWrV2PcuHGCP5fML921rOR5HpcvX8aBAwdgNBoxa9YsDBgwAImJiUhISADgeKCZO3HH2BQKBQwGA7Zs2YKKigrcfPPNQilh8zmbtHXdtGmTsIAcO3asqK+fM2EA/F9vfsjzPJqbmzFq1Khev8R9ged5nDlzBv7+/j2uTDmOw65du3D48GE0NTX5hHYn4uPjsXjxYsE32draiuzsbK9IA7GFLbMYz/M2W2s6AkVRUCqVOHjwIFJTU7FixQoEBAR0u2+yaNDpdNi3bx9GjBgh9PG2dg794XklQpoEwXnTBEvGHR8fjxEjRiAlJcUi+Mq8eUlnVCoV6urqsHHjRlRVVUEmk2HJkiXIyMiw8DOL9XqQDneA6wU3wzCQy+XYsWMHzp07h+DgYIuiPCaTCceOHcMXX3wBiUSCRx55BKmpqV3cXv3lnQE6usIdP35cOJ8+RRHU1dV5LO+Qoii707p4nsf169d/t2lcDMMgLi5OuA7mE8ugQYPw8MMPY/To0cjMzBTK+/30009CSUaxTia26KnIvzO1VpZl8cMPP6ChoQEZGRl2pzlNnz4dp0+fRlFREQYNGtQlBas/YjQau9S09sZzthXoZ84PP/yA77//HjU1NaKxlDgCySiQSqXCQsvW/ep8jt1tb+0ziUSC8ePHQ6PRIC8vD++99x4GDhyIBQsWQC6Xo7a2Fp9//jl4nse9996LlJSULgGl/R2vTeuiKMrh9IffCykpKRb1jxUKBWbNmgWWZZGfn2+xyJo8ebIQODhw4EAAHUI8MDAQ169fR1RUlFdlAhDc+fKSNq2OpPMQn3ZaWho+//xzSCQSZGdne0Ulqr5AXGlkovU2bZtAAgB7EsKtra1CjfkhQ4Zg1KhR3VpTxArP88KzTdw+5Dk1dwGQVEFzSHU1Irg5jrMZbS6VSjFt2jSMGTMGhw4dQmFhIT7++GMMGzYMAJCRkYH09HSrwc7ETdqfBXefBDbP89BoNB7xY3Mch8LCQsTHx/eYG1hYWIiamho3jcy9MAwDpVJp0cRh/PjxWLZsmcV25P6sWLHC6uedUalUaG9vh8FgQEhIiNWI0p4gkc1iNvk5g4MHD+LMmTOQSCQO+/2nTp2KrVu34r333sOpU6eQk5ODxMREr5vUHcE8toCYQQFYxKQQ3yXZViKROOU5IpN5b55L89xgW3WpOY7DtWvXsGPHDhQXFyMgIACxsbFYvHgxhg4d6tWLMo7joNfrrQpsa5CASXOBzXGcEMzWnfatUChwyy23YNy4cdBqtRZ58Lbmof5QL9wWfRLYpNh6bGys2wOUKIpCbGxsjyZxjUaDoqIitLS0uGlkvYdcQ0ei72NjYzFz5kx8/vnnCAkJgVwuR2hoaLerWEeELs/zWLduHcLCwrBy5UqEhITYHWXK8zza29tRVFQEmUwmlL8k982RaFVHsNUL19p2ZEx9obCwEFevXkV0dDTS0tLQ2tqKoKAgu/Yrk8kwZMgQnDt3Dt9++y1OnjyJtLQ0PPfcc4LpuD9PQCzLQqfTAeiYT4i/WC6XWwS2mkwmyGQyC3+qo/eN3HNSppL05zbH2n7NnykSuNrdPaEoCiqVCps2bcLhw4ehUChw9913Y+TIkYiMjPS6CPnucDQ9sPNihxTxsQbDMMK8Tu6RPTng5Nnpz+Vy+2wSb2pq8siEQjom2UKr1SIvLw+HDh1y06h6h1wuR1paGjIyMsDzPM6fPy98V1hYiObmZovtw8LChHaGsbGxiI6ORlBQEFavXo3hw4c7dQU/f/58AMCOHTswZMgQZGZmQi6X2xS4HMfh6NGjOHjwIF555RWL72QyGVatWoU///nPLhHaPM9DrVb3mIfJsizUajX8/Pycdr1qa2vx97//HU8//TQWL15s12/Cw8PxySefYO/evbj33ntRWVkJiqJw5coVDB06FDKZrN/mlBLM5w8ipHmeFzIXyDZEsAOwMMua013WCBG25tq9wWDo4sYwXxQQWJbtsRCHXq/HxYsXYTAY0NzcjNLSUmE80dHR/bZ8a2+xtXAhgpfneYdS3Uhp0+6i9fsDXuvD5jhOCNaxZhLneR75+flC3qNYkclkWLRoEXJzc4UqUHPnzhW+f/nll3Hy5Enhb7lcjpEjR2L16tUAOh78mpoaLF26FAMHDnS6v5loxqmpqaBpGhcuXICfnx8GDx6MgIAAKJVKCy0JAPLz8/HSSy+hrKysS1CiTqfDhx9+iDvvvLPHlo720jntw94qR0ajUQiC6m5/9mhxU6ZMwahRo3DhwgW7ezwTwUTMf+PGjcOMGTPw888/o7q6GmvXrkVGRgZycnIQHBwsTEa/F3qadMm96wzpu90Zcr17orddCFmWxdmzZ/H111+D4zgLU35vtGrz55hhmH7VOpi4Onqaq3pjQWFZVtTzfV/xWoFNCtrbmsTOnz8v6v7EFEUhOzsbixcvtlh0mJ9TQECAEFynUCiwZMkSpKamWrgC4uPjER8f79KxkknQaDSiqqoKO3fuRG1tLZ555hmUlJRYdG4qLi62Watdr9ejvb1diIHQ6/WQSCQICAjotZ9cr9f32n/V2TxO6hDL5XK7hGR6ejqGDRuGCxcuOHTcM2fOYNCgQUhJScHQoUPx+uuv48SJE1izZg2uXbuGsrIyHD9+HAEBAbjpppswZcoUIYfch3XMWzO6E6PRiGvXrlksXBmGweTJk3vszd4Zkr505MgRAB2L5VmzZvWLBRspxuKqZ9gXdOYEzOsfOyv4iKIoixq/nY/X0NDg1p7dDMMgOjoa1dXVNicMiqIwcOBABAYGgqZpjBkzxmbQ3MqVK7F8+XIAHdpDRESEy6K2m5qaUFtbi8TExG6PUVVVhXXr1uHq1avQ6/X46aefoNVqhWYC9tDW1oYXX3wRL7zwAnbs2IG8vDxMnjwZb731loWZ3Hy1TLohdX7RSY3q3prAiDZEqt+R8+4cnET8lqTgCsuyFoFQSUlJUCqVdmv3FEVhypQpCA8PFxYcgwYNQmRkJMaOHQuDwYB//etf+PrrrwEARUVF2L59O/7+97+7rEqbj95jMBgsFqkymQzTp0/HggULHMpm0ev1OHz4MHbs2IHW1lYAHZXWoqOjkZGR4fRxuxOpVAqpVNrvg1BdiVMFtnn4vzkkl08ul0Mmk9ldoay3sCyLvLw8NDQ0uGT/1vD398cDDzyAkpISnD9/HhcvXuyyTUREBKZOnYpbbrlFqHDUUzCFO4uXHDlyBB9++CEWLFjQrX+5qakJV65cESwXV69edfg4HMfhwIEDOHbsmOBXHDhwYJeFjl6vFzQWUmzEWrBYX/xV5hoRAAuLDAl0Iv40o9Eo+MgMBgOUSiUUCgWkUimeeeYZ7Nq1C8XFxTh58iRmzJjRo98yJCQEgYGBYFkWWq1WqDRHno2cnByhs1Jrayva29tx7NgxzJ49u1+ZSPsbcrkc2dnZuPPOOx3Sinmex759+7Br1y6Lzm8ajUbUlsKe0Gg0OHHiBBITE5GSkuIT1n2gzwKbBIOQABFbGoZerxd8UyRK0HziMTdlEM2nc49U822J+bKiogJ6vR5Dhw4FRVEoLCxEaWmp000jxEQaExOD4OBgFBcXC99lZmYiNTUV06ZNw+XLl1FUVNTl9+Hh4ZgwYYJDL7FGoxF8bxRF9SlIinQr+/nnn1FeXo6UlBRMnjwZQEfA1M8//4z/z955B7dxnvn/u4teSBAAe+9NIilKoiQW9WZZimVJlntcxpOb5BL7cnFymctNLrnJTYpvJr54Lne2Y8c97rEtW10usrpEibLEIlEUu8QqVoDou78/+HvXCxAgARBd+MxwbJGL3ReLxfu871O+j16vx9tvv+3V+T2BYRi7bPirV6/i6aefhkQigUAgQHV1NbZs2YKxsTH09/cjPz8fRqORi5fr9XoIhUK/lj+RnS8ffhyUGHuJRMIlSjEMg+PHj+Phhx92K9GITF7OntW7774bDMPg3//93zE2NgabzYY333wTAoEAGzZsCMv6+EjEZDLh4MGD3I5YJpOhrq7O40UVy7I4fvw4Z6yJN2716tUz2nv6GxJikslks2p6T01N4fLly1ytuTMMBgP6+vrstCEcIZs9k8mETz75BLm5uRgcHIRQKMSmTZvcetYd28xGIvM22ORGu+N+5ht0cnNJNigpteAfS/5tsVjsjLvRaATLshCJRLBarZBKpejo6ODO+cknn2BwcHC+b80OmUyGXbt2oaysDHK5HBKJBDqdjjOeSUlJXM/jgoICFBQUzOt6LMticnISr776KpdxSkpEysrKvGp119vbiz179qC+vh59fX04ceIE1+5xamoKPT098xrzfLhx4wZeeeUVAEBubi6USiWXWCSTyZCTk4ObN29Cr9fj9OnTePXVV5GQkICnnnoKubm5QeksxrIsjEYjLBYL/vSnP6GrqwsCgQD33nuv25+/SCRyubCUyWS45557YLVa8cILL6Crqwujo6N47bXXYDKZUFdXh/j4+GhMO8hYLBZcuHCB2wXHxMT4JN6clpaGxx57zKvabYvFgtHRUe7ZEovFiIuL41qsztXr/syZM7hy5Qp2797tUnp6eHgYZ8+eRWlpKaqrq2c9n1wud9nkBpi2B2fPnkVJSQkUCgVee+01TE5OIj8/H2vXrnXbYEdywhkQ5KQzsoOZS96UYRiniwKymlIoFCgrK8MXX3yBU6dO+aUXanV1NXbt2mXXq9VVaYkvYBgGn3zyCfbt22e3ahwcHMQf/vAHJCUleXzOhQsXYt26dXjppZdw5MgRXLx4ES0tLb4c9rwgNdr33HMPVCoVpx4mlUpx/fp1/OIXv8CZM2fsMoiPHDmCxx57DL///e+DMmayYG1ra4PBYIBQKERaWtqcfZ9J6YrBYJg1e1kikeC73/0utm/fjmeffRYvvfQSRkdH8cILL+Djjz/Gz372M6d6ylGCx5133smpBnqDSqVCdnY27rrrLhQWFnrsQr558yYoisInn3yC9vZ2DA4Ocr3hBQIB9Ho96uvr55TuFQgE2LNnj8tj0tPT8fjjj0Mul8970SgQCLB27VqIxWKkpKRgdHTU43mcxMajSWezQEQNfNn5yBvEYjGWLVuGs2fP+sRgp6SkID4+Hm1tbVCpVKirq5vhHiIuHKFQyCVT+BJnJQqeZEEyDIPr169DLBajsrISMTExiImJwQ9/+EPs2LEDv/3tb7F3796QafYuEomwatUqrozJZrPh7Nmz6OjowKFDh3Dq1KkZxs1isaC+vh5//vOfsXv3bsTHx3Mx5qGhIaSlpc3QrvY19fX1aG5uBgDk5+djwYIFc76GJOC4U2pE0zRUKhWefvppJCYm4sSJE5zr9NVXX0V1dbVLjwvpUqdSqVBTUwOpVMqFHaL4B2814SmKwrp16yCTyVBZWcl1q3KXkZERzp2el5eHn/3sZ2hoaMC1a9dA0zQmJiYATFee/NM//dO85yuapn3WK9tqtXJJnMD0fF5bW4uFCxe67a0QCAQQCoUhM5/5g3kb7NHRUTQ0NGD16tVBNdhkx+urMaSmpuLxxx/HzZs3IZfLUVlZaTfpW61WfPTRR2hsbERFRQW2b9/u80QgkhnNMIxXq8a+vj588803eOihh5Cens5N6jKZDHl5efjVr34FhmFmXUUHEseSD4Zh0NjYiK6uLs4gOqOhoQFdXV1YuXIlWJZFQ0MDrFYrJiYmoNFoUF5ejtTUVL+N+/z581w+Q2FhIcrLy2c9nqbpWbt5OYNoj//whz/Etm3b3PaM7N+/H2+99RZkMhmOHTsGkUiEJ554Ajk5OW5fO0pgoCgKGzdu9Oq1NE1Dq9VCqVQiPT2de7Zqa2tRW1trdywpWwwlTp8+jaSkJCxatAjAtMFev369z7QaIoV5G2yTyYT29nZkZWUhOTk5KK02CUqlEjt27MDf//73Gdm/nqLT6TAxMYEvv/wSY2Nj0Gg0nBRqc3MznnnmGYyOjsJkMuHixYuQSqWcKth8kclkkMlk+OlPf4p//Md/RFtbG55//nmYTCYMDQ2htbUVQ0NDyMzM5LK5BQIBsrOz7ZSBiouLsXLlSm7HSiD5AampqVxGcihQVVWFvLw87t/80j2WZTE8PGyXLZuUlASWZTE4OIjR0VH84Ac/wAMPPGC3cNLpdEhMTERCQoLf6liTkpKg0WhgMBhclhryIf3HvSUrK8vtz62urg7f+9738Oijj+LChQsAgHvvvdfra0eZSX9/v0dywv4gJibGZ7vdYLB8+XK3Oi/OBlnwR7J4ik9i2B0dHRgYGODE7YMFTdOQy+XzemiFQiE2b94Mi8WC3/3udzAYDKAoCnv37sWyZcug1+uxcOFCbNmyBTabDaOjo/jss89QX18PkUiEdevWudxpO2oQO7rOSBZ4SkoKJBIJF26Ij49HZWUlWJbFhx9+iPHxcej1euTl5XFlXzRNQyqV2l1bLBZDLpfPaKIATCfuMQyD0tJSJCUleVRH7S9ITgBfU5p0GbPZbNizZ49dudzGjRths9nw/vvvw2azYWRkBFNTUzPuf2trK7KysqDRaPwyoW3YsAFVVVW4fv26nUpdKKBUKpGcnGy3QLh48SLy8vICrv8fibAsi0OHDnGte7OzswMqQ0pCkeHemlUul/vEQxnpNd4+MdikjjQUUurJw+vN60QiERQKBb7//e9jYGAAhw4dQmxsrJ2MplAoRGVlJVauXAlguhzp4MGDOHnyJFpaWrB8+XLONR8XF2cXK+zp6cFHH30Ek8kErVaLjRs3QqFQQCAQcIaXvJYYLfI7uVwOqVSKp556yuP3xm94IJVKuRI8lmVRW1uLrKyskDDYbW1tXHewqqoqSCQSbtXNMAwWL16M3t5ebjcjlUqhVqtxxx13cLrDzrSHp6amcPXqVSxevJiTivRlTJuU+/GbFoQafO/CV199hQ0bNkQNtg9ob2/H5cuXYbPZQFEUFi1ahOzs7IBdv7u7GxKJJChVEr7idijH8hVhK03qipSUFKxYsQLHjx+fM/uckJSUhJKSEjzxxBOQy+XIycnB5OQksrOzkZiYiHvvvZf7Ejq6MjMyMvD9738fzz//PCYnJ/HWW2/hiSeeQExMDFQqld1EKRAIcNddd3H1jZmZmdxEr1aruRpjZ/Xss3Whmsv4WCwW7gthNBrtOkB9/PHHIZMp3tPTg56eHqSnp2PRokV2pRw0TaO4uBgqlYq7N0lJSZDJZDNidI5YrVa0tLRgYGAAQqEQpaWlyM7O9nnildlsxtjYWMg1eiAJa//yL/8yZzlPFPexWCxoamrixIMyMzOxatWqgJXZCQQC5OTkcD2nw5Wenh5MTk5i+fLlM8rRvEEkEnmd9xPqRJzBlslkqKmpwcDAgNvazr/85S9RV1dn1xJxyZIleP/99yEQCBATE+My5iiXy7Fs2TJcvnwZZrMZGo0GCoUC8fHxM14TGxuLysrKGefg94l1hdVqdRonI80jCI7yr46rVyKrSejr67NTVQplaJr2ulzGZrNhaGgIKpUKN27cQHJyss93mN3d3fjwww/xb//2bz4973wRiUQoKCgIuhY1X6IY+LYsM1xdun19fXj77be5DOf8/HzEx8cH7H2QjoWeLBBCMb6bkZHBPZt9fX145513kJCQMGdppCsiWZcg4gw28G3JjDtUVlaitLR0hhSnWCx22820bNkyLjOY9PL1ZAJiWdatrE1nK0bSQANwnilP4uDOIM3lbweIy7yyshJJSUmcJrivJlexWIx77rmHU46LMg1fk91isXDGDYCdgh/ZJZLPxdlzSfIaZvvMAmUsp6amcPz4cU7dLC4uDhs3bgyosfYmySwUv/MikYjzppHwanV1td8bGoUjEWmw3YUI9M83U9qTBYI/caXl7gybzYYjR47g8OHDfh5VaDA5OYnPPvsMBw4cAEVRyMnJwS9+8QvIZLJ5T7JWqxUikQiPP/44cnJy3A7FBJJguAfJNUlIhuzsHA0GMeYkDuyYnMlntoUwSVoKhNHU6/U4evQo1ybyjjvuQEJCQsAMNkkyDTevxGwQIS2iYumtm59sXALZ/ClQ3HYGW6vVcjW5FRUVeOSRRyLqoXeX69ev45lnnvGqeUc4Yjab8c0333BhBYlEArPZjJ/85CfzijkT45KWlgapVMoZlFCJnxE3NCmRC2RyIcMw3ATs7vHzOcZsNnMepkC6RUlJZSC03fV6PSwWC7KyssI6bk3gZ3XrdDq8/vrrkMlkLpsPuXvOSLg3zvCZwSaqWqTV4HzqTH0BX3SEz5o1a/DP//zPXAmVP5tHhDImkwljY2PBHoZL+LF3f8Q3TSYT/va3v6GyshL3338/AODWrVsYGRmBRCJBWlrarM8wyQUgKn+PPvoo15hlLrUlvV6Prq4uLF++3Ol5HfHkvZNxkXtmtVphMpmQkpKCXbt24eLFi9Dr9WhpafFITMaTFrnkPQS6NzEp/5tNeTDcF+cTExN2jY7cJVQWkI4IBALOO0nKZBcuXIglS5YEeWShiU8N9vHjx9Hd3Y2MjIygGmyaplFWVgaZTIb6+no7F+WVK1fw+uuvIyEhAbt37w7aGKO4ZmxsDF9++SVXZrdixQq/7F4MBgM3AQLT9dqNjY2Qy+Worq62E3FxBuk+B4Drae7OxGg2m9Hf3z/r30l83VP1PlJpIBQKIZFIuMqCkZER1NfXA5iWsDx8+DDWr1/v9nlPnz6NtrY2bN++3a3dD2ncEgzIIorfrxwA1740XKFpGkVFRU5LF+eC5AWEWvkUCSfxn3GxWByy5ZHBJiJd4uTBVqlUuHTpkp3BbmpqQlNTE4qLi7Fly5Z5uV7CFYZhMDAwEHJfXgLp+wxM5we0tLRAJBKhoqIC165dg06n445NT0/Hpk2b5pyIVSoVHn74YdhsNuj1euzbtw/AdOMYUo5FjOjU1BROnToFAMjJyXGZEOjq/pGe2a7ctzExMSgvL0dPTw9SUlK4yYokBPHPS1rMCoVCCIXCOV3MxEVPjD5hZGSEu6cJCQnYuXOny3M4o7u7Gw0NDdi8ebNb35lgP1tkt03uLQlTOLbr9VZoY3R0NOAxUpqmvRIXIc9EJGts3y5EpMEmX0CJRIKEhASnZUuh6iIKBFarFS+99JKd4QtVLBYLpyJ18+ZNTqGNQERg5kIkEnG19OPj4xCLxVi1ahXq6uowPDwMg8EwI3GQNM7wxPhYrdY5Y7EUReHq1as4deoUfvzjH3PeKGfvg5yLNDTx5Ll1VssPTAvOpKenu3UOo9GIxsZGLFmyBOvXr4darXb7+qEAP0ud/JdvaImQDsHdErN9+/ZxC7zU1FSvS5C8gTwTpByUeA6cjZmESCIxAet2JCINNkGtVmPRokVob28P9lBCCpZlMTY2FnL1mHPB1xEHpg1PTk6ORzskhmHQ2dkJhUKBRYsWoa+vD52dndDr9XbGUC6XQyaTeTzR0TTtVuyW5BDYbDa33bTeLjJdCe7MhdFoxOHDh/Hyyy/j0UcfxY4dO9x+rVAotGuDGkrw74XjooZ4M8gz5Sy0d+3aNbS2tnLZ7nV1dX5tLkMgbm3iKSC9rck4BQLBjGfJmbcllODfa3/gLI8pnIlogx3obNFwQSgU4pFHHsFvf/vboDct8AaRSIRFixZhwYIFHiuWsSyLa9euQaFQQKvV4vLly06PIy5oTyGT5tTU1KzGisjNBiIJSqfT4eWXX+Zqhh3bxLpiZGQEe/funbGYmQt+c5NQNNiz4agyyB8/yT7+5ptvOK8PaacaiHmGeAecXYuEU0jSI1k0hrril78MNil7o2l6hlcunIlogw1M78IUCsUMw0Q6X82n0Xy4IhAIUFZWBrFYHHYGW6PRoKCgABs3bvTK4NE0jQ0bNsBms2FsbMzl60nvcE+ZTUKWT2lpKQoKCgKSnGk2m9HQ0MDlcjzwwANuiQLt3bsXPT09Xl3TUVEvXHF8DzabDWVlZcjJycHVq1ehVqtDSsc7VL0agYYsGkN5seINflkWhtJNKigowKZNm2b0H+7t7cVbb70VxJEFD29dpMGGpmmsWLEC69atg0Kh8GplTpqyaLXaWV+v0+m4mLkn94uIP8y2ohcKhVCpVEhKSgpKmZG7rUZVKhWn2ucJfJdtpGGz2bj+6zKZDNnZ2QHz4oXjd3Y2AiVHG0leVp8v70dHR9Ha2upUMzsYiMViLF26FAqFAmNjY+js7ERjYyOsVmvYaGj7GtKq0jEmHOoweHKOSAAAIABJREFUDINvvvkGFRUVfr9WX18fBgYGkJKSgri4OJSUlLi1G55L+pGUWwVzEiFx0Lm46667kJCQgNHRUU56112IDGmk0dvbixMnTsBkMiEtLQ0bN24MWKnY2bNnsXTpUq88P6GIY8KfP+BLuEZClrzPDfbk5CRaW1tRWloaEOUfd6BpGgsWLAAw/QE2NjYiPT0dDz30kNvnIBNcuO8aTCYTXnjhBbz99tshKaE5F8PDwzhx4gTWrFkzpzSjxWLB+Pg417xlfHwcly9fxo0bN7B27VokJSXBbDZzNZ9El51vaEZGRpCcnIzCwkKfuK+JXnYwcddlKpVKsXbtWo/OrdPpMD4+zom3xMXFhf13hs/4+Dhu3LgRcEGYU6dOQavVhsyc6gsC+VwE+zvnK/wSQGtra0N7eztKSkr8cXqfoFAokJub6/LvJAZHEtesVqtdMo0/IG5Ufz5cvb29OHnyZNjtrgkmkwnnzp1DfHw8li5d6vK4vr4+9PT04NixY1i6dCnUajW+/vprjIyMwGQyISYmBps2bcL169e5xZzNZuN2hpOTk1CpVEhISIDZbMbNmzc5N7JCofCqvClS3cR8Tp06hb/97W8ApqV/H330Ua9qh0OVvLw8rFmzhqvjDwSTk5PIy8tDZmZmxNzLQC5cIyWfAvCTwTYajWG1eyPlEmQyJTKMxIUiFovBMIxTY02ySkkGqbsPocVimbFKJ9KPvn6QSSLK4OAgnn32WZw5c8an5w80RqMRra2tKCoq4hTGHDlw4ABaW1u5/+cjk8mwcOFCrksaEU65fv06LBYLcnNz0dbWhrq6OmzatAlvv/029u7dy70+NTUVJSUlyMzM9KhFJ1+GMVJRq9WgaRrd3d2QSCQ4evQoFi1ahISEhGAPzSfIZDJUVFTAaDTO2nbXlwwPD0MikUTU7hoI3A6bpmkIhcKICNFEfJY4gWEY9Pf3o7m5GUKhEPfddx/i4uJgtVq5XRVfwpAPqcV17C1NjiUPgqOx5SsqOQo2uIojkmvQNM1N7vN5sMmCwmKxoKmpCceOHfP6XKECy7JoamqC2WxGTk4OlixZAplMZjd5Ll68GGNjYxgbG5tRS82yLG7duoXExERkZGRgZGQEe/bswfDwMORyOUZGRqDT6VzKI968eRMDAwPYvn27ncF29nzcbtTW1iI9PR3/9V//hY6ODvzlL3/hdtpardYrWc1QY8mSJaisrAxYq8qioqKIM9ZRvOO2Mdh6vR579uxBT08PEhMTUVNTA7lcDrPZzH3p5opLkZ23KxxLKhwnb3dqAfnnsFgsEIvFs9YqkgxmR3cr+T2ZVBiGwa1btyJilQlMv7/W1lZ0dXXh0qVLuPPOO5Gfnw+z2Qy9Xo/U1FTceeeduHr1Ks6cOWN3741GI/bs2YP+/n4sWLAAer0e3d3dePDBB3HvvffCaDRCKpUiJSXF7pr8RYGzGv9QdL2xLIvR0VHuc4+JifHbLp801KmpqcGzzz6L48eP47nnnsP58+fR39+PZcuWYfPmzVCr1WHraSDfM5qmOVEOf9b4WiwWmEymiFjozIZOp8PQ0JDf5qdICUXdNgabpmkolUqIRCKsWbMGAwMDyMzM9GschR+TdtU9bK7Xm81ml7KDxLhbrVau0QO5DnH3kutNTk7ij3/8Y9jGrl1hMpnQ19eHa9eucf9PNLOB6QnP2T23WCw4c+YMLly4wBlakUgEsViMrq4uFBQUYGxsDFNTU1wjiZqaGk7eFEBYxBNtNhv+/Oc/48aNG6BpGvfddx8KCgr8ci2xWIzY2FjQNI3c3FykpaVBoVBg7969OH36NPbs2YPDhw/jV7/61ZyNVcIBiqIgk8lgMpn8ZmjGx8dx8+ZN1NTU+OX8ocDo6Cj++te/4uTJk9DpdMjKyvL5NYjHMtwzxW8bgy2Xy7F69Wp0dXXhvffew6VLl/D8889Dq9X6/dpkhzxbQwhXOApxEBc3X6YQAFf7S9M0ZDIZlyBH3MEsy4adSIon8F397mbw8l2aWq0WU1NTOHz4MFiWtesTTgy2UCicNTOd5DG4mrzJ4iqQnexYloVOp+OeDblc7vb1+R4Dd9pqOnodJBIJduzYgS1btmDv3r04evQo9u/fj48++ghlZWVYs2aNXdgo3PD3rk2v1+Pq1atYuXKlX68TTPR6PV5++WV8/vnnEIvFuOuuu1BeXu6XZyISdtm3jcGmKArx8fEoKyvDqVOnuN1pIFyYzhLM3IUIcQDfdoFytkok74NhGBgMBq4rkUQi4ZKqIk14gc9835tSqYRcLofFYnGqkGSz2XDp0iWkpaVBLpc7PQdN07MabCIVGS4MDAzgww8/REJCAnbs2OGVG5ssEnbv3o2qqioAwKFDh9DY2Ij6+nps27YNCxcuDNu2l/6cQ8RiMbKzs8M2fDAbRGny448/xldffQWpVIrvfOc72LZtm0eJnLcbAgC/9vVJaZpGaWkpkpOTfX3qeSESiWAymTAyMoKEhATk5eVBKBR6rZoVKMgO293JgRgG8qPT6fCnP/0JLS0tARhteGIwGNDT0wOtVuuyfaTBYEBKSopd9QAfct9n+4yIUQ/U88ayLBobGzE5OYnJyUlkZmaiuLjYpREgC5WxsTG88cYbOHToEGQyGWpqaubcmctkMsjlcpe7o9jYWCxZsgS9vb2YmJhAS0sLOjs7kZmZCY1GE5ZlbwzD+MUdTrw6SUlJAfXIBIq2tja89NJLOH36NAQCAbZv3+53Yx2KOSZz0dfXhzNnznDfy9vKYANAUlISli9fjtTUVLz55psYGRnB8uXLw26icAdi6A0GAz788EPcuHEj2EMKWeRyOVJTU5Genu5y0iCNQ5qbmyGVSu06NJHJYK5JgeywA2W0aZrGqlWrUFVVhQMHDuDMmTOoqqpCUlKS0+ONRiPOnDmD999/H1988QWsViuysrJQW1s7q+GgKAopKSlzHqNUKrF161YsX74cVqsVbW1tOHHiBEQiEZRKpcsyvVDFHYPN76LlicRte3s71Gp1RBpsIg0sFotRV1eHu+66y2VVhi8g4Sp3OumFEo4G2y9PAsuyMBqNHrUODDSxsbGorKy8LcolpFIptmzZgoaGhojJEvc1LMsiOzvb7UYOVqsVRqPR7vUkTkwmBleQdodkh052ls40y+e763S3GQlBIBAgMTER27Ztw+TkJC5cuOD1tWejsLAQv/71r3Hq1Ck0NTXhk08+QUNDA7Kzs7FmzRrEx8fPqWQXDgiFQojFYq539Vw68wSBQBAR7382amtrUV1dzX1nAkG430+/GGybzYZjx44hJyfH5Uo+2FAUhaysLCQnJ3MTbaRisVjQ3Nwcdu6gQKLT6dDf34/c3Fy3ngVXuQTuGkaLxcIp6YnFYtA0PUN/m/83bw030RlwZ1wkkXHNmjWQy+U4ffq03ww22XWuXbsWK1aswMqVK/H222/j5MmTuHTpEpYuXYrvfOc7LvMFQgXSztLVQpiUf/H/3x2DLRQKUVRU5NOxhhrB8ByQPKBw2mXz8dsdGxkZmSFYEWrIZDJMTk5ibGwspFrk+RpSH0t2cVGc09TUhMzMTOTk5Hh9Dk/uL5m4SZKgs9caDAZOIc2ZwZ7Lte7peC5cuIDExEQ7Q+nvvvIymQzl5eUoLCzE1atX8eSTT+KDDz6A1WpFRUUFSkpKQtZTN9u99/d9CyZmsxlXrlyBxWJBdnZ2QKpt5gPxMoVT0qcz/LrEaW5uRnx8fEgX/RMFtNjY2LCoq/UGuVyOf/iHf8DExAT27dsX8gupYCAQCJCamoq4uLigXH82w+oq2ZCU7gmFQjuDRow/2bG7MvaOkOQflUoFq9XKXZPIYpIMeH8s+khNM/keWiwWfPzxx7hw4QJ+85vfhPxO2xHiHQnVhYY3DA4O4vjx4zAajVyuw9TUFBYuXIjMzExkZGSgrq5uhvYBqVgJtjvaarWG/dznV4Pd0tKCZcuWhbTBBoChoSHk5ORErMGmKAqxsbHYunUrTp06FVGKZ74gJiYGdXV1SEpK8qqpR7AgRplI2fLlbMnfifuPCMAQw0vTNMRiMcxms93kSuKtR48exYULF6BWq7Fp0yauJShFUXNOerMZdGeTNv/4hIQE3HPPPXj++ecxNTUFg8HAKX35asLnX2++53T1XsVisdflWGRRFGr5Ne+99x6+/vprmM1maLVa3HPPPejp6cHRo0fR3d2N+++/HwaDAXv37kVfXx9MJhPEYjG0Wi3uuuuuiGkLGkwiL/0wiktKS0vx85//HH/5y1+iJV7/H61Wi7q6OuTl5c2YvCmK4ho8GAwGGAwGANM7zlBahPLlMYkwC7/X8OjoKJ599lmMj49j9+7d3HslsVfyWpZlcfPmTWg0Gpw4cYKTbi0oKOB22+4aOKPRaLcQIAsEZztOkqTKsixomsbu3buxcuVKvPXWW2hoaMDbb7+NzZs3IyUlxSc7baJtMFuowd3z8D0RwLducMf3yfd4zEVPTw8mJiZQW1vr1bjmwmQyzdoiVKlUIiEhATRNw2g0YmBgAGq1GlNTU0hPTwdFUdixYwdWrFgBg8GATZs2cXr8f//73xEbG4sVK1bg6NGjqK2tRWVlpV8zwF3hTHQq3Ika7NsIpVKJ7u5urovV7UZsbCxycnLsJuj8/HxkZGS43PkxDIMNGzbg1q1bXFlcfHy8nURpKEHkbC0WC2c0bDYbbty4AZvNhpSUFJelUySGrVQq8eabb0KpVOK73/0uZDIZt1N3ZnAsFgsuXboEtVoNpVLJXZM/QTIMw9UW89vUOhMwkkgkyMrKwtNPP43BwUF8+OGHeOONN5Ceno7S0lKfyHQSTwHJ1vfUaBMD7OhtIFnhjthsNrfdsZ54E3p7e/HNN99AoVCgqqrKZUni8PAwzp07h8LCQrS0tOCtt95CQUEBJwPa0dGBjo4OVFdXo7y8HFqtFjRNo7OzE8899xx2796Np556ivtMyeIrJiYGMTExUKlUKCoqwuTkJNavX4+srCysXbuWWzwGC36viEggarAx/aG2tbVBKBQiLS0taHFMf0NR1Iwdwe1CbGws6urqUFhYaDcZOsu+ZhgGPT096OzsRFJSElJTU5GWloaqqiqYzWaMjo5icHBwRnOQUIIvXUt2u8SYuHLV0jSNZcuWoaenh9ud86VJycTrmB1PURSkUinXqMIVxDATmV7Addc6YNpwp6en40c/+hHOnTvHtT99//33AQDLly+HRqOBWCz2KJxFdvvkHnmzy3a1eCH4wn1vNBq5KgFg+v61tbXh+PHjkEqlEAgEuHHjBhobG1FdXY3BwUGUlJRgwYIFoCgK3d3daGho4HbqpBRRJpNh586dKCws5Bae7e3t6OzsRE1NDTQaDRdmSUhIwN133428vDxIJBKX7ysuLg733nsvgG97J0Ri/Xiwid5RTD/Ivb29AKYTtEgDg0jDZDJFXPMPd5BIJFi6dCkKCgrcSgIaHR3F0aNHMTExgfz8fLS2toKiKKjVatTX12N8fByZmZmIjY2FQCCYdSILNgzD4J133sHg4CDKysqwYsWKWbXQKYpCTk4O7rrrLuzZswcffvghioqKuEQwZ4s9kUiE2tpat2OuZHfqDmTir66uRnV1NXQ6Ha5cuYIPPvgA//M//wORSIRVq1Zh3bp1HsWM3amXDxbJyclgWRZfffUVFixYwIUBhoeH8frrr+P69evYtWsXsrOzkZeXhzVr1iApKQm3bt1CTEwMjEYjKIriPBVEHnbdunVgWdZpc42CggIUFBRwjYOsVisEAgG0Wi02bdo055iJMEkU/xI12A60tbVBo9G4lKcMR6xWK65du4azZ8/igw8+CPZwAo7JZMLly5dRVFTk1qrfbDZjfHzczrBdu3YN7e3tnKFpbm7GlStXkJaWNqcKWDAhjUxMJhPi4uKQkJBg93eyM+WXvMTExHBhAnIPZjOwg4ODoChqxrn9gVKpxNKlS5GRkYH//u//xr59+9Dd3Q2r1Yri4mJkZ2eHlOHgywR7SklJCT744ANukU30Iu677z7O3cyHeAbJtZRKJdeZzd2FCQmpkP8nHQDDGZKlHu4Z4kAADPZcKkukYxLf9cPHscezq7/5inAuqneFzWZDS0sLXnzxRUxOTgZ7OEFBp9Ph4sWLyM3NnVMyl98KlTwPjpMuce+Ojo6ipaUFmZmZYbnIIzsxADNUuJRKJXbt2jVrwtDAwAAuXbqEVatW+X2sfBISEvCjH/0ISUlJaGhowFtvvYXExEQ88sgjqKiocMtoE9e4N+5wYDpM4MoQ8w2d2Wz2eCdPPDoPPfTQjPlIJBIFZFFCFmnOPBfhZMTDaaxz4Ve/L8Mw0Ov1mJychMVi4f6f/6PT6aDX66HT6ex+TzJy+Zl+JpOJ+7vJZPKZYfVUvjHckEgkWLduXUQlX3iKwWDAqVOn0NPTM+excXFxKC4u5jp0zTbZjo+P4+LFixgbG/PlcP2Cs4mL7KKdLYxJbJr8zVmsVyaToa6uDpmZmX4c+UxomkZaWhp+/OMf4+mnn0ZKSgo6Ozvx0ksvoaGhwa3vMl821F1IqZxjOZzjMfwWuN663YkrW6FQ2P14s8jwBpZlYTabubpr8hNu84i/GrQEA7/usIl7hWStzvYlcnS5kQeFD9+okvO5ckUSBSiyQyK1p47nI4sK8oHGxcVF1IqMEBMTg3/913/F73//+9syjk0gi8HZyrKkUinq6uqwePHigOoc+5OsrCw88sgjsx4jFosxPj6OTz/9dMbfJBIJl+HNdy3Gx8cH3bOwYMECPPvss/j1r3+Nixcv4sUXX8Tjjz+O5cuX+zwXhcRqXZ2XaIZ7Igkb6pBEQSLIE45qYeEwZovFgv7+fu775axVr18NtslkQl9fH1QqlVcP7mw3mYhBOIOvwUzqO0lWJcl2JSUdjqUZKpUqLAVUyMrflVSlQCDgaitvZ5qamiAWi7F06dJZXb1E3StSEIlEcxpWmqahUqmwZs0aO6PNzxAPxZ2KQCBAZmYmfvazn+GZZ55BQ0MD3njjDUgkErfd454wl667o9JXJEAWrvy2vYB9FcFscws/rEQWfr6Gfw3yGYXq59DX14crV67Y/W5qagrHjh3D+Pg4gGnvVUFBgd178KvB1ul0aGlp4UppfP0huVoEkFIWPsTFLhQKub7Yzj7Mnp4eFBcXu5zMZ+tARt4fiW+SBzPQO3ZivOfTNCJSMZvNaGhogMlkQnZ2tk+SlFiWRXd3NxITE0NKUAWYfhY9mbQoisLQ0BBOnjzp9Pnhx20nJiZw+fJlbNu2LeiLXJqmsWDBAvz4xz/G119/jYMHD+KVV15BbW0tamtrOcEPV9hsNtTX16O9vR2pqamora31qgVqJOyoneFYK082OWQB52iEaZq2836SkCZJZHP2vJAQAjHqrr6Xs+UyEc8GPw8lFCD5MCdPnsTw8DC6urq4xjrOvMRFRUVITk7G0NCQ3e/9nnTW19eHixcvoqyszGupPl9CktxcYbPZ0NjYiMWLF88w2vwWivy4HhGp4D+0xBXvqsaT796fj1Hln4eUZJBOUgKBIOgTaShiNptx8eJFdHd3QygUOi1z8QSWZdHT04OCggJOwjNU+Oqrr9DU1IScnJw5FyYsy6K3txevvPIKTp8+jcceewz5+fnc95aUWJHw1dTUFBoaGnDHHXeEzHNWWVmJsrIylJeX4ze/+Q3ef/99nD9/Hk899RTS0tJmfDZ8o3zu3DkcOXIEsbGx0Ov12LJli0fXnm/MOpxwnENdCeqQe8t3pfPvj2OYkzxbxOCS5D1HI028GI7zLv+8ofA5sCyL8fFxtLa24vPPP0dnZyf0ej3EYjHUajVUKhU2bNhg970CgMTERMTGxqK5uRmNjY3+7YfNx2Aw4Pjx44iPjw94Yoo3sCyL4eFhjI6OIjEx0ekxjpKL/F0MX+6R/E4kEnGyi3yDTlapRN+ZPwa+W8fZw8jvPuOqXIGf8R6usaf5IBaLIZfLXSaEpaamzpkx7i5WqxXt7e2Ii4sLigyjKwYGBmC1WvGDH/xgTkGgnp4efP3116isrMT+/fuRnp7uVBWNTKAqlQp33HFHSCzE+QiFQqxcuRK//OUv8cYbb6C1tRXPP/887rnnHmRnZ3N68UKhEPHx8ZBIJLBarSgpKcHJkycxMTGBxsZG5OfnIysry+3QCOl3HWUaZ/MNCVcC385JJIGYb5SJ8SKeQscFATmWbE6IEI679f2BgGEY9Pb24uWXX8bNmzdhMBggFAqRmZmJBQsWYPXq1WBZFnK53O3GJAEpHg23mI7RaERHR4dLg82HPCDkYXHMSCQG1TF2w09I4es5k3NZrdZZE55cdXDiw9dMJguESHXZOSMxMRElJSX44osvnN4rX8omCoVCFBYWhlzcmwi7xMTEzLnz7+/vx5o1a2a44fjQNA2JRMKVKo2NjYXkM0WMdkVFBQ4dOoTe3l709/fbLUJkMhknA0rTNB544AEcOnQIV69exdmzZ3HlyhXs2rULGzdudOlB4BuOKHPj6IVwnPv4xxED5u48FyqQTd+FCxdw6tQptLe3cxu2FStWYPPmzYiJieFqw92ZywmhqfYQZIgkoqc4kyvkP4yuVn+uXPSefJCu4O/0IyXj2R2USiXKy8uRmpqK1NRUp+Vcvr4X3sQ8/c2KFSug1Wqh0WjmPLaurg6Tk5N49dVXXR7Dl5xUq9W48847Q+49E4RCITQaDe6///45j7XZbFyXKWD6OzkyMoIvv/wSq1atcmmw+QvyUL0PoUYo7YJ9DcuyGBsbw5tvvomLFy/a5TItWrQI27Zts/NaSSSSOSV9+QTEYMvl8pBzm80G2UVEGjk5OVi+fDkOHz4c7KH4nZqaGhQUFEAoFGLt2rU4ceIEhoeHuQzM+Ph4LFmyxKfxZuLWC5WJm2VZpKenu+32ZxgGExMTaG5unvNYgUAQkjtrb2FZFk1NTZiYmOB+505lBYmVCoXC6C77NmdychJDQ0P49NNP0dDQAIZhuHaxGo2Ga5QCzAxruovfDTZFUSgqKnLLvRwqGAwGNDU1ITc3F1qt1ict/UIB0tknUqEoCgqFAqmpqUhKSoJQKATLstBoNNiwYQM6Ojpw5MgRJCUlITMzE0ql0mfGlWEYDA4Ocu04yXicEQijTrw97pZhDQ4Oorm5GRkZGSgsLERHR8ecrwmnRbg3KJVK3H333W5l/odiuVuUwMCyLHQ6Hfbt24fjx49Dp9OBZVmkpKTg7rvvRklJiV3ojWSMe6OAF5AdNhFdCBdYlsXQ0BCGhoawYsWKiDHY8fHxyMnJweDgYLCH4nMKCgqg0Wig0WhQWlrK/X54eJiLIY2MjICiKCxduhSFhYU+vT750pI8gdlqTWerl/fleDxxPTY1NWHv3r148skn8Z3vfAcHDx6c9fjboVyQpmkolcqQyvqPEpocPHgQBw8ehNls5oSXSkpKsHDhwhnHMgzjtXhV+FjRKPMmPT0dTz31FJ555pmI2mmnpqZi5cqVM7Kgh4eHsW/fPty6dYubfFUqlV92hgKBAKmpqZyhJOpQ/HpUkpBIylFmC7vws2YdExkda1z5xpO8zlOVLZlMhg0bNiAzMxNxcXH44x//iLy8PJfHE5GHu+++O+IN92yQzyK6w749sVgsOHDgAA4cOACz2YyYmBhs27YNK1as8MsmNWqwbyMoikJKSgq0Wm2wh+JTSBkeKdch8AVkMjMzUVdXB4lE4lePCTFe/JpTMpnzDahjQiFf+pGMm28EHF9L/iYSiTjXP3G1zdZj2hkGgwEajQYLFy4ERVFQqVSorq6e9TVSqRSrVq26rY01gcSvIymmH8U9bt26hcbGRk6oq6qqCsuXL/dbuCgg3boGBweh0+m4gHuU4BJpk6zZbEZXVxdSU1PtaqC1Wi02bNiA9vZ2lJeXQ61WB+W9O5vIHdX4+Ds1d5JQSBycrOLnU7an1+s54Rd3oWnaaY22q7GSMfLFgkItq96bsTAMM0NVMUrkw7IsRkdHsWfPHrS0tAAAkpKSUFhYOGcJ4HwISHCmvb0dAwMDYbkCna0rTzgiFotx9913B6R3cSBpaWmZ0TqU7Kzj4uJw+fLlkO6Hyy8PchdSf2oymeZVYx8fH4/169d7ZLD0ej3ee++9OcdLxmQ2m7lxkh/iCQiFeYGmaWzduhUpKSkev+52KZWMMp1caDAYMDIygr/+9a84ceIEGIZBSkoK7rvvPpSXlzt9HQlTGQyGeS3wAuYSP3/+PJKSksJul33w4EFs374dqampwR6KTxAIBCgvL0dMTMysAhnhBsMw0Ol00Gq1M5KExsbGMDw8HFELL0KwSolsNhtu3LgBi8Vip+DnCJmonHXKI7F+kUjEyVACgU9oI+EEb9qk0jTNqR1GiVwYhsGtW7fQ1NSEY8eOwWQyoaurCyzLIi4uDjt37nTqoSILUqvVyjWichfSrIpPwAz2+Ph4WCZmaLVaGI1GO2GEUHLjeQNFUcjLy0N3d3dYfibOsFqt6OjoQEpKygxp0GXLlsFms/m9tj7cnwtPUCgUePjhhzmXPD9Bzlm83VlMj8TqiQoUSdQjBny2RQBZfJHEvvnce5LUJ5FIUFBQgCtXrnjkjRGJRB43WYkSHrAsi4GBAXR3d+PAgQPo6+uDTqeDSCRCUVERRCIRli1bhqKiohnGlTzfxH54YqzFYjFUKhViY2Ptnu1o0tkc0DSNpqYm6HQ6CAQC5OTkhH2Zl0gkwoMPPoizZ89yQiLhjlgsRllZmVMdb39/XhRFIS0tLSLFdlwhEAgQFxcHs9lslwXvaqc5W4kZX42PuPnnkuXlG2yxWOyTjNzdu3ejsrISP/3pT9Hf3+/2626HErfblYGBAbzyyitoamrifldaWory8nJUV1fPmlxms9lgMBg8XsiJRCKo1WqIxeLg7bDDGZPJhNbWVojFYqSkpIS9wQamH4rk5GRN41JIAAAgAElEQVRYrVbo9fpgDyesoSgKycnJIdOxKpD4q+EC34jPdX2Scc/fwfC75Dkm8hEjzzey890di0Qij3dRUUIbhmHQ3t6OtrY27neFhYXYuXPnnLkO/FahniCRSBAXF+dyIRBVBLhNSU9Px3/8x3/gvvvui4gFSCgQ3WUFB6LoRgy3zWaDyWSC0WiE0WjkYuX8H747fr5GlrjlaZrG2NjYjOTHKOGJXq/H/v37ufCIWCxGfn4+EhMT5/SqMAzj8UJWIBAgNjZ2xmKST9Rge0BcXFzE7KIkEgmysrLwwAMP+Fz163ZDqVRGFz0hBl+r2RkWiwVGo5HLXic0NjbCYDB4fD2KoiCVSnHu3Dl88sknaGho8HrsUUIDm82G0dFR7hlKTEzEunXr3Oor783uGsCcqnoBNdhmszmsO7UkJydDJpN5LEwRykSK4ENxcTGUSiWGhoZw+PBhDA8PB+S6KpUKFRUVM0RbooQu/K56jkmXn332GZfXsWrVqjl7iBPIjquiogJ9fX1488038de//hUXLlyIZpCHIZOTkzhy5AgnIapUKlFTUwOJRDKnJ83bdp9yuXzOxUDAYth6vR4HDhxAfn4+amtrA3VZn9LZ2Qm5XI7x8XEUFxdHRP3lwYMHce3atWAPY16IRCJkZWWBYRj09/fj0qVLyM/PR3x8vN+vLZfLodVqo+7wCIFvXEtLS6FQKDx6fW5uLn7wgx+go6MD//u//4uWlhbQNI309HTIZDKPzxclOHzxxRecO1ypVGLr1q2orq52a3ft6c5aIBBALpcjJiYmdAw2wzAYHh4Oa8GOiYkJXLhwAQqFAhqNBnFxcW518gllhoeHvRaiDxUKCgqQmJiI/fv3Y2BgAMB0dqdUKvVYCMMTSMwpaqzDH4Zh0NHRAZ1ON+9zJScnIz4+Hk8++SQ+//xznD59Gq2trSgtLUVVVRWkUiny8/MjYsEfqYyMjHC75KVLl6K6utqtcCgJsbjrtRQKhdBqtRAKhW41mQlolrhSqURubm4gL+lziErTqVOnUFVVhYyMjGAP6bZGrVZzNZB6vZ5TETp58iS6urpw3333+e3acrkc+fn50W5OEYDNZsO7776Lnp4eANMhlvT0dK/PJxQKUVVVhSVLlsBqteLIkSMwmUzo7e3F6dOnsXnzZrd2bFECC8uy6OjosGsvK5VK3TLWVqvVo6Y7FEVBLpe7bayBABtsmUzm1x1PICHlLEajETRN25WRhBOrV6/GsWPH0NnZGeyheEVcXByysrKcxoz8nSCYnZ09a0ZnlPDh0qVLuHDhAoDpEEtZWdm81Q2JXrpAIMDWrVsBTE/qBQUFuHHjBt555x0sWbIEhYWF0UVfCMAwDG7cuIHXXnsNnZ2d0Gq12Lhxo9ubTMeGPs4gnzNpQiSVSj367AP6lIyOjuLcuXNeBeRDEb1ej4mJCS6ZzrEOk8QzQrU+k2VZZGdnR0TCFE3TiIuLg1arhUQigUKhQGVlpd+uR1EUZDJZ1FhHACaTCU1NTbhx4wYAoKioCJs3b/bLtYRCIRYvXow1a9aAYRi8+eabPnHDR5k/Op0OH3zwAa5fv474+Hjs3LkTtbW1bnla3CkPJHNUQkIC4uLiIJfLPV6oBdRgW61WfPPNNzh9+nTYd7hhWRZXr17FuXPnMDY2BpPJhKmpKa4mlBjqqakpTE1NeZ0pSjJavS0TmA0iZB/Okop6vR5tbW2wWCzYvn07HnnkEc5F7k/depZl0dLSEjGLz9uZtrY2vPPOOwCmvYALFixAfHy8XxdjMTExKC4uhsFgQGtra1hXz0QKVquVqy5Zu3YtKisr3Q5ZkOY9rhAIBFCr1ZDL5fNS5guKH6axsdFjkf1Qg8hR5uTk2O2giWCDyWSyM4TEfe7shxxLzkFWaxaLhevGRI7zJKHBGfz6VHKecN4pDg0N4cCBA5yUJEVRKC4uRk1Njd8zcjMyMvzW9zZKcIiPj8fq1asDcq2lS5ciOzsbBw8eDJpEsON84OonimvcuUdisdgnCcpBMdih6iL2lISEBGRmZkKj0cxwbZD+xPx/k52y44/FYuHaI5KdORF14Nd8k3PM997xMxlJu81wzXZ3FCmgKAoZGRkoLS11qivuKyiKQkJCgk80rKOEDvwe4/5GLpdj69atuHXrFo4ePRrQ9q9krmFZFgaDgfMEOvshbV9DObznC4xGI9c9zt2FOH+jNtd98YXmfHS28SOePNhEWtGd17nqDCQQCNz6QvFfT9M0cnNzUVhYiMuXL0dFHtxAKpVCpVJFd9dR5gVN08jKykJqaiq++OILZGRkYNmyZX6/LsuyXLUL+fdsOG4+hEIhRCIRBAJB2HrmnLF//3709fWhsrISixYtcvt1RPrWFb5cBAbFYNtsNly/fh0ajSZsOxxpNBqfu1zdMfCuVHRIRqo3ymUqlQr33nsv2trawjIBJiEhARqNJiDXIjHOtLS0aElOlHlhtVpx+fJlaLVatLW1cTu8+bYLdQWZFxzlWD15LTBtoEjLVMdxOuvhDISHzr7JZILNZoNYLPZoMS4SiVzusGUyGZcR7guC4hK32Wzo6OgI64QdrVbr16QmTyGuYW/cVZOTkzh06FBYfR781T0pp/C39K1QKMSCBQu42HW0FCfKfKBpGvHx8UhPT4dYLMaxY8fw0UcfYXx83KduZxJjtVqtXKjNF+ckhp//QxYd/OYrjjk6oUpVVRW0Wq1Hr5lrIeKugpm7BGWHTUQFog0TQgOr1YqbN2+GjTtcJpNh8eLFGB4exujoKIBpFbrz589DoVBgzZo1Pr8mTdPIy8vjanMZhoka7AjAarWir6+Pe/YTExMDFsNWKpVYuXIlqqqqEBcXh/3796O5uRkTExNYvXo11853PuMhsWqj0RgQo8kwDAwGw4zrWK1WbucaqrttjUbjtXaD4waC/M7Xc0RQDDZN01CpVNGEnRBBrVbjiSeewG9+85uQd4lLpVJUVVVh8eLFdrq9DMNgcHDQr8lzcrmc250IhUIIhUJu5exsMoy0GF8kMjExgRdffBETExMAgJ07dwZMl4C05JTL5bjnnnuwfft2DA4O4v/+7//wu9/9DnK5HPfffz+qqqq8zpew2WycsQ4UzhYFDMPAarVy8dxQ/F4cPnwYExMTyM3N9djQknmHJPFZrVZIpVKfh3yjFjMKaJrmEl6OHj0a0jvt2NhYrs6aD8uyqK6u9tt11Wo1lEol92+SJEgWnY6JgGRichbTczVZubP78eVEx79eKE6ggYC4dgmB2gEKhUK73RxZAGZkZOB73/seAODEiRN49913YbVaUVNTM+cGx/H5YRhmRnlpMOF/ZwQCwayLkEA/j8S9Hxsbi2XLlnlksF2N1RdZ4Y5EDbaXkBKHSHGLJiQk4JFHHsH4+DgaGhpC5kvuCEVRM+45KY+jKMpvcqSxsbEzkgxJrbwzyN/ISpuiKJjNZrtduSNzZZuKxWKnz5s3kwLLslyZYFReNfCQTGtHSOjlhz/8IW7duoXGxkZ8+OGHkMvlbgl5WCwW7pn0pnOUv+F/L5x9d2iahkQi4RYfgZpfT5w4gWvXrkGtVoe05zcyrE0Q6OzsRHd394x+uuFMamoqfv7zn6OqqiqkH1pHrl69ildeeQUfffQR9Hp9sIdjBzGMxDgajcZZ613Jsc5+SBIPOd5gMNj9nb/DmiteSZSZyJhCPSHIHzAMg56eHlgsFlAUhdTU1IDpEcxleFNSUlBZWYmCggKMj4/jxRdfxJkzZ+ZMquQ/b6FmrPnwx8n/sVgs0Ov10Ov1mJqa4iSf/YlOp0NzczMYhsH27dvnfT6iD+6POTQoBpt8WOE8SVitVnR1dUGv14dFBqQ7UBSFuLg4fO9738OuXbtQVFQU7CG5hUqlQmFhIbKzs/3yJZFIJIiNjfX69Y5lNN6qSbEsC4qiuONJMhH5IbsropBHduzOXKUMw9jtqvnjIPHGSHimZ8NiseD999/H6OgoaJrGnXfeGZDmRAKBYM6FgUAgwKOPPoonn3wSarUaRqMRBw8exK1bt2b9bCLhM3P2fJO6cb6YlC9U2AwGA/bt24fz588jPz9/3u2fiQcwNjbWL0nVAgC/9vlZ3YBlWaSlpYW1+AR5oKxWa8T0RSZGu6KiAiMjI7h06VKwh2SHUqlEcXGxnes7NjYWubm5SE9P94vBVqlUyMvLC4m669l2G467bbLLckx+4yvrAd9OkCTmRiZFx9c5e77nG3d3fL3jsc7OP9f3bK5zkmMsFgsOHDiA3t5eCAQCVFdXIy8vb9Zz+wKFQjFnGIKEd5RKJTIyMjA6Ooru7m709/dz3gDHGCnxmkSC0eZDFpDkh/+Mk++k4+JzNvjHjo2N4Y033oBer8eWLVt88vnTNA2FQuETd35fXx/OnDnDvaeg+D0ZhsHNmzfDXvCeYRgMDQ0BmC4HCVd5T2fodDquZOp2hvSsDdfFGEk8EgqFXPjGmdEnEyFFUdzfjUYj974d5RqJkSduTGfQND2nYSJCQEQml7/gIp4AkhRGjJizhEPH3ZbZbOaOd7YIsFqt+PTTT7kF6dKlSwOiMuZqTK5QqVRYv349ysrK0NbWhpdeegmvv/46Pv/8c+zcuRNFRUUYHx/nOj+FshvcV5DngsTBHZ8J/jMFTHvIaJrm8lz4Rt4f94tlWUxNTTn9G0VRkEgk3MJ4rgRfx3BV+AQqQ5hbt25haGgImZmZwR6Kz7h06RKOHDkS7GHYQVHUvOtSPUUikSA/Pz8kdtfeMlcnIYKj0eP/22azzagrJcpQs10XwIzPi29YiNEHMCMfxFkSnslksvOukM/FMRua/z74yXrEWJvNZiiVSkilUkxNTUGhUISUEBIfiqKQlJQErVYLsViMPXv24NKlS3jjjTewefNmXLp0CYWFhaiuroZIJAr7cKMnEC/nbJ4Z0hmS/I4cK5FI/HavZlsIGAyGGWN0heMxQTPYRqMRnZ2dqKioCNYQfAbDMCFdCuUNZrM55Fqg0jSNioqKgMrZhnLdaCAhxpRv+NzZnRA3Jh+hUOh0onR2rCNkggamPxuy63eVR+I4bmB6IcCyLKqqqpCbm4uRkZE530coIBQKsWTJEixatAgff/wxXnvtNbz++uuwWCy4cuUKaJrG+vXrYTKZIioZ1h1mM36OfyPPrsFgQENDA0wmEwoLC5GcnDzvcdhsNly9ehV5eXku56n5LBCCZrANBgOuX78eEQY7EhGLxYiLiwPDMNDpdCHjaptLZ9lqtcJkMoGiKC5bcz5EjfW3+MoI+Oo8jjXUnl7PX5rd7uBt7J8sIO+44w6kpaWhvr4e+/btg06nw0cffQShUIiSkhIACOtQjr/p7OzEF198gZaWFpjNZlRWViI9PX3e56UoCrGxsX4rRwuqS9xkMmFiYgIxMTHRByvEWLp0KZ577jn09/fjD3/4A27duhXsIbnFjRs3cOjQIcTGxmLz5s2Ii4vz+lwCgQD5+fkRU2sfxR6SvBWMEkaife/KcLsSFiE5AxRFoby8HAUFBVi/fj3effddXL16Fe+88w7kcjk0Gg22bt2KxMREqFQqf7+dsIMk7VksFixbtgxVVVU+OS9N0z4x/K4IWpY4MG2wpVIpd/PCGa1Wi7i4uLB/HwSRSISYmBhIpVL09fWhq6sr6HExmqZRVlYGmUzm8j6TkiatVou0tLR5CakIBAJkZGREVDJhlG+x2WxcJURWVpbPJu3ZIIZ4rjCaY2Y0P0Oaj0gkgkqlQmVlJRYuXMglwvb09ODixYsYHR3FxMQEJiYmkJCQEDHz03wRCoW4evUq9Ho97r///pCduwcGBnD+/Hlu7g2awVYoFFixYgWysrKgUChC8mZ5AsMwUKvVflPaChYymQxyuRxff/11SMTF5toVKRQK5ObmIjMzc96fBU3TARXTiBJYTp48iZdeeglSqRR33313QGqwifSpL0NMJPM8Pj4eK1asQHx8PBobGzE+Po4bN26gsbEROp0OS5YsCevkSV+jVCqRk5ODzMzMkBWKcjTYQfP1icVi5OfnIzExMeyNNTDdotLXbfFChcLCQuzYsWPO4wQCARITE3HHHXegqqoK8fHxPh0Hy7KYmJgImXh6lPCmq6sLt27d4ur4/Y0/tKWdsXz5cvznf/4nHnvsMc4QmUwm9Pf3uyw3uh3JycnBokWLfLrJstlsOHXqFJcJ7muiwTkfYbVa0dHRERK7UF+jUCiQmJg453FKpRKPPvooNmzYgF27dmHXrl0+HYdAIEBVVRWkUqlPz+sKhUIR1sI+UVwzMjKCGzduQCgUIj8/PyCfs0gkCsgOVyQSITc3F2lpadwCobe3Fy+88AJaWlr8fv3bGYqioFar/fY5B81gm0wm9PT0BOvyfiESVYYAYGhoCE1NTXMeZ7FYuBaXsbGxPk12oSgKWVlZiIuLC0gSmFKpRFFRkV2HriiRwcTEBN59910cO3YMNTU1ePDBB2c0dvE1IpEo4BUHaWlpuOOOO6DRaGCxWLh4fX19fUTOU8Gmr68PR48eRVdXl9+8gEGLYRNRd1KCEAkIBAKkpKSEdJN2b2htbcXrr78+q/dAJpNxWr9Lly4FRVHQ6XS4cOGCTxTtiHRkSkqK3+8tRVFIT0+326FEiRz6+vrwl7/8BWazGQ8++CCys7Pd+pytVivGxsbAMIzH33GibhXI50mj0WDJkiUoLy9HVlYWWltb0dHRgZaWFrS1tcFqtSI5OTka1/YRZH5cuHDhrImxnhAyMexIxGq14ubNmxEVY+3u7kZPT4/TjFayQMnMzMTWrVtRVlZmJ56flJSEDRs2+GxCCNSEl5CQgIyMjKixjlAkEgkX4hkaGnI7jDUyMoLnnnsOn3/+uVff8UA/T0RYpqSkBFu3bsXu3buRm5sLlmXR3NzMNb0YGBiIqDkrWIhEIqSmpkKpVPrtsw7N1LgwRSgUIj09Peh1u44Sk21tbejp6YFWq0VpaemMjEhiCIlMZH19Pdem8u9//zt6e3vtBCrUajXy8vKgVCqxcuVKxMbGQiwWo7q62s6oCoVC5OTkIDExEX19fQF45/NHIBAgLy8vYHHyKIFHoVBgwYIFaG9vx549e9xKkCSSpkNDQ5iYmAjQSH2HVCrFjh07sHbtWrzzzjvYu3cvRkZG8N577yE5ORkrV65EQUGBzxNFIx0yz+r1ely4cAFardavde9Rg+1jaJrmOh8FClLTSR6es2fP4uzZs9zfW1pa0NnZifj4eFRWVtoZbJFIhG3btiEtLQ2XLl3CV199hePHj8/aV5q4p4uLi+3ep2PiDkVRKCwsxIMPPoi2tjbs37/fLWUqZ2RmZiIpKcmr13oCaQ4Q3V1HLiMjI/jyyy9RUVGBlStXuhW/ZhgGx48fx+TkJM6fP4/ly5ejoKAgAKP1HRKJBElJSXj88cfBsiwOHz7MSUT39vZy9cjR5999LBYLzpw5g6GhISxcuBCFhYV+vV7UYPsQi8WCixcvIjExERkZGbPW9pnNZoyMjHCuZrFYDK1WO+vufHR01GlZRmtrKw4dOsS59vr7+9Hf3z/juOHhYRw+fNjudzRNo7m5GUqlEsPDw+jt7eX+JpfLuVaLfEiGbXFxscux8snLy4NKpcKhQ4fcOt5xfFlZWVi5cuW8VMvchd8oIkpkk5OTg9WrV7t1LEVRqK6uhkQiwSuvvILBwcGwM9iE2NhYPPLII6AoCocOHeK6Rn3++ee4du0aNmzYALVa7Zd+zpHGtWvXcO7cOaxfvz4gpYFBNdhTU1MYGRmBWq2OiBUdy7IYHR2FXq8HwzDIysriVqvETd3f34/e3l4MDQ1h3759nAFOTk7GnXfeOWtji88//xytra0zfk/uozcwDIO2tja738lkMmRmZqK8vBwDAwMzZEkpigqY60ypVKKuri4g1xMIBMjJyYm6w6PYQTxm+fn5GB8fD/ZwfIJGo8H9998PiqJw8OBBmM1m9PX1YWhoCO3t7Vi/fj1WrlwZEfOyP8nOzsZDDz0EjUYTEPGVoBrsgYEBNDc3o6amJqIeDLPZjLa2Nq4USSAQwGg0Yv/+/aivr8e5c+dmvKa3txf19fVBGO23kG5YhYWFWLZsWUgofJFm8IF6Pkjv3ChR+DQ0NCA/Pz/Yw/ApSUlJ+P73vw8AOHDgACwWCxenb2xsRGlpaTSmPQcKhcLvJYF8gu4SN5vNmJycBE3TEAqFkEqlEWG8WZZFR0cHACAlJQWjo6N47733vNoJCwQCFBcXo6ysDAaDAcePH/dLM47S0lLs2rXLL7q6xPD6SwFovhAZ0tjY2GAPJYofsdls+PTTT6HT6Tx6XUJCQkgsYH2NSCTCww8/jIqKCnzyySe4fPkygOm8lzfeeAMFBQXYsGFD1OsUIgTdYF+9ehU9PT2gKAo5OTmoqamJmLpAi8WCjo4O9PX1Qa/XeyWBFxcXh/T0dGzZsgVqtRo2mw1SqRSfffbZrIlhcyESiSCVSjE5OQlgOnabnZ0NjUbj9TlnIzY2Flu3bsWePXswOjrql2t4i0wmg1qtRm5ubnRiinAYhsGVK1cgFArdzualKAp5eXkRqXpHURQ0Gg1qamrQ1taGW7duob+/HzabDdeuXYPRaERJSQlSUlJ8VlscxXuC2q0LmDZqU1NTsNlsyMnJiYjOXXwYhoHZbAbDMEhISADDMDCZTDCZTNwxaWlpMBgMM2ohExMTsXPnTqxYsYKr7aNpGikpKYiLi0NPT4/deTwhJSUFS5YswfXr1wEAGRkZ2LFjh98MFhn35OQk2tvb3X6dVCrFwoUL/dZURSQSoaysDBkZGRCLxRH17EWZCcMwOHDgANLS0nD//ffPmjPCRyAQwGw249SpU2hoaEBtbS0yMzPdfm2o91WnaRoLFizA0qVLMTU1BYvFgomJCeh0OnzzzTeYmpqCQCCASqWKmA1VOBCywik0Tbv95QlHKIpCcnIyNm7caNcVKC8vDzt27EBdXZ1d0gJFUSgrK0NWVhanksTHnYbrarUaO3bscJrNStM08vPzceedd2Lr1q1Ys2aN33cQZOLyBIPBgJaWFr9qtIfDhBpl/thsNhw/fhzDw8OQy+UeLwL7+vpw+PBhVFRUICsry+3XhcPOnKIoSCQSZGVl4Sc/+Ql+9KMfIS8vDyzLQq/X4+jRo3jttddw+vTpYA/1tiZkDLbJZMLg4GBEa9xSFMWJmBBG/x975xXc1pXf/+8t6B3sXeykqEKJVC+WZEvW0m09u/HuxLuT7Cazk0neMnnPf/KamUzeMplkk9niTXZjb7G1XlVblqwuURJJsYoCi9gpkiDRgXvv/4Fzri8aCZAAAZLnM4ORCNxycHHv+Z1fn58HwzCor6+PW9AkkqGhIfz7v/87hoaGVjyfXq+X80VjCcr5+Xn09fVhYmICOTk5ePLkydq+WBJotVp5AlOr1atOmn6/HwMDA3A6nSkpcUrZvgiCgCdPnoDnebS1tSUlSEOhEP7whz9gZmYGdXV1Sbfi3CyLQVIdbe/evfi7v/s7uRSwKIpwOp3o7u7G/Pw8fRYzRMZN4gSz2Yympib4/X643W7odLotGa1L0r5IAJZGo8GePXsgCAKePn0qa5IMw6CqqgqVlZVRD7vT6cTz58/hcrlWfHBIgFdrayuGhoawsLAgf0ZM311dXbDZbKitrYXH40FZWVnYMQKBAEZGRjAzM4P5+Xno9fp1pS8QtwDHcWhpaYHRaFy1CprX64XD4YDdbofNZlvzuWNByqtuxYAiSjiSJGF8fBw8z+O1115L2P2zsLAAr9eLy5cvY3x8HDt37sSuXbsSnp94nt90cxnLssjNzUVFRQWWlpaQk5ODhYUFzM7O4vHjx+A4DhzHwWg0brrvtpmINIlnjcD2+/14/vw5uru7MTw8jIaGhi1pIi8pKcGhQ4dQX18va8DEF8bzvJyX3dLSgrq6Otjt9iiBbbFYsH//flitVhQXF6OmpgY+n08OICMYjUYcOnQIeXl5CIVCeP78eVgpvZcvX0KtVuODDz5AbW0tSktLo851/fp1/M///A++/vprPHr0CG63G+Pj47I/K1nNQa1Wo6GhAYcPH0ZdXR0cDoccTR8PURRhs9nQ2NiY8hQKKrC3DwzDoLGxES0tLQnFK3i9XnzxxRfo7e2F3W7HkydPMDU1lZTA7uvrA8uyMJlMqfoaGwaJOzl16hTOnj0rB5319/eju7sbPT098Pl8MBqNm/L7bQYiBXbGo8QBYM+ePSgsLJT/JhHMW425uTn4/X7s3r0bFosFJ0+elM3eVqsVp0+fRmVlJbxeL2pqauIuWMg+e/fulX2vXq8XTqdT/mz//v2oqKiQS+UdOHAAGo0GAwMDePbsWZhPmGVZCIIAr9cr3xiSJKG/vx9Xr16Vo9EDgQBu3Lgh55f/+Z//OUpKSpK6BoFAAC6XC7du3cLi4uKqwppQWFhIc0Ip6yaZBjIcxyE3NxfV1dVyDnZ5eTkOHTqUkLAOBALgeT5tAZMbASnVCwDf/va3cejQIRw5cgRXrlzB8PAwLl26hIGBAeTm5qKgoAAnT56kwZtYdqGQ+dRgMKwYqBcMBuOmu0ZWtswKgV1eXo76+vqk9iGVwyRJCqvfTW4USZIgiqIcWZ0N+Hw+TE9Po6SkJCrakjwY1dXVAJYf9vn5eRiNxrgPPMMwcmnTw4cPY/fu3XIeu8ViCfPRqVQqtLS0oLKyEpIk4dmzZ2EduCYnJ/Hb3/4WPp9Pfm9hYSGqshO55g6HA8PDwzAYDLBYLFHXPxZ+vx9fffUV2tvbMTExkbQfLN2TgLJpSuS9pDy/clGzGhvdUpGyMsFgMOE4GY1Gg+PHj4NlWbkGfm5ubsIFVIaHhxEMBpGTk7Pm8WYTHMfJbWd37dqF3t5e/OxnP0N/fz/6+/uh1+vBMAxOnDixJa2jicKyLBYWFnDlyhUIgoCjR4/CbDZDr9fHTI2bmprCtWvXYoRFkJAAACAASURBVB5rfn4+7H7NCpO43W5HQUFB0r5Rl8sFj8cDlmXh9XrlBhiCIEAQBCwuLiIYDMqCLdYLWNukSrr3hEIh+TirLQyMRiNcLhd+97vfoa6uDkajMWobQRDw4sULPHr0CL/5zW/A8zyKiopWvTY6nQ4WiwUGgwF6vT7uik6r1aKurg7Pnj2D2+0GwzCw2WyYmZnBo0eP8OrVKywsLGBhYSFMeMfi2bNnGBkZwYEDBxAIBMKaBpDfgSyaGIZBb28vPv74Y7x69Srpdn5FRUWorKxMap9EMJlMyM/PB8/zCAaDcu10Mj7SWEUURdkSIUlS2LbxXpIkJRV9Ts5FhXz6IL9lIjAMI/9+kiRheHgYfr8fR48eTWj/3NzcrOjel2qIQlBZWYnS0lJ0dXXJqWB9fX3ydjabbct999XgeR42mw0FBQU4cOAA9u/fj3/7t3/DhQsXoFarUV1dLStnGo0GGo0G5eXlOHz4MI4cORL1MpvNuHv3bnb5sJeWllBUVCRP+EphQzRlj8eDQCAQ9goGgxAEAX6/H6FQCMFgUM5x9vv9stBQvqd8KSdcMgEDCNufYRj5/16vN+z8Ho8HXq9XPr8gCFFjjByvTqeDTqdDRUVFlNlfFEU8efIEFy5cwPPnzyEIghyQVVBQIAsNYNnk0t7ejqGhoYTzQQHIFgeSKjY1NQWHw4Hnz5/H1XhZlgXHcVETHTH3NDc3y0EoRNAEAgH4fD5Z+AmCgLm5OTx9+nRNmnVpaWlSqTSJQqwdym5nAMIWfkrhTe65RLU0lmVXFL6CIMj3DikNSe555fnJMYiGqGyJGkmqhD05tiiK8hiVx95Miwrl75nob/f48WNYrVa5XG1lZaU8Ga/G4uIinj59ioqKii0rtBiGQUFBAYqLizE0NAS/349gMIihoSH09fVBq9UiNzd3S3b/IpHzPp8PwWAQHMfJ1RxJwDSZE9VqNerq6rBr1y4UFBRAq9VCr9fDaDTK9xbP8zFfExMTuHXrVnYJbJVKhdLSUnAcB5VKJZtyycTlcrnkC0NeZGJbL2QyUh6bCFfy/0ihG+v8ZDJf7SUIAsxmc1jnKZZl5R//9u3bGBkZkY8dDAYxPj4Oh8OB3t5e5OfnQ61W48GDB7h69Srm5+dx6NChpL4zwzAoLi6G2+1GX18fRFGMq3WQ36axsRHT09PyWMlngiCA4zgUFhaGXQNyfZQTpUajwdzcXNK9sfPy8nDgwIG0BLbY7faEypGSezFZiOCNp4UrhbJSQCpf5HOyvdLVQwrzkIVRpHBYbaJc6RkilgRy35LxhEKhrHI1JQK5N5P5DSVJkrVEv98PlUqF/Pz8hPflOG7VDnybHWImb2xsREFBATo6OmT/7dDQEIaHh1FUVASz2bxlhDbDMDCZTJiensZHH32E+/fvo6GhAUVFRdBoNGEKJ1noNTQ0oKCgABqNBmq1WrbcrGZNGxsbCxPYWeHDVkK0VOAbTXctE+V6zk9YSZCtl1/+8pdwuVzYtWsXGhoaMDs7i6+//jos9Yrg8/ngcDjAMAzGxsbkaPJQKJTWQCyr1Yr3338fhYWFUKvVOHbsGJxOJ27evAmv14vjx4/LN6nSnx4PrVa7pubuc3NzcDgcSee+ZgNKv/h6UN6HkiTJi0fyN9lG6eZRqVRRGjERHmQBonTpxBt/rHEk852yIZ5kLc9ySUkJNBrNmvadm5vDxYsX8Td/8zdbvjIYy7Koq6tDWVkZGIbBjRs34HA4sLS0hK6uLszPz6OtrQ3l5eVbojMjMWcTwUuUkY1oHJR1ApuYmYHkJoXNhtPphNPpxK1bt3Dv3j1ZA1gJSZLCUream5vxxhtvpGV8JAq9urpannC0Wq2cSiZJElQq1YZMRoIgrOpPXytLS0vw+/2bMkgm1vOhDIiLLFtLzHTk87VUj1urfz0QCEClUmVEYBNLwVr2W20RGgufz4f79+9HBQxtdbRaLd577z20trbin/7pn/Dy5UtIkoSxsTH87Gc/w/nz53H27NlNL7C1Wi14nkdlZSX+4R/+AQBiVqNMB1lhq/H7/Xj27BlevHgBn8+H7u5u9PX1bembnQSRER/7eioHEYGWjBbgdDqjemtzHAetVhv2ipxgif9bq9WuSVjv2LFjVbMiwzBQq9Wora3FwYMHN0Vpx81ApMtiLZDfZjXBqzTVA1h1cafM+oj3WgvrtXAov0OieDwedHZ24s0331xzkaH1fu9MQO6N/Px8nDt3DjabTW6N6/f74fV64fV607b43ihIXArHcdDr9XKQ70YI7KzQsIPBIF68eAFJkrC4uIienh7k5+ejpqZm06/G4tHU1IR79+6tuXkHAHR2dsLr9WLXrl3o7OzE4cOHYbfbYTQa4xYYIdd4ZGQkqrTpzp07ceLECQDf+GlSzdzcXFSBl0jsdjtOnTolF3wZGxtLW89Zk8m0KbXrTEKeSbJAjEyBIyZwkqER+SJECn3i14+EZVmo1eq4C9J4Wr/S7L8ewbcWt5jZbMaRI0fWdD5yDYPBoFwlbTPNgwaDAd/+9rfR2toKt9uNjz/+GA6HA/fu3UNfXx9ycnLw1ltvwWw2b2gv6VRAUrMyRVYIbILb7YbX60UoFILP55PbbqpUqk3pv1wJu90Ou92edACWEkEQ0N/fj8HBQYRCIbx48QIsy+L06dM4depUzH2CwSAuXbqEzs7OqMkxGAzCYrGktSf04uLiqj2xSSCbwWCAJEn4zne+s6kmrK2MKIphvx/LsmEWEBJgR1BqiUrzcuR+AOSodxIFT+orkOPF8yXzPB9Te0/EzZSNRAYYbsYiUjqdDrW1tZAkCY2NjRgcHMQ///M/Y3h4GCMjI+jq6sKxY8fQ1ta2aYQ2z/MZD57Liihxgsfjgc/nA8uy8Hg8GBsbw+joKObm5uSKXVsFUgxF2QhkrUTmDANAaWmp/CCQlLSvv/4aL168wIsXL2JquSS9zmq1ylGuhMi8c2V0czKm8cHBwVWblvj9fszNzcHlcuHly5dYWlqCzWZbVw3zWDAMg5ycnJj58JTEUGYBJJPjHLmfsi4C8I2/naTPKKPoI1GmwK1lLOmA53lUVVUBiI41iJzwIwMAlfnfLMuuqGFHFvWJR7xrt9pxE90+HuS72O12lJaWwmq1YnZ2FouLi5icnITP50u6tS3J6tnodDFiAt/IOIysjhKXJAnV1dXIycnB48eP4fV6w4qebDbT0EqkM2LW4XBgampK9hUHAgFcv34dX3/99YqmQVJ6tL29HVVVVTh58qT8mSiKuHXrVpSwzc/PR1tbW0LjSjTaVpIkTExMyNYHnU6HYDCIffv2JXSeRLHZbGuKWqekn1j3CtHIs11r1ul0UebwQCAgF9KJXOCSOg/K70uEkTLFFQgXmMqguNUWzZHWhlgWDuVxgW+uM5mDExGq8RYQHMfhwIED2LNnDyorK/Gv//qv8Pl8uHHjBliWRVtbm3xtSIGieAF/7e3t6O/vx/vvvy+7syIzIrYqWSWwNRoNCgsLUVpaCo1Gg66uLpSXl8uVv1paWrZ8ikQqCQQCmJqags/nw+Dg4Kp+PBLRCSw/4Hv37oXZbIbf78fdu3fx5Zdfyil3hNXM20ocDgfa29uT/h5erxfz8/NJ77caWq2W+q83EamqvbBRKH35RPhEFp8h20Wi3J5Agro4jpOFNVkIJCKslOeJJ+hJymCscfn9fvn88Y4fCATCrCOR49JoNDh9+jR4nseFCxfg8/lw584dPH78GDqdDu+++y5aW1tx//59PHv2LOZ53G43nj9/jv7+fvn4f/Znf4adO3em3AqnJBsKwGSVwC4oKEBhYaHcJYbU4JUkSa6RvZUwmUzIzc3F7OxsSo8rSRL6+vowNjaG9vZ2uShLMjgcDly4cAFnzpxBV1cX7t69GyWsCUptiFgOYv1WpBJdNqBSqTLuj6Ikx2YS1sDygjlWZbVkc9iV/ycNRYiLKpm69pHEyhZY6Tgk8j9SKBJBpjweqd4VC4ZhcPjwYTQ3N8PlcuHSpUvw+XzycQoLC/Gtb30Lr7/+esz9Q6EQbt68ic7OTty7dw/BYBCXL19GaWkp7HZ7MpdgRciCi2TPZENHsqwS2KSUG/k/icZramrK5LDSRk5ODlpbW3H79m0sLi6m7LiSJOHRo0frOkYoFJJrBL98+TKusAaWmxx0dHRAkiTk5+fj8OHDaRGEiWoSiUDKJlKBTUkHa81zXw0iNFNFsoI+1vnJAj2y6NRq4yQR1x9++KGcCUCOpVKpoNfrASDKPM5xHN555x3s2LEDT548QTAYxNTUFDo6OuIG264FkmJ84sQJGI3GtGrviZJVQWc2mw1lZWVbupSfEoZhoNfrYbFYMD4+npYHfL3Mz8+vWDzC6/ViYGAAz58/x9jYGEZGRmCxWGJG9RsMBgiCgMnJyaQLUrjdbuTl5YWVdF0PKpUKubm5WyougkLJBGvNF49Vu5/M/cQyQawUylK9ZHEwNTWFmzdvylX/SF+DVMHzPEpKSpCTk5MRV6wgCOju7sbDhw+zM+hsO8IwDIxG46ZdpJAa6wSfzxc3z1qn08k9wO/cuZOUeZxkEKQKj8eD8fFxlJeXU4FNoWQBpDpfvKY2BKXZPZ0Qga10O2xk5sHi4iIuXLgQds7NKSW2GGq1GsXFxZtWaCeDTqfD0aNHk9KUTSYT9uzZA5vNlrJxrLXsJIVCSS+JaOterxcPHz6MinxPNco2mBupZfv9fty7dw9zc3Nh71MNOwvQaDSoqqrC8PBwRnNH14Oy9ORKvh6Sl0ny0BPBZrPh2LFjKY/oXim3l0KhZC9LS0u4ePGibKWz2+1oaWlJ2fEZhoHBYJDb2a61Hv1aWVpawqVLl+B2u8PepwKbsm70ej3a2tpQWVkJAKuW7tNoNHjzzTdx5coVvHr1Ci6XayOGGQbLsvB6vVhcXEyp5k6hUDae0tJSlJWVpex4JPAt1UF+iXLhwoWYRbWyyga7tLSEoaGhpHJ7two6nU5OY8tWSMqW3W5HYWGhXOQgLy9PTqmw2+2rCmyWZbFjxw784Ac/wM6dO1c8n1arRWlpacrMXQzDwGq1orS0FA0NDWktw0qhUFIPcWcR6xjLsjhz5kzKKxZmKrZlYmICAwMDMYOQs0rDnp2dhdPpxKlTpzJaYD0TmM1m7NixA5OTk5keSlz27dsnC2aNRhNWBz1ZgcpxHIxG44qduKqrq1FbW4va2tqUdOzS6/UoKiqCzWbbdvcXhbJVEAQBt2/flou0HDp0CEVFRSn1YW+0z1pJd3c3ent7Y36WVQJ7OzM/Px/V7jKbIAUNampqACynaFVUVKTtfGq1GpWVlWhsbEzJ8RiGgdlsRmFhIY0Kp1A2MQsLC3j06BGCwSDMZjP27duXUu1ao9HAZDJlJAjY7/djYWEh7udUYGcJgUBg1baTmUSSJNy4cQN3796FyWTC66+/ntb2pzt27EBdXV3Kjk8i8eO1YqRQKJuDO3fu4Pnz5wCWWwKnch5iGEbWrjMxT4yMjODTTz+Nm8FCBXaWoNfrkZ+fL9fyzkZIcJharcbU1BRmZmbkz1QqFXbu3Jl0q7yysjKYzeaoSm9qtTqlbQVJswMqrCmUzY3b7ZYDwbRabUrnCdLWNxPzhMfjQXt7O5xOZ9xtqMDOEoxGI1pbWxEKhTA1NZXp4azI5OQk/vjHP4a9x/M8nj59Gjf1ymQyoa2tLSqdq6mpCWq1Gp999hmCwSC8Xi8EQcDIyAgGBgZQW1ubkjGLooiZmRlZy6ZQKJuPrq4u3L59GwBQWFiI1tbWlJ8jU/PDH/7wB3z22WcrbkMFdpZAKp6R+rmbjVAohMHBwZifMQyD8vLymDnmPM+jrq4OP/7xjxEIBHDhwgU4HA4sLi7KZVEXFxfliFCLxZJQMAgxbZG87/Ly8qS1fwqFkl3MzMzIVkiDwYCCgoIMj2j9SJKExcVF9Pb2wuPxrLht1glsURQxNzeH3NzcrCi2vtFsJe1Pq9XCbrfLkf/xtG+O45Cbmwu/3x+2zezsLLq6uuSKRizL4uDBgygsLJQf1HjXy2azoaKiQtboeZ7fFpXkKJStSmTN8lTPlSqVKqmCTqlCkiRcunQJPT09q26bdRJREAT09PSgoqJi2wlsoolOTExsiVx0nudRX18Pq9WakCma53kcPHgQo6OjcLvd6OnpibqJr127BrvdjjNnzqC8vDzusYqKilKel0mhUDLH7Ows7t69C1EUodfrcezYsZQKWKPRmJF0z5GRkRXbFyuhKkcWIUkSnE5nVnbtShaTyQSNRgNRFLF///6ECpRwHIeGhgacPXt2xTKk8/PzGB4ejnmdTCYTdu7cSYU1hbLFcDqd6OnpgSRJ0Gq12LVrV0rqMwDIWNe+YDCI/v5+vHjxIqHtt5cKuwlYWFjY0Jq1qUan06GkpASHDh1CYWFh0gUIGIZBZWUlCgoKMDIyEnMbSZLQ1dWFmpoaFBUVyQ8ay7Iwm81ZXzGOQqEkR2TN/1QLV71enxFz+OzsLC5evJjw9lTDpqSUsrIy/OhHP8KuXbuQm5sLk8mU9MOVn5+PtrY2FBcXx93G6/XixYsXYWYkjUaDkpKSNY+dQqFkJ6IooqOjQ65ulqrqhwzDQKfTQaPRZCTGJRQKrZjGFUlWatikM4okSVsqCGs1GIZBVVUVpqamVo0WzBRGoxEHDhyA2WyGWq3G7OwsvvzySwDLq9TW1taU/GZlZWV4//334XA4wvw7oijC6/VCkiT09/dj165dKe/iRaFQsodQKITLly/jd7/7Hfx+P5qbm/H222+vW2CzLCtn5mSTnOF5Xs4tD4VC8Pl833yWqUGthN/vR29vLw4ePJhVFzLdMAyDvLw8mM1mWShlGz6fD729vWhpaUFlZSVycnLw5MkTAN/UQ0/Fb8ayLEpLS+VyqKTyz9zcHK5cuYLZ2VmEQiE5snwzuxEoFEp8RFFEb2+vXAmyuLgYdrt93cfV6/XQ6/UZyx4RRRFOpzMq3bWmpganT58Gy7JwOBy4ePGivE1WCmxRFKP6gG4XeJ5Ha2srHj16FNZcI1sIhUKYmJjA5cuX8eTJE3z3u9/F3/7t3wL4xryUSnieR1FRkfx3UVERVCoV7t+/j2AwiKdPn2L37t3QarWyuYxCoVBWg3QbzBRutxsfffRRVO1wvV6PkpIScBwXVQEyKwX2doa0f2xtbcXLly8xNDSE+fn5TA8rikAggNnZWdy6dUsO2GhtbU37A8BxHOrr61FbWwuv14uenh7cunULZ86cQXV19bayyFAo24G+vj44HI5MDyPlSJIEj8eTlCU1awW2IAgIhUIZidzLNERoW61W2Gw23L17Nyt92j6fDw8ePACwvCqsqKiA0WhMu9BmWRYsy8JkMuHgwYO4e/cuBgYGUFpauu1y9ymUrc7g4CBGR0czPYyUQ6pbsiwbswpkLLLWfvjq1SsMDQ1lehgZx2azwWq1ZnoYMcnNzUV+fj6A5ajtK1eubKgrY3p6GiMjI5ifn8dnn32W1b3EKRTK2rBarTCZTJkeRsrR6/X44IMPEqpRQchadYQEFG13dDodmpqaMDk5mfAqbKPYuXMndu3ahfb2dgDLY90IDVcURYyOjuKTTz7B7OwsJEmCRqPBgwcPkJOTk5FqRRQKJT0cPXoUjx49ws2bNzM9lJTCcRzsdntSdSqyVmBTlmEYRo6+TrQazkagUqngcDjQ2tqKt956C8DyWFczhwcCAYRCIWi12jWbziVJwuDgIObn52X/j9/vx7Vr13DgwAGUlpbG9Qut1cediJ+J+s8plPSQjmcr08+r1+vFtWvXkrJKZq1JnPINer0eBQUFGb/BCCqVCkeOHME777wDi8UCnufB8/yqTd+DwSAePHiAX//615iYmFhz2hrLsmhubo7q1DM9PY1Lly5BkiSIogi/3w+fzwefzxfXWkMaCihfsT4n+ZDKl9/vl9/PNusHhUKJj0ajyXj9hmAwiMePH4flWa8G1bA3CQaDATqdLqPBZyzLory8HHV1dTh58mRS9XcDgQBu3bqF69evIxAIYHFxEWfOnIFGo0FpaWlSbUUZhoHdbseOHTswPT0t52AHAgGMjY3FXLEyDANBEORFhSRJEARBLtIjiqLcklNp1pckCX6/X84Dj4TUMw+FQmAYJkxwK88liqK8GCBBc6tBxpTphRr5TjRljpIJpqen8erVKwDL/mwSN7NWyHO+Ge9nKrA3CQUFBcjPz89oIN6ePXvwxhtvwGw2r+h36e/vDxvnjh07MDExgRs3bsgVy6ampvDxxx+D53k0NjZix44d2Lt3b1LViw4cOIDu7u6E0t4kSUIgEJDHTbTmyG1CoVDYQoRhGKhUqrgCm0Aq85FFAOnDTQiFQrLA5nkearU6piAOhUKygBRFESzLQq1WQxCEhFwOZMzxrsFq2ymrDCrfI+OgUDYSQRDw8OFD9Pb2QqVSoaGhAXv37l3XMXmeT0pBSBcajQbHjx/HzMxMmCI2Pj6O8fFxlJWVRe1DBfYmIVPdZAgMw6C6uho2m21VoTE4OIgbN27If+fl5cHlcsmmH2Vvar/fj0ePHsHlcqGpqSkpgc3zfNQ1EQQBXq8XarU6alEhiuKqpmsiWInAZVk24SpqygUAEXwrnSMWSk2cfB8yboZh5GIP8Tq6cRwX9xoKgiD3FVepVHEFtnLRQFCr1duuVDAl84yOjuL27dsAgPfffx9VVVUpqyGe6XtZo9Hg8OHDuHjxYpjAnp6exuzsLBXYmx2j0Qie5zPSflOSJHz11VdyudB4eL1euYQgYWZmRv6/zWbD66+/Lt+MT548wcuXL9HW1pa0T4lUQRNFUa4W1Nvbi3/8x3/Ej3/8YzQ0NCR1PIJSKBKNOdWsprHH2paY1omZPd628e4P4o8ni4B4GjPHcVECOxgMyouYTE90lO2BIAjo6+vD6OgoGIZBXV3dig2BEiXbazWUl5fHbWKU1SN/9eoVHA4HioqK5GLo2xmbzQa1Wp2xftlLS0srntvv9+Prr79GZ2dn3G2am5vR3Nwsa7+nT5+GIAjQaDRJCwKTyYTvfve7ePDgAT7//HN5DOPj43jw4AE8Hg/279+f1DGBZeHEcVzW9iVfbQGRSAAcsUQkc85AICBr2Zku60jZ2gSDQdy/fx+/+tWvYLfbUVVVlRIzNsdxMBgMKRjh+gkEAujs7IwKOhsdHcXY2FhMX31WC+zR0VG8evUKp0+fpgIbwNjYWFZWPAOAx48f48WLF+js7JQFXW5uLsrKytDX1weNRoODBw+iuro6zFStUqnWbOJiWRZarVZOEVMKqitXrmBkZGRNAjuWf5vyjdAGsGmDdiibA5/Ph0uXLsHpdKKlpQXvv/9+Su43rVabFVYiYrH89a9/HRYka7fbceTIkbiWhKwW2MCyJuB2u6HX69ekhW0lMpk6pNFoYLPZ4gabjY+PY3BwUO6Ao9fr8cYbb6CkpASHDh0Cx3EoLi5OyyRfX18flacuimJSZmfK5oCY9TfSB6m0aGzn+WejIL8xme+IRScVZMtC0+v14uHDh1G9sM1mM44fPx53v6wX2H6/Hzdv3kRFRQUOHz6csh9uM2I2m6FSqTLSSnLXrl1499134/p/zp07hzfeeEP+Wxm0le6ygiaTKaa5zOPxYGxsDMXFxXSiTTGiKCZkhYiXwhaZ6kYgkfAkDS9WXrzf74dKpZLnAuU+qSIyQDEUCkGlUoFlWXkhmI7zRqK8TqvVOdgqhEIheL3eLV3b4P79+3j48GHYezzPIy8vb8X9sl5gA98E0oiiuK0Fdk1NDUZHRzE3N7eh57VaraitrY0bpEQmMDKhZYJY98X4+Dj+67/+C3/5l38ZM+KSsnaCwWBCC0eO4+TfhmVZOTYgXnCcMrAtVrR6rPNHBsNF+tcjo/LJtiSAj2yjZKUFCXmfYRio1eqwRWwyAnWlNDvyGakMKEmSvEhRLlSSPW6iY9rohUHkmAcGBjA7OwubzYbKysqUnCNW5shGI0kSpqam0N7eHmYBZFkWe/fuxalTp1bcf1MIbACYnZ3F5OTktp54MxXok5OTs2LE9YsXL9DR0YEzZ87AZrNt4Mi+obW1FcPDw2G9ZUVRlKNMt/N9k0kEQYjSSFdyVayUDpfoPpFab6xUObIfGVci7pNYeftEoBLhnYygC4VCct5/5GKYpOApxxUMBuUOhqtFOgcCAYiiCJVKlVRUNMki2Gg/L7kWZAzPnj3D9PQ06urqUF9fv+7jq1QquSpjJllYWMAvfvEL3LlzJ+z9PXv24OzZs7BYLCvun/UCm2EYFBQU4MCBA9u+qQPDMDAYDJibm0uLuchgMMBut+Ps2bNYWFjA3bt3ASwHj6308M7Pz6Ovrw9Hjx5N+ZgSpbu7OyqdjJJdEGGQblZ7NlI5BuV3Ui5MYglv8rff7w9bRCgFf+SxY53P7/cjGAzK5yALFGI+J4IdWL4WgUAgbDzE/x+p0YdCITl9j2XZsMwAAHHz99frFiDXkFy/9vZ2Ofc6FXAcB4vFkpL87fUyOjqK3t7esHtUp9OhpqYmoa5dWS+wNRoNdu3albUtJjcSlUqFpqYmuTIOeUjWkydcVlYm51WXlZWhoaEBer0eoijKK1ue51e82fPy8tDc3JzRBVVOTg60Wi28Xi9qa2tRVFQkfxZZc5xCSQdKAezz+aKEGMdxMRctiRT0iYTUyifHJbnzkeZ/EsClrKVPqvfFGj8R+iTVKFYRn0giy/kmOn5yHZTuB5fLhcePH2NpaSllMQKJVghMJ6IoYnBwEL/4xS/CKjPqdDocO3YMu3btSug4WS+wyWqVEr1y37t3L3Q6XZR5JVHKy8vx1ltvoby8POqzlSpmRVJZWZkyP9NaYBgGBw8ehE6nA8Mw2LNnD3bs2JGx8VAoQPRCOtWpguT4SnNyImOJFOCrbb/a+8rI/dUg+wuCEHMM8/PzuHnzHzteYQAAIABJREFUJjiOw4EDB1BfX79uzVjZGTBTPvqRkRH89Kc/xcDAgPyeSqXC8ePHcfTo0YSLRmW9wKaEQ3KPJUnCvn37YDab0dnZCZfLJW+j0+lW1XatViveeuutlFQOygZUKhUOHDiAnJycrDB9USjbBaUZPV66HRGUxGQfyy0hiiIWFxflbb1eL/bs2bOu55njOOh0Ollgk1iHSNN+OgV5MBhEb28vent7w963WCzYvXt3UjVGqMDeZOh0Ouzfvx8mkwmVlZVgWRbvvvsu7t27Jz8Eu3fvRlNT04rH4TguKwrgpxJBEDA7Owuj0QiTyZRxMxiFsh1QmudJm91YkMyAeNq7x+PBp59+CkEQoNPp0Nrauu7Ft9FoDOuiF5lmqPT7Kz9LtKPeShBXx8TEhFyJUcnRo0dht9uTOmbWC+xYPYq3MyzLoqqqCqWlpbLfaOfOnaipqZG3Wc3nvJUhq3SNRkOr41EoGwSZoxNN94u1fygUki2FpIToeoQm2ZdU5yMZCiTKnpxTGVhHIAuP1XzzkS1wlRq6IAjw+Xxob2+X24MScnNzUVJSknSaWdYL7GAwiIGBAeTm5mZ6KFkDz/NhNxIx+1C+gUThbodCExTKZkcURdy5cwezs7MAlq2EKzUZSgQS5Kc0xwPLApwU5Vmpzz15rTSHKDV3IuDJ9qRc8hdffBFWfhRYjh+KFTu0GlkvsAVBwPT0dKaHkTXwPJ+0GWU7srS0lFC+KoVCyTySJGFoaEgWbMXFxQmlOa31XIkGACaaAkgi3UVRlOeceFH1wLJ/fnJyMumYGzqbUbYkoVAIfr+fCmwKZRMwNjYmt+G12+2rluhMhExUNVPmwK/kzn3+/DlmZmZw8uRJ7NmzJ+EocRqVs8lQBnhQ4iOKYljkPIVCyV4ePHiA/v5+AEB1dTUaGxvXdbxE/M/pIpG4q2AwiNnZWVy8eBGPHz9O+NhU/dhEkEpnJJhhu3cvWw1lpzd6nSiU7OTFixe4f/8+gGXt+syZM+vWjjeym1s8lpaW8Pnnn4e5dAsLC3Hy5Eno9XoEAgHcvHkT169fB8MwaG5uXlXTpgJ7k0CqExF/h9vthiRJq64iSXpCpm/eTEBy1ikUSvaytLQkm8M1Gs262/BmQ7Etr9eLq1ev4sqVK3LVOKvVivPnz6OmpkauTGc2m/H555/j8uXLsNvtqK2tXfG4VGBnIbFqEatUqjDhI0lSVORhLFQqFQwGw7b05ZKmEIn6hygUytYg00rK6OgoLl68KAtrhmHQ0tKC2trasFzv8vJynDhxAh999BGeP3+OkpKSFetjbL9ZPIuIvKGIUCbadKwbLtmbMBgMwuVywWAwyP10t4u2HQqFMDc3B7vdTjVtCmWbkGzXtHRACrIoibWIYBgGpaWl2LNnDzo6OrCwsCCbxysqKqLzw9M+ckpMiOar/AFJLl+qCYVCWFpagkqlkuttA9lRFD/dKLsAUSiUrQ9RTDYLFosFbW1tcLlcmJmZwdWrVzE5OQmj0YiqqqqwbanA3kCUWjMxU2/UjUWiy5VViFQqFfR6fcabuieKcrUZed1W+oxCoWwOtsKzGwgEMDQ0lLCiwDAMLBYLLBYLCgoKsGPHDrS3t8PhcODevXthmjoV2BuETqeT69pmEuWP7/f7N1VNcVINiRTNVxIMBvHw4UPodDrs27cvQyOkUChrRa1Wo7m5edMoEPFYXFzEp59+KpdEBYD8/PwobTkWPM/DarXizJkz8Pv9+NOf/oT79+/LCgkV2Ckgll+YYRjo9XrZb5GtQV9+vz9rKoJJkiTnTlssFjAMg7GxMVy/fh1+v1+uhqTVatHe3g6DwYBDhw7BYDDA6/Xi3r178Pl80Ov1ci9vCoWSvZBoakEQkJubi3379q1LqVGpVBl385nNZrzzzjv4zW9+IwvtvLw8VFRUJHUctVqN2tpaPHjwgArs9RAIBOB0OsGyLHJycqDVauVgMSWbwZeyUvm8jYLnebAsi1AohL6+PgiCgHPnzkGlUuHXv/41Ojo6wkzefr8fTqcTHMdhaGhITpFYWFiAIAgYHBxEeXk5ra9OoWQ5oVAIo6OjAIDjx48jPz9/zXOmy+UCy7IoKChI5RCTQhRFzMzMhLk/VSoVbDZb0t8rliJIBfYaEAQBo6OjUKlUKCkpgclkyvSQso5AIIDBwUF4vV6UlZXFLDXI8zw0Gg1MJpOcX/7+++/Ln4dCIVRWVkKr1UIURQwMDMjNAYDl3yGyCw4A3Lx5EwDk5gEtLS0wGAwp/X4UCmX9qFQqVFdXw+l0hs0Da2F2dhZ+vz+jAlsQBPz85z/Hs2fP5Pdyc3Nx9OjRlBw/6wW2SqUKax2ZCSL9vDk5OSgpKdnUUdakqEg6ItN9Ph9u376NO3fuwOv14s0334TRaAyrOMZxHKxW64o50hzH4e2335ZTJPr6+sIE9vXr1zE+Pi7nOiq5deuWfC6z2QybzRbWyJ5CoWQetVqN1tZWPH36dF3HmZmZgd/vx/79+1M0srXBsiwOHDiA58+fw+/3y21+U2VpzXqBzfP8utusrRXifzYajVuu+IZSYK8H0pReaX7u6elBR0cHOI6D0WjEs2fP4HQ68eGHH8rXkWXZVaPkI33/e/bsCfu8trYWDx8+xO9+97sos77y788++wxPnjzBD37wA+Tm5ma9m4JC2Q6IoohXr17h6tWrYFl2Xdr106dPsW/fvowHrEmShOHhYYRCIXAch3PnzqGmpiZlFr6sF9iZQqfTyVo11cri4/F4MDU1hePHj8uC8MyZM1EmICK8U3ktdTod2tvbV/XBT09PY3Z2Fnq9Hn/1V3+VFQF2FMp2x+v14pe//CXGx8fx1ltvoampKeljiKKIiYkJHDt2DLm5uWkYZXJIkoTp6WkIgiBHfBcVFaWsFgSduSJgGEYW1ltZUAuCgEAgIGu8sfKalV1nlFV6SP42y7IoKipCfX192OdGoxFGozHt30Gn06GhoQHDw8OrCm1RFLG0tARBEOT66hQKJXN0dnbC4XCgvLwcR44cWbMV0+Vyobi4OOPatSiK6OrqwtTUFACgqqpKjsHxeDyrdvBKhG03a0mShEAgILeoJJM3y7JQq9UwmUxbXlgDy9fB4/HA5XLJqz9JkuD1erG0tISlpSV0d3fj4sWLePToEQDAZDIhJycHNpsNZrMZRqMRPM9nLBreYDCgqakp4d9qaGgI//Ef/4EXL16keWQUCmU1+vr64Ha7cfTo0TU36wiFQmhqaoLFYknx6JKnp6cH//u//4vZ2Vnk5ubi/PnzKCgoQCAQSImwBraZhs1xHCRJwosXL+Dz+dDS0hLme93qna1Ylg3TREVRRCAQgMFggEqlQigUQmdnJ8bGxsAwDOrq6vCtb30LGo0GNpstK3Ic18PCwgIePHiAgwcPZnooFMq2xu12w+Vyged5lJeXr3leGR4ehtlsXrXLVbrx+/0YGBjA2NgYWJZFSUkJcnNzEQgEUloaeUsIbJfLhWAwCJ/PB6/XC7vdDrvdHiacNBoNVCoVxsbGsHPnTpjNZgBboxTeagiCgLGxMQiCgGAwiOrqatnfwzAM8vPz5eYYyrQqZc3xbMVms6GyshIDAwOZHgqFQkkAl8uFTz75BO3t7WhsbFyzKXxpaQkWiwXV1dUpHmHyvHz5EpcvXwawbIlsa2sDz/MxM1jWw6YW2IIg4MWLF3j58iVEUUQwGATHcSgsLITJZEIoFJK31Wg0CAQCcDgc6OnpwenTp7dU/jRpJSmKoiyEDQYDgsEg3G43bDYbfD6fvPpT5ioqE/SzWTjHoqysDD/84Q/x9OlTfP3115ienl7V/BQIBCCK4qa2FlAom5WZmRl88cUXaG5uxnvvvbfuCOpMz1miKMpVFlmWRUtLi+xWTZUpnJD1Apv4nAmRwsVqtaKnpwdVVVWoqamBRqNBbm4uOI6LWrnxPI/i4mLcuXMHPp9v0wls4mMWRRFqtTrM7xMMBvHkyRO5Ats777yDgoICOe1K2Yd1K8GyLKqqqlBeXo6ysjL8z//8jxz0EQtBEHDjxg00NjYiJydnA0dKoVCA5XlMEIQwS99asFqtKC4uTuHI1oYkSejs7EQgEADP87JPXZIk+P3+rWcS53keFoslZtUqn8+HBw8e4LXXXkNeXh70en1YWk5OTg6qq6vB83xC6ToNDQ2oqalZc5BDplhaWsLk5CTu37+P+fl5NDU14dSpU7Jpn2VZfPDBB3JJPLJY4Tgu49GTGwHP89i/fz90Oh0uXLgAh8Mh1yWPZHR0FIODg7Db7RlfnVMolK0FqR8RqWymgowI7MjALqPRiOPHj2Nqako2ISwsLKCvrw8A4HQ68fz5c+zYsSNmsQ3if02ERAV7NkEqqmk0Ghw+fBiSJIHjOOTn56OoqEjebisHzCUCy7JoaGhAZWUlrl+/jj/+8Y9wOp1R27lcLly+fFnuDLQdFjQUSrZgtVrx9ttvJ90MgyBJEtxuN4aGhtDa2rrplK/1sOGSi2VZ7N27N6x6mUqlQmlpaVgJ0qGhIfT398sCXBCEmMXQtzoqlQp5eXlRpT0psSFlZE+fPg2GYfCb3/wmrAc4sPzAj42N4ac//SmOHDmCPXv2bEl3AYWSjdjtdnzwwQfwer1rMhcLgoCOjg4UFhZmfD5Uxg4By/NPOueSDRXYPM+jsbERR48eTUor3spIkgSn0ykLFbvdHhaEUVBQAKvVSgVKkuh0Opw+fRo+nw+///3voyaGpaUl3Lp1CyMjI7DZbGte7VMolOQhKbRrEdgcx2Hfvn1yrFImCYVC+MMf/oDp6WkAwMGDB1FeXi5/nup5e0OlgM1mw5EjR1YU1oIgYGhoCCMjI2HvLy4uYmFhId1D3HB0Oh0WFhbw8uVLjI+PyzmF5GWz2aiwXiNarRaNjY0rBrbMzMzg6dOnKQ0MoVAo6YNhGNjt9owLa2A5Qnx2dlZWuMxmc5h802g0KZ2/N1TDdrvdcDgcaGpqinuxg8Eg7t+/j5cvX4aFxAcCAbjdbpjN5rBeo/GO8fz5c7mzU3FxMcrKylbdbyMgZv2cnByoVCoYDAbU1dWFfU4FdOqoq6tDXV1d3HQvn8+Ha9eu4fz581kxAVAo2wWe5xEKhZJOfRoaGkJ+fn7GmkIpef78uaxcVlRUoL6+Xv4sHamyGyqwPR4Pbt++DYvFEtcEyTBMzCACr9eLe/fuQavV4uzZs2EVypQIgoDe3l7cunULbrcbwPKqp6ioCK+//nrc/dKJsna1xWKB1WqFwWCgAmIDYBgGp06dwujoKIaHh2NODoIgwO12Z8WCjkLZLhB/bzLWrUAgAKPRmBX97YPBIHp6ejA2NgaO41BTUxOzFbRarYbP59uctcTdbjfGxsbihrur1Wq89tprKCkpCXvf4/FgbGwMXq93xeNPTk7i9u3bsrAGls3p4+PjG2721Ol0MBgMKCkpQUNDAxoaGlBSUgKz2UyF9QZA8iDLy8vxF3/xF9ixY0fM7ZxOJ/7zP/9zxfxtCoWSWtZStnNkZAQzMzNZUUNjcHAQX331FYBlK+6pU6dibpdKJSAjtteOjg7Mz8/H/IwUQ9m3b1/UF1Wr1Thw4MCKPnC9Xo+Ghoaw0pvFxcVoampaV7/VROF5HmazGVarFeXl5aisrITNZpPTyUj1G1I8IBAIRL1EUYQkSQiFQvL/NwJlh66NOme6IDmQgUAAwWAQeXl5+O53vxsWEKLctqurC48fP87ASJNjq/w+FEoy9zAJzuU4Dnv37k3jqBLD5/Ph0aNHsmLY2NgYpfWT+X2t2rWyngYhIwnJyjD4WMQziwPLQnulFYvNZsOJEydQVVWFP/3pTzCZTDhz5kxYKc50wbIscnJyYDAY5DGS8qjKix8MBiEIAkRRjLnCJLnmpBWkVqvdMFMt+W3WWt83WyDpFgSWZVFZWYm6urqogEbgm4cr2yENW3ie35AFKIWSDYiiiPv376OhoSEr8q49Hg+uX7+OQCAAhmFiKpKhUGjNtcQZhpE7Iirn/owIbFEUsbi4iPz8fHAch4WFBQiCEFZ5qqioCIcOHYLD4QCwnN60e/du2O32VY/PMAxKS0tx7tw5vHr1Cvn5+Sn/DpIkweVywW63Iz8/Xx638mZS1jJX/r1a72blfqIowuPxyH8zDCMLcGWv6tWOqdw/MqhNkiRZkyeLCUmSor5LKBSCWq2WzfnKVSM5piRJ8rWINSZyfnLOZMdPto+3gCGadbxFocVigU6ni+lauXHjBurr69HQ0JDwWNIN+U3IYoJo16FQCH6/HzzPQ6PRpGVBR861HesfUNKPWq2WFZfV4Hkex48fR25ubsbvRY/Hg//7v/+Dz+cDz/Noa2tDXl5eSs+hnOeVZERgh0Ih2c+s1WrR3d0NlmXx7rvvylXINBoNDhw4IJs/kpmYyDZlZWUoLi5O+Q9M6pTPzs7CaDQmPK5khNJK+/l8vjANnOO4qOIg8Yis9EaEJVkJEiEcDAbDFg7kfVLgnpyfQFpvhkIhaDQaiKIIv98fZQoi5yeaIrE8xNo2FsT6stL1Jq6EWBw5ckSODI9c/c7NzeHx48coLy+HXq8P+yzWxKIskkCEKClLmAqUgjny2iiFaaqI/I5ksaDRaDLW85yydUmmMqNGo4nSNjOFKIpy1gnJ+Em11q9Wq2NmC224wCYXfH5+Hl9++SWA5XzZ/fv3Rw0wssFFsqS67KROp5PbdJpMprCyoBuJUlAKgpBU4EYwGAwT7hzHxfWTx3sv1vmU5mQiTGIJzcjzR1YKWg1JktbVsk6v1+PMmTOy0I4c26VLlyAIAkwmE3bv3o2qqip58RFpMVH2Byffg2GYKFM1EeJKN0m8ikjk2gWDwbB/Y0GOJwiCvEggzV54npcXdIkuIJSavJJAIJCR7AoKBfhmHs8GYZ1unE4nXr16hUOHDsV8bjdUYFutVpw4cQJqtRputxuPHj2C1+tFS0tLVpeHJELfZDJlRXRiKklH5Hyyx4wUhOlGp9Nh//79UQKbjOXixYsAlheSRGDHGmMsqwaJTI+E3ENqtVq2XhAhqAwiI/snck3Itko3BdHIGYaRTebxnqvIPFGVShWmZdPANko6STR4Mtvq/ft8Pvn5JApcLFQqlawQJRp4ZjQaYbFY4sYQbajA1mg0KCsrg06ngyiKqKiogCRJ0Gq1WRdAQzQljuNgs9nCtCkKJVnIIob4zpX5p5Hug2QFZTAYlM2LREMmx4t0bSjheV62YJFaAcpFhM/nk+MZSP/w7aDlUDYGkhGzGtl2z92+fRvDw8MAgP3792Pnzp0xt0u2/Cpp6LRSwO+GCWxl8RDyt9Fo3KjTy7x69QqTk5MAllczOp0OTqcTFRUVYZOXxWKBxWKR/862m4ayPoxGI6qqqjA0NBR30hgeHobT6UxLkQZlMOF6NdlYbgLlMeMdnwjzWFkZSleLIAjweDxhi1alSZ88G8rzZPp5yaaxUGJD5tWV7n+O47JKmSPPbSgUgtlsRmVl5apuW4ZhwHFcQlaz1e7VDRPYLS0tKCsrS4lzPpYfNXJBEG+foaEhXL9+HcA3AhtY7pOdk5MjH0un01GNeguTl5eHH/7wh/j444/R3d0dc9J48OABDh8+jOrq6rSMIRtMzsQsuVpcQGRvX+Ib12g08vdQppwl6jdXTtipEqzkOxGXgDJ+YKVrnmrBThcNK6NSqeSslJXIpmvX39+Pjo4OAMuZTLt37151H5ZloVKpUuL62zCBXV5eHrfS1OLiIkRRhMViWfHHcblc8Pl8ePXqFR4/fhx2Afbu3StfPBJur4z09fl8uH//Pubm5qKCxc6fP4+SkpKsWslR0k9BQQHeffddLCwsYGxsLOpzUti/vLycLt4iIMKZBLzxPC+b0EOhUNj1IiVfIwPaiPYkiuKKuf/xAhhjpSiScZFMgVAoBK1WG7ZdrKh7MpZUWtMEQZDjGUgTCHofhUOyVLJh8ZoIbrcbS0tLaTl2IoF1GyawV0pDefDgAZaWlvD222+HBRdEbjs1NYV79+7B6XTK5kSdTofq6mrZbMlxHHw+HywWS1hxeEmSkJOTE/PGMJlMVFhvU6xWa9zKeYFAQC6+U1NTk1WBL9kCMZ0HAoEwH7xSa4oXxCYIghy4R4RZrEkrXgEKlmWjLHahUCgqC2Eld0HkWFYKIiL+/NUgC4lQKBQWu6DU9rdL1PNqkOvt8/liLsqy7ZlrampCS0sLrl+/jh07diQ8PnJ/x/qO5J4yGAyrWqY2TGAPDw+jqKgo5uTo8XgwPT2Nhw8fguM4qNVqNDY2Rj2MTU1N6OrqwsTEBIDloJmTJ0+ira0NS0tLcvpJPI0okaIrlO2FWq3G7t274XA4oh4mSZIwMTGBixcv4ic/+QlNbVqBlQRZIp8JggCv1xsV3LmSKZvss56xRW7n9/shimJMYapclKwG6USlPDZJaWRZNiuaV2QaUpCHmIwjsysSqbmw0Wi1WrlHxLlz5xKuCEksOLEySADA4XCAYZhV47o2TGB3dHQgFArh5MmTsiCWJAn9/f2YmJjA0tISbt++DWBZ462qqorp7zYYDLBarWhoaMC+fftQXV0NnudhNBrlFTqFkihqtRqtra24cOFC3OCzsbEx/PznP8fRo0dRUVEh32uU1BMrVW4jr3Wkr36trOSvJCZ+ZVpdZPDVSpX8SKAgcTMQzV2SJHpfphm/37+ucqORuFwu3L9/Hzk5OQkFYW+YwA4Gg5icnIwKMJifn4fL5QKAMJNavGO88847YBgGBoMBZrNZ/iwb6stSNh8kfa+goAAejwd+vz+sFCyw/FB1dHRgeHgYNTU1+N73vkc1pA1krRUCsxVJkmTLgLLHAMuycl59LF86EfSkTDAxsyp98pt1HiQ1AJS9F7IxO6erqwsPHz5c076RQXaCIMDn8+HUqVOw2+0JCewNXY55vV709/fD6XTG3YZlWRQXF8e05YuiCK1Wi4KCgjBhTaGsB6PRiO9///t47733UFlZGXMbSZKwsLCA4eFhOQeTQlkrJNCOpMx5vV65YI4y/51UnyMvj8cjV78jfncSaLeZrYvKevWk4ZFer88agR0MBvH48WM8ffoUHo8n6ZgWsgBRyjVBEDAzM4Pc3FyYTKaEvuuGFk5ZXFzE1atXUVpaKuc4z8zMxPVPRQapZcuPR9laMAyDqqoqlJSUoKOjQ14Jx2JmZgaPHz+OWyyBQlkLyu5yRPMigWuJkqhZPVshhariBR9milAohKtXr+L3v/89CgoK8MEHH2Dnzp1rClQm1hSScnjy5MmkOiNmxOHx8uVLPHv2DM+ePcP09HTYZ6Io4vnz57h//36UIDeZTLBYLNRPQ0k5JMClra0N3//+92Gz2eJu6/P5oszmFEoqiVcONxbk3iX+d6/XK5eYTUW6FDHFk1e6IBpovH4FmUIURQwMDMDtdiMvLw+tra2rpiDHgyyq5ufn8eTJE7hcrqSOk5WSTxAEOJ1O6HS6sBZjZAVGoaQD4o5pbW3FsWPH4m7X09ODR48ebZrcUcrWhphZfT6fnIPu9XrhdrvlyPbVXsQvTgQ9yWNXFqFxu91yHW2ybbwGQYm+lBX1iMmflMFdCbJv5PHWQ6zjSJKEV69eYXFxERqNBgUFBevW/JeWlvDw4cMwS3OiZKS9ppIdO3aguroaS0tLePDggXyxtFotioqKIEkSJicn44bDUyipRqVSob6+Hk+fPsXo6GjU516vF52dndi1a9eKmjiFshFEdsADvgncJWlqKwlAURTl/ZVlNEmKnTIYjAhrsm28PhArdZkDvon8J62ClZXAEk3lItuT3HZRFNfd2pak3RGT/OzsLH71q1+ht7cXZWVlOH369LrPUVRUhB/96EdrEvwZFdgMw6Curg5vvfUWRkdH0d7eDkEQYDQaw3qfqtVqWK3WpGz9FMp6qKysRFVVVUyBLUkSenp6MDIyQl00lKwnXjxGLIi2nch+JCLd7/eHmbCJCT2RMrBKDZ5A0upIe1giwIPBoFw1jywsyGKFaNtqtVoWqMpANgIx6RMBH1nwh6TbabVa8DyPqakpDAwM4PDhw2hpaUlpr3vl9VG26SWxW7EEekYFtlarhdVqBcdx0Gq1KCkpAcuyOHPmDCoqKuRBk25ZFMpGwbIsrFYr1Gp1zLxcQRDw1Vdfobq6OiNNbCiUTEME+lr82isJc9IeVrkNKURDBKayXC2Jtif7BgKBMEEPLD/PZGEgSRJ4no/bLYwcWxAEzM7OIhgMYnR0FOfPn0+ZSzYUCsnzCikWRr4LSe2LJfMyJrA1Gg1OnjyJEydOgGEYFBYW4u///u8BhHcCAkCFNSUjHDt2DB0dHXA4HDE/n5ycxIsXL9DU1ERjKyjbjnQGoCmFNUlpYxhG1v5XErbKfHXgm1x3ZSnc1QL6BEHA4uIifvvb38Jms6G8vDyl2rWy77zSJUGI1z87YwLbYrHgyJEj8kQXq5A/hZJJNBoNDh8+jMnJyZglMBcWFvDb3/4WwWAQLS0tGRghhbJ9SKSrXKr2c7lc+PLLL+HxeHDo0CGcP38+ZQI70Wh7Yi0IM52nZARrgApoSrajUqlw6NAhtLW1xa0gNT09jb6+vqT8hBQKJbsJBoPo6upCXl4e9u/fL/vON5qoNtIbPgIKZROhVqtRV1eHhoYG1NXVxXTPPHnyBAMDAxkYHYVCSQczMzPwer0wGAzIyclJ2XEDgQDGx8fX7E7ImMAmJofe3t4tVyuYsrUoKSnBX//1X+MnP/kJTCZT1Odutxv379/H4uJiBkZHoVBSzYMHDzA3N4fm5uaUmcIBoL29HaOjo5tPYLvdbly/fh2dnZ1wuVxZVdmGQlFCKjBptVqcOHEiqkWsJEno6OjAzMwMXXxSKJuY+fl5/OIXv4DD4YDdbk+ZwCapoAzDYO/evQkfk+f5MHccB+D/rXs062B+fh6jo6OoqqqCXq/P5FAolBUh0aYi9jITAAANjUlEQVS9vb1yhzkCiSotKyuLqYVTKJTsRhAEDA8P45NPPsHBgwfR1tYGu92eslgrnudRWloateBfCYPBgNnZWYyNjQHIAh+20+nE2NhYSnrQUijpprS0FN/5zneQm5sb9r4kSejq6sKVK1cyNDIKhbIelpaW8Pvf/x4AYLfbUVZWljJz+OLiIoLBYNLFv/R6fZgCkHGBDQCNjY1UK6FsChiGQX19PT744AMUFRVFff7y5Us4HA5aZ5xC2YRIkoTy8nKUl5en5FjBYBCvXr1CZ2dnShoGrVlg8zwPnU4nv9ZT3KS+vp4KbMqmged5NDU14b333oPVag37bHx8HAMDAzQmg0LZpJSWlqK0tDQlxyLFXmpqarBjx451p4atWd8/ePAg3n77bfnvL7/8ck3mQLvdTks7UjYdDMOgqakJ3/72t/HRRx+FlWm8ePEiTCYTWlpa4uZvUyiUrY0kSZiamkJ3dzeOHDmSkmOuWWCr1eqwnqA6nW5Nx7HZbNDr9XLBcwpls8BxHHQ6XdR96/P58OWXX6K2tjbK102hULITjUaDQ4cOwWq1piTQbGxsDL29vdi3b1/KAqrXPKrBwUEMDg7Kf9fV1cX06SVynCtXrtAcVsqmhLTiiyRWWUEKhZK96HQ6vP7662hpaUlJbwCO49Dc3Izc3NyURZqv+Sjj4+Po7++XTYGlpaWw2+1rOpbD4YDb7V7rUCiUjFFZWRnT3DU/P48vvviC+rIplG1KcXEx8vLyUnrMNQtsQRBw7do1zM7OLh+IZVMaBk+hbAb0ej1qampgsVjC3g+FQhgaGsL4+DjVsikUSkpYl56ubHHGcRxOnDixpmhvnuep/5qyaWlsbERNTU3UPTwxMYE7d+5QLZtC2WYsLCyEuYxTRcrysBmGgdFoxNmzZ5NODt+zZw80Go3cXJxC2UyoVCq89tprsNlsYe9LkoTOzk4MDw9naGQUCiUTqFSqtKQqp7RwikqlQnl5edIO+zt37uBf/uVf8Omnn1JthLLpYFkWpaWlqK6ujvJZzc3NweFw0Ep+FMo2wmAwID8/P+XHzYpKZy6XC3Nzc1haWqIaNmVTotFo8MEHH+DUqVNRn928eRNzc3P03qZQtjiiKMLj8aCnpwehUCjlx88KgU0YHR2l5kPKpoRhGBgMhpj1CJxOJ27fvg2fz5eBkVEolI2ip6cHn3zyCa5cuSJnUKWSdQlsi8WyrpKkkUxNTWFiYiJlx6NQNhqdTgeDwRD2XiAQQHt7O0ZGRqK6fFEolM1PIBDAjRs38Nlnn6G+vh7f+973ko7lSoQ1C2yWZWO2xNTr9WhqaoqqsUyhbAfq6+tx/vz5qHK7CwsL+O///m90dHRkaGQUCiVdTE1N4fHjxzhx4gT27duHgoKClBVLUbLmI4qiiKdPn0ZVKCsoKMCHH36Id999F2azOenj0vQuymZGo9Hg1KlTOH36dNhiVhRFLC4uorOzE69evcrgCCkUSiohrXWLi4tx5MiRlFqdI1nXEkAUxahAGoZhoFKpsHfv3qhiEqtRU1ODurq69QyJQskoDMOA4zicOXMG3/rWt6JW2U+fPsXIyIhcv4BCoWxuJEnCy5cv0dzcnBatWklaji4IAj7//POk/dE2m23N5U0plGxCo9Gguro6KjcbAK5du4a5ubkMjIpCoaQSURQxNzcHlUqFwsLCtJ8vLQJbkiQsLi4mHdY+OzuL6enpdAyJQtlwSktL8Z3vfCdqETo9PY3+/v4MjYpCoaQKQRDw5Zdfwmq1ptUUTsiqtC6Hw5GWcm4USibgeR7Nzc0oLy8Pe9/lcuHevXsZGhWFQkkVLMuiubkZZ8+ehVarTf/50n4GCmWb88Ybb6CysjLMv/Xy5UtcuHCBpnlRKJsYjuNQW1sblcqZLtIisBmGQUlJyYasOCiUbKeiogLvvfdeWNS41+vFF198QU3jFAolYdIisHmex7lz5/Dmm2+isbExHaegUDYNHMehsLAQR44cQVFRkfy+z+dDb28vlpaWMjg6CoWyWUirSby1tXVDHPEUSrZjMpnw7rvvRqUtPnnyBKOjozTNi0KhrMq6BLYkSZifn4/bYUsQhKS1B6fTCb/fv55hUShZB8MwYFkWVqsVBQUF4HkeAODxePCnP/0JU1NTtDkIhUJZEQ7A/1vrzkRg7927F2q1OupzrVaL/Px8+P1+uN3uhFoMTk9Po7a2Nmb+KoWy2SkrK0NNTQ16enrg8XggSRKcTid8Ph+ampqSbk1LoVC2Nj09PXA4HABSYBL3+/1xNQOWZaHVamE0GmWNYjUCgQACgQDVNihbDoZhoNFokJ+fj8OHD8tR46IoUqsShUJZlcSk6BqZm5vDp59+iu7u7oT38fv9uHr1qmw6pLXFKVsNnU6HkydPyl28RFGESqWC3++nMR8UCiUuaRXYfr8fk5OTSe0jiiJ6e3tx+fJlfPjhh7IWQgU3ZSthMBhw7tw5HD58GKIoYmBgAN3d3Thw4AC91ykUSkzSGiVuMBhQU1OT9H6iKMLhcOCrr77CnTt3aHEJypaDYRjo9XoUFhaiuLgYZrMZ3d3dtJMXhUKJS1o1bLPZjNbWVjx9+jRpH93U/2/vflqbeMI4gH/3f5KatFVBBUULFtSDFBEvCuJNT0XwtfkyfBE9CD0JXjx40ZMWD1qt2Wx2/vwO8gy7m02yadJ2++v3AwVNspOJtn1mnnlm9uAA7969w/r6Om7evIl+v39CvSQ6e7dv34a1tnGtBxFdPCc6w/Y8D1tbW3jx4kVtFfk8xpipW8aI/k8uX76MR48eYWNj46y7QkQtdeJnifd6Pbx69QrPnj07VtC+ceMGut3uCfSMiIio3a5fv4719XUAJxCwq9uxPM9DFEV4+fIlXr9+jZ2dnYWKap48eYIrV66suptERESt9/jxY9y5cwfAitewrbXIsgxxHJfuTAQAly5dwtOnT7G1tYVfv37hy5cvjdrM85x7somI6EIKgsBNclc2w7bWQmvtDj6ZZjAYuOl9E3t7ezg4OFhFF4mIiM6tpQO2MQbj8RhZliFNU1hroZRClmWlL2MMfN9HFEW4d+8eBoNBo/aPjo6glFq2m0REROfa0ilxay1Go1FpO4rWeqK6Wynl0uQ7Ozv48OED/vz5s1S6W66V2b3Wemphm+d5sNbC8zz3Z7leHiMiImqrU9v0WZwle56H58+f4/v37/j9+3fjNqpBVgYLxhgYY9zsvk4cx8jzHEEQII5jd36ztRadTqe0TkBERNQ2Z3JKg7UW/X6/0Z2Jrl27hk6n4/4+Ho+htUYURVBKIc/z0uun7dtO0xQAXLq+aDgcotPplAK27/ul/hUHBSIIgoniOnmdPF8dBFhrS6+p8jxv7uCh2IbneUsdtiHZCck++L4Pay183+cAhoioRc7sWKVer4f79+/j/fv3U19z9+5d7O7u4urVq+4xSXnXpd2Py1rrAroIwxC9Xg95nrvgqJQqBewoilxgD4IASin3Jc/XBT2l1NS+yzY4CdwSnKvvKcV9QRBgbW1tos0wDGsHRJKFMMa45yVLIe9pjEEYhrV9D8MQWmv3meeRTEjd4/Mc97q66zn4IKLz7swC9traGra3t2cG7MPDQ+R57mZ9sm1MAui0WeoqaK0xHA7d7LOOzO6jKIIxBqPRqPR8k/t/V1lr3XXFzy2UUvA8zwXnaf2Uf7e69iVTIEGsWAsgg41pfZcBjO/7E+0nSeJujSq3kpTBRXGpIkmSqVmB6mcoZlCSJJkYJMwKxPJ/Esdx6f3aELxn1W60oX9E1D6tPrj4x48fODw8BPAvUMlM8DTMWg+vqgaWVan7rHUz87p+NhnQHKfgT9qsa786aJDBRfV1MvsvDhhkECC1BRLoi+1prUvBLEkSdzvK4iBE3lNr7TIPku6XoL+KoFjs93Ha01pjNBqVPmO32+V54kRU68x+M6Rp2ujwlE+fPiFNU2xubuLWrVu1s0Zqh+oAoJodEFLsVwzYSimEYThzuaDaXjGVX5z5SwaimDmQ4Cr1D2EYIgxDd33T76vi0oj0u3oP6zAMGwVxeV76IJ+DBZBEVOfMAvbR0RE+fvw493X7+/vY39/Hw4cP8ebNGwbs/wFZ2qhatCahrp15bciSQ57niOMYSikEQeCKGKVGYBpJs1dn/kXV+gGpS7DWljIxxToMKR6UosgkSdzjRERAy1PiRCelGOwldW6Mmbr2X7xu3lJCsfAQQKmYb9ptZosz9yzLoJRya+/SH54dQHSxMWATYfba/LKstfj792/jPgD/BhFpmsL3/dK2RpndS1q/qMmWwEVorUsFhnXtSp89z3OHIzXZPUBEi2PAJmoxYwyGw+HE43Vn9gdBgF6vd+wtc9Wtknmeuy181XX6Yv9ki+B4PEYURRNnGhDRapybgC0pQyKqJz8fsv49i9YaWZa5tXvf9xGGIdI0nViTz/N8YsvirD5IBoDoPGrz9+7SAXs8HuPbt2/odrsLXffz58+FAvDnz5/x9u3bRbtHdKE0rXgvbkmT2bZsq1v2drY8JY/Oq83NTezu7p76+25sbGAwGMzfWQJgqZ9O3/cbp+GKJNXHe10TEVEb+L6Pfr9/6u/74MEDbG9vT60T2dvbw9evX5cP2ERERHTy/gOXv//CbeafyAAAAABJRU5ErkJggg==;" parent="1" vertex="1">
          <mxGeometry x="10" y="10" width="362.08292143442867" height="275.237420156738" as="geometry" />
        </mxCell>
        <mxCell id="OrEcLO75rSHBagCI1_9a-39" value="" style="rounded=0;whiteSpace=wrap;html=1;strokeColor=#FF0000;fillStyle=solid;fillColor=#FF6666;opacity=60;" parent="1" vertex="1">
          <mxGeometry x="111.09556429195457" y="91.90476190476191" width="16.190532920339923" height="16.19047619047619" as="geometry" />
        </mxCell>
        <mxCell id="OrEcLO75rSHBagCI1_9a-43" value="" style="rounded=0;whiteSpace=wrap;html=1;strokeColor=#FF0000;fillStyle=solid;fillColor=#B9E0A5;opacity=60;" parent="1" vertex="1">
          <mxGeometry x="127.2860972122945" y="91.90476190476191" width="16.190532920339923" height="16.19047619047619" as="geometry" />
        </mxCell>
        <mxCell id="OrEcLO75rSHBagCI1_9a-44" value="" style="rounded=0;whiteSpace=wrap;html=1;strokeColor=#FF0000;fillStyle=solid;fillColor=#FF6666;opacity=60;" parent="1" vertex="1">
          <mxGeometry x="111.09556429195457" y="124.28571428571429" width="16.190532920339923" height="16.19047619047619" as="geometry" />
        </mxCell>
        <mxCell id="OrEcLO75rSHBagCI1_9a-45" value="" style="rounded=0;whiteSpace=wrap;html=1;strokeColor=#FF0000;fillStyle=solid;fillColor=#FF6666;opacity=60;" parent="1" vertex="1">
          <mxGeometry x="127.2860972122945" y="108.09523809523809" width="16.190532920339923" height="16.19047619047619" as="geometry" />
        </mxCell>
        <mxCell id="OrEcLO75rSHBagCI1_9a-46" value="" style="rounded=0;whiteSpace=wrap;html=1;strokeColor=#FF0000;fillStyle=solid;fillColor=#FF6666;opacity=60;" parent="1" vertex="1">
          <mxGeometry x="127.2860972122945" y="124.28571428571429" width="16.190532920339923" height="16.19047619047619" as="geometry" />
        </mxCell>
        <mxCell id="OrEcLO75rSHBagCI1_9a-47" value="" style="rounded=0;whiteSpace=wrap;html=1;strokeColor=#FF0000;fillStyle=solid;fillColor=#FF6666;opacity=60;" parent="1" vertex="1">
          <mxGeometry x="94.90503137161463" y="91.90476190476191" width="16.190532920339923" height="16.19047619047619" as="geometry" />
        </mxCell>
        <mxCell id="OrEcLO75rSHBagCI1_9a-48" value="" style="rounded=0;whiteSpace=wrap;html=1;strokeColor=#FF0000;fillStyle=solid;fillColor=#FF6666;opacity=60;" parent="1" vertex="1">
          <mxGeometry x="94.90503137161463" y="108.09523809523809" width="16.190532920339923" height="16.19047619047619" as="geometry" />
        </mxCell>
        <mxCell id="OrEcLO75rSHBagCI1_9a-49" value="" style="rounded=0;whiteSpace=wrap;html=1;strokeColor=#FF0000;fillStyle=solid;fillColor=#FF6666;opacity=60;" parent="1" vertex="1">
          <mxGeometry x="94.90503137161463" y="124.28571428571429" width="16.190532920339923" height="16.19047619047619" as="geometry" />
        </mxCell>
        <mxCell id="OrEcLO75rSHBagCI1_9a-50" value="" style="verticalLabelPosition=bottom;verticalAlign=top;html=1;shape=mxgraph.basic.x;strokeColor=none;fillColor=#FF0000;" parent="1" vertex="1">
          <mxGeometry x="94.90503137161463" y="91.90476190476191" width="16.190532920339923" height="16.19047619047619" as="geometry" />
        </mxCell>
        <mxCell id="OrEcLO75rSHBagCI1_9a-52" value="" style="verticalLabelPosition=bottom;verticalAlign=top;html=1;shape=mxgraph.basic.x;strokeColor=none;fillColor=#FF0000;" parent="1" vertex="1">
          <mxGeometry x="111.09556429195457" y="91.90476190476191" width="16.190532920339923" height="16.19047619047619" as="geometry" />
        </mxCell>
        <mxCell id="OrEcLO75rSHBagCI1_9a-53" value="" style="verticalLabelPosition=bottom;verticalAlign=top;html=1;shape=mxgraph.basic.x;strokeColor=none;fillColor=#FF0000;" parent="1" vertex="1">
          <mxGeometry x="94.90503137161463" y="108.09523809523809" width="16.190532920339923" height="16.19047619047619" as="geometry" />
        </mxCell>
        <mxCell id="OrEcLO75rSHBagCI1_9a-54" value="" style="verticalLabelPosition=bottom;verticalAlign=top;html=1;shape=mxgraph.basic.x;strokeColor=none;fillColor=#FF0000;" parent="1" vertex="1">
          <mxGeometry x="94.90503137161463" y="124.28571428571429" width="16.190532920339923" height="16.19047619047619" as="geometry" />
        </mxCell>
        <mxCell id="OrEcLO75rSHBagCI1_9a-55" value="" style="verticalLabelPosition=bottom;verticalAlign=top;html=1;shape=mxgraph.basic.x;strokeColor=none;fillColor=#FF0000;" parent="1" vertex="1">
          <mxGeometry x="111.09556429195457" y="124.28571428571429" width="16.190532920339923" height="16.19047619047619" as="geometry" />
        </mxCell>
        <mxCell id="OrEcLO75rSHBagCI1_9a-56" value="" style="verticalLabelPosition=bottom;verticalAlign=top;html=1;shape=mxgraph.basic.x;strokeColor=none;fillColor=#FF0000;" parent="1" vertex="1">
          <mxGeometry x="127.2860972122945" y="124.28571428571429" width="16.190532920339923" height="16.19047619047619" as="geometry" />
        </mxCell>
        <mxCell id="OrEcLO75rSHBagCI1_9a-57" value="" style="verticalLabelPosition=bottom;verticalAlign=top;html=1;shape=mxgraph.basic.x;strokeColor=none;fillColor=#FF0000;" parent="1" vertex="1">
          <mxGeometry x="127.2860972122945" y="108.09523809523809" width="16.190532920339923" height="16.19047619047619" as="geometry" />
        </mxCell>
        <mxCell id="OrEcLO75rSHBagCI1_9a-58" value="" style="rounded=0;whiteSpace=wrap;html=1;strokeColor=none;fillStyle=solid;fillColor=#E05151;opacity=60;" parent="1" vertex="1">
          <mxGeometry x="111.09556429195457" y="31.19047619047619" width="16.190532920339923" height="16.19047619047619" as="geometry" />
        </mxCell>
        <mxCell id="OrEcLO75rSHBagCI1_9a-60" value="" style="group" parent="1" vertex="1" connectable="0">
          <mxGeometry x="463.3349217695179" y="10" width="362.08507823048205" height="275.23809523809524" as="geometry" />
        </mxCell>
        <mxCell id="OrEcLO75rSHBagCI1_9a-2" value="" style="shape=image;verticalLabelPosition=bottom;labelBackgroundColor=default;verticalAlign=top;aspect=fixed;imageAspect=0;image=data:image/png,iVBORw0KGgoAAAANSUhEUgAAAewAAAF2CAYAAACs16tFAAAABHNCSVQICAgIfAhkiAAAAAlwSFlzAAAh1QAAIdUBBJy0nQAAIABJREFUeJzsnXd0FOX+/98zszW9kQZJIAklAQKB0BKQoEGQKvGCCnKxYUfvV7+X37Xe7/XqLSKo6FXvUVBsiDQLIiQgiEhvEQhJSAgB0ns223dmfn/kPONustnsJltm477O4Wh2Z2eeac/n+XQKAA8fPnz48OHDh8cIDQ2FQqHo8jnP82hpaYFOp4PEA+Py4cOHDx8+RIdcLsewYcM8cuycnBwMHjy4y+csy2LTpk0oKCjoENg0TYOiqB53SLbh+e6Vcnv205nAwEDMmjULoaGhDv/Wh4/fAyaTCSzLAuj+/eN5HiaTyZ3DAsdxYFnW5pzgLtx97q6E4zgAHXMzwWQyieI6E3ieF829dwYsyyI4OBjz588Hy7LCPXAXUqkUDMN0+dxkMkEmkwFAh8C+9957kZmZadcOezoRmqahVCodEtz+/v6YNm0agoOD7f6NDx+/J4jA1mg0VidInueh1WrdJrR4ngfP89DpdMJCwpOQ8+8vwsOawNZoNG4XIrZgWRY6nc7Tw3AKPM9Dr9eD4zj4+fmBZVno9XowDAOj0ejp4QlIAGD8+PFYtGhRjxtTFNXjCyGRSBAQEGDxoPnw4aNvSCQSMAxjVSjxPC9ouu6C4zjo9XpRCOv+iLX5k6ZpUQls4Ldxim1cjmIymcAwjKDJ0jQNhUIBiqJAURQMBoOHR9iBQz5snuchkUj6lenJh4/+gMFgcKt2aTQanSKsxSiExID5vST/L5VKBTO0GCBCzVw79VYkkt9EIbneZDEilUoBdFgUPH3tHVKDZTIZ/P394efnB6VSKfwjqxKyTW/82D58+OgZ83fNHHebgp11PN98YR3iGybCkGVZMAwDuVxu1c/pCYj2SVGUhcDzRsh58DwPg8FgsfigKApSqVQUVmO7rjJFUVAqlcKg5XK5xfc8zwufSSQS3wvow4eLkEql0Ov1XTQwb9SuAedYBtx9/u6AuDmIECH/KIoCTdMe1/TMoSgKDMOApmnhPnjr/eB5HkajESaTSRDQDMOAYRhRXPMeBTa5CSzLQi6XWxXG5CHy4cOH66AoCiqVCqdOnUJMTAwGDhwIwDKC3B04U0D21oxKBBrQcV3EFkHdV8w1VqlUCqPRKAhvMQVBESiKEpQ2YhXw5vth7npgWdau+C13YFPKMgwDPz8/UZlhfPj4vWIymfDhhx/izjvvxNdffy2Y735PMSVEUJtMJuj1euh0OtEEBDkTc3OzuYbHcZwolSOitNmbIixWulM+xSCsgR40bJlMBqlUKjjdfXgnKpUKWq0WAwYM8OqXyVWwLIuGhgbhpbx+/To2btxoV8rKiBEjsHTp0h7fEYlEgtDQ0F4vfDUaDdavX4+1a9diypQpmDFjhts1GSIsxaDhEZ8usS6IwVzpCoimR1GUEL9gNBpFvUjxZmsH8Vfr9XpPD8UqPZrEfRO899HU1ITm5mbh740bN+LHH3/Ehg0busQfhIWF/W4L1rS2tqKhoQENDQ149NFHhUlQq9Xi6tWr4DgOEokEMTEx3b4Hhw4dwieffNLjexIbG4s333wTqampqKqqglarRVBQECIiImA0GlFZWQme5xEVFQV/f/8uv6+rq8OuXbsQExOD//u//0NSUpJbi1YQYa3T6TweDUwmVU8UinE3ZIHE8zxomvYKS6enn4++IiafdWckAFBSUoLW1lZf4ZJ+QF1dHf7617/i22+/FT5rbW2FRqNBTk5OF8GyaNEiLFq0CNOmTbPQEvvrQo0IuJaWFrzyyivYunUrDAYDamtrAXS8rBkZGUKJwNDQUDz11FPdRmcXFRVh8+bNgtbJcRwuX76M5uZmpKWlwc/PD0DHIuDZZ5/FypUr8dZbb6GwsBDTp0/HnXfeibq6Ovz73/9GQkIC7rzzTsTGxgr7VyqVuOmmm7B582bwPI/p06cjJiYGANyuBXSOnvUUJpNJEGK/B8g1NxgMkEqlorgH/RFzd4sYhTUAUAD4qKgofP7550hPT7f4kqRt+fAe9uzZg9zcXGi1Wrt/ExQUhKVLl0KhUEAqleKZZ55BVFSUC0fpOUwmEz777DPs3bsXX375pfD50KFDsWjRIvj7+2PBggUICQnp1f5ZlsXx48dRVVWFW2+9FUFBQQA6Fk1vvPEGNm3aBACIj49HamoqTCYT6urqcOuttyIzMxMNDQ24du2asD+O46BWqxEcHIzc3FzExcXBZDK5XWiRSmKensjIpCqWxYOrIefqTZYEsVS/cxSxWJA6YzKZ8J///AcnT57s0LBbWlrw8ssvIyQkBHfffTeysrKwefNmrFy5sluBTSaK/qqJeRssy6K0tBTr16932L/V1taG999/H0BHVoBKpcKrr76KsLAwVwzVo3z22Wd44YUXUFlZCaDjfOPj4/Hyyy8jIyOjz/mkDMNYLfMbHByMRx55BBMnTgTQ4YqIiYkBx3Foa2tDampqFz94S0sLysvLce+99+K5555DXFwcgN8mcXdiMplEM5H1xzSu7iBBZz3VkffRN8giWCzPeHdIgA7T2qFDhwAAcXFx8Pf3x48//oh58+YJmoa5YCbBLjRNd2sq9OE+eJ5HYWEhnn32WeTn5/dpdctxHE6cOOGQhi5mzCe41tZWHDhwAJWVlVAqlUhMTIS/vz8efPBBTJw40eHoW/N927NwjY6Oxpw5c+ze7xdffIFff/0Vc+fOxezZs4XvJRKJkOrjDsTmK+5PDSd6gpynQqEAy7KiDTYj4+Q4zivvjXkOuZjpok785z//wX/+8x8AwOrVq/GHP/wBc+fOxYABA4RtTCYTDAaDz1wuEsrKyvDEE08Iiy4fv1FSUoJDhw6B4zgUFBTg888/B9AR3b19+/ZeW4jkcjnUajW+++47xMfHY/z48U4bc1NTE/Ly8nDhwgX86U9/ErRygrtTZ8gkLJfLPZ5fS3yMvxdIqhTg/pgFeyGR7CzLeu29oWlaKPol5nOwaf/bs2cPioqKkJKSIgTPyOVy4YU1GAz9IvfO2+B5Hu3t7aiursann36KY8eO4ejRo07bv8lkQkNDg2CilUqlCA4OFmX+Z0/8+uuvePbZZ6FSqYQGGQEBAYJvuTvIc71lyxYAwIIFCyCXy4XmNnK5HAqFArGxsSgrK8OxY8dw9913IyIiAkCHOZvneQQFBdl8N2pra5Gfn48ZM2aAYRj8/PPPaGpqQmJiInJzczFkyBCrv3PX+2ZeXQvoeBbEquX1d8Q2x5oL6v5g9ZBIJKBpWnQC++TJkygvLwdgR1pXTk4OeJ5HVVUVwsLCLKJhic3fz8/PJ7TdzIcffohPPvkExcXFTjdfl5WV4b777hPcHaNHj8bq1asRGxtrNeVIzGRnZyMjIwN79+4F0OFjfvTRR5GTk9Ptb+RyOUJCQkDTtGCKHjhwIBiGEVKKSGWnO++8E9XV1bhx4wYSExMFq9PLL78Mg8GAF198sYtv2vxd2bt3L7Zv346jR49CoVDg9ttvx2233YaUlBSwLAutVgu1Wg2WZS2uPSkT7GrXhXljB1J+0kdXHHWPOLpvnueFCHGxCEYSSyGW8fQVUqhGbJSXl6OhoQFADwKbZVl88cUX2LFjB9LT0/G3v/0Nw4YNs9iGRKt2zu/14VoqKipw7tw5l+xbrVbj7Nmzwt9nz57Frl278Pjjj2PVqlVelf43YMAAZGZm4siRI1CpVEhMTMSECRO6PMcEuVyO8PBwQSiPHDmyx2PExMQIqVaE8PBwGI1GoQa/OUFBQcJiaNWqVXjooYcAdEwYwcHBUCgUwt8mkwkbNmxAUFAQli9fLuzDXRMLRVFQKBRCVTFPYl6OVEyYtzd1RZEpUtWN5J6LAXLOYhmPsyDPO1FMxfbM9ahhq1QqqFQq7N+/HxkZGcLEtGjRIiiVSigUCl/HHTdCAsyOHTvmtmMaDAbU1NTgrbfewm233eZUf607iI6OhlKpRHt7OxYtWoRx48ZZ3U6pVCI0NFQQ1n3hb3/7GwDr3bXMV/K2itZQFAW1Wo21a9fiqaee6vK9O0zTZJykqpinJ2hPH98aLMu6TGkx73PuyQpzJPDQ/PqLoeKdszEvBQv8dv3Fkvdvdw4Ly7LYunUrmpubMWzYMMyePRtKpdLXncuNcByHsrIyPPvsszh+/Ljbj++tua8HDx5EQ0MDJk+ejJycnC7VomiaRlhYGORyudM0JKIl9wXzdn8ajQYGg8FiAeDOCYSYwz2ZX0smUzEJCiLIiLbpzLnQvJCHJyENR8R03V2J+T0kzz3DMILP3pPXwSGH1OXLlwVbOkEMxRR+L6hUKvzlL3/Bnj17PD0Ur0ClUuHkyZNoampCTEwMnn/+eSQnJ3fZjqIo+Pn5ibJmvkwmQ1JSErZt24adO3d6LFLYmS01+xNEULuiixZZrHkaTwspT0MWihKJROiv4Sl6FUFSW1uLbdu2oaSkRFh1i8Fc0N9hWRY3btzw2MtjMBhw6NAhqNVqjxzfUQoKCjB16lTk5+dDKpUiKiqqiwZEer2L1UoUHR2NTZs2YdasWVi/fj2qq6s9Mg7f+20dmqYFt6AzA/KINicGi5ZYg7E8AWnC4imh7dATJpPJEBAQAIqicO3aNVy/fh08z3tFQXoffUen0+Hzzz9Ha2urp4fSIw0NDfjqq69gMBjg5+eH3NxcqxHuNE0Lz7QYoSgKqampeOaZZxAfH4+2tjY0NzejpaXFZZM50RjN/3kasZiHO0OEmTO7GpICKWLQrgEIBbL6WgWwP+Epge3QHZg2bRqysrIQHR2NIUOGQCKR4PLly4iIiMCgQYNEO+n5cA4BAQGiFm7mtLa2Ij8/H0BHxPatt95qtdCPv7+/qKv1sSyLw4cPY82aNTh9+jT+93//V6jx/+KLLwrlSp0F0ew6CwtPa3piLx3pbN+1mEzQFEUJOco+a+pvsSWewCGBffjwYVy6dAnr168Xgs0SExO9ZhL30XtomsbatWuxZMmSHouOiI1HHnkESUlJnh6GTerq6lBYWNhFIDU0NOCxxx5DU1MTAAhZGizLoqCgAGq1GkOHDnWKlYuYYMUYXCi29JrfE8RP3x/TuHoLKSbk7mfSpsAmkwAJNtHr9VCpVBY3TSKR+EwlvwN4nkd+fj54nsfSpUsRGBjo6SHZDclm6IxMJgPDMOA4zu0FQUh08a5du3DhwgWUlpZi9+7d4DjOIk2S4zhoNBoEBARg+vTpuO+++xAQEACtVos1a9ZAq9UiKyvL6vnFxcVh5syZYBgGcrkcFEXBaDRamJWJT460FBRrYBkxPfd3gSEWF4Q5Yq5h7knkcjkMBoNb3xmbknbChAnQ6XQoLCwUHiJn5Kj68D54nse2bdtQXFyMefPmeZXA7g65XN5j6VBXQLTYffv2YfXq1SgtLQXQsUAODg7GXXfdZVG7H+hYGI8aNUrooObn54fly5fj1KlT+Pjjj61Gj4eHhyMvLw+BgYFYtWoVwsPDsXPnTpw4cUJYoAQHB+Pee+9FeHi4i8+6b3hSu7N1XGebwsXWaEVsiwexQCLH5XK5W1ty2hTYxcXFyMnJwa233gqWZREcHIyYmBgEBAQI22i1WqE0qQ8fYuHatWs2K3MRv5w7aW5uRllZGerq6rBu3ToUFhZaRH3fddddmD9/PmJiYnr0q0skEqSnpyMtLQ3z5s2zOmGUlJTg888/h8lkwoMPPgigw7WxcuVKoUa5RCIR/eJLDFon0aTIPGdeotYZkHMUUz9mMeQdix0yj7jLAmFzxmpubsZ3330HmUwGnudx9913Y8KECcIqkKZplJaWgqIohIeH+zRvH6Lh1KlTaGtr6/Z7qVTqVkHV2tqKN954A++++y5YlkVbW5swMQcEBGDy5MkYP348EhIS7N4nz/NQKBQYMmSI1XcvISEBmZmZ0Gg02Lx5M1paWnDLLbdg6tSpXuHGIgFOYjDVm9fzdpVyYjQaRSOsCf2pVrgr4DjOre6aHt9anU4naCp6vV7wdQEdJryWlhYLoe3DdYghGMhbytAuXLgQGzZsQFNTkzARmk+05CVzx7moVCq89dZbWL9+PVpbWwW/MckBz83NxbJlyxwubUkKa3SXckMWJf7+/njqqaeEFEyxW8NIgJMYnncCiZJ2ZZMjMQpGUpLWh3Xc7d93eJltvtIlUaWtra1obm72CWwXs3HjRly+fNljx/fz88Pjjz8u+FHFjFwux4ABA1BcXIzt27djwoQJFtqrTqdDU1MTwsLCXC60KyoqsGnTJiF/PTw8HE888QSioqIglUqF9rUkncdeIUVW9ba2J9Gs3tZNTyxFQwDXu0+IxVKMglGMiwgx4e53qselNsMwGDJkCFJTU4Vev+YQv4vPz+F6ioqKPFq0ZMSIEZgyZYpT6mS7moiICNx5550AgCtXrqC9vd3i+/Pnz2PNmjUuf24rKyvx5z//GVevXhU+UygUGDduHLKysjBx4kQhLdJRzZdkcZj7eEmzAvI3qYPsTcKa47jf1XxCrAliw5dK1zMSicSlbpIux+tpA4VCgfvuuw+JiYk2A2Gam5tx9epVxMbGCuYjH/0HiqIwfPhw0QcoEerq6vDxxx8DgNXnMSwsDKNHj3bpc8qyLL755hscOHDAYuIjwUrmbRmJ5cqRCZJoZOS/pLAFafPYXzI6JBIJOI7rd8LD3D8vNk2WjE1s4xIT5N0lAYjuqPPf42xFGiMEBATYFNj19fU4f/48zp49i+vXrzt1kD48D8/z+P7771FVVeXpodgFx3FCzfN58+YhNjbW4vtBgwZh9uzZLi2re+nSJWzatKnLizx//nxERESAZVno9XrBDN4XgWQymSxyQsXQCrO3UBQFuVwu/JPJZF4TO+EoYu6CJUYTvZjgOA56vR4Gg8Ft99Cmhk3TNBYuXGh3+UOO41BTU2O1BKSPvtHY2Ijm5maPHZ+maTz//PMYOXKkx8bQW1JTUxEcHOzWY1ZUVODJJ5/EyZMnAXRo1fHx8ViwYAEWLVok1CK2JVTr6uos/N6Oxg7YI7CrqqqgUqkQEBCA2NhYUQhF4nPv/Fl/K5wi1g5oPlN4z3RONRRFHjYAtLW1Cc3ZyaB6iq4lJ+PMHEUSPv97NbXv378fhw4d8tjxKYpCXFwc/Pz8PDYGRzh79ixUKhUGDhwolPN0ByzL4ty5c/jll19w6dIl8DwPmUyGW2+9FQ888ACio6OFADMA3ZY35DgOW7duRV5eHgAgMzMTGRkZCA4OxpgxYyCVSoX6B8Q0Z455sFlBQQE0Gg3Gjh1r8R5XV1fjnXfegb+/P8aOHdvFCuHDNubznKNznRhyy7uDRD6LdXxiwFOtT20KbI7jcODAAUyfPh3JyckoKChAWVkZ5s2bJ5Q6tEZrayva2tqcptXU19fjnXfewZw5czBp0iThczFoA+5i2LBhSEpKwtmzZz09FK9gw4YNqKysxB133IGxY8e65Zg8z+Ps2bN49NFHcerUKeHzoKAgi2Il5r7LzsKaTJLnz5/HqVOnUFdXBwD4+uuv8fXXXyMtLQ2vv/46QkJCEBkZCZqmhXRLa3Ach6amJrS2toJhGMhkMmzduhUMwyAlJQXjx4/HwoULERgYaLPQjA9LeJ5Hc3Mzzp8/j6lTpzrsWrG2yBIL/dGa4Qo8cX0cylUoKCjAd999h8bGRixfvrxbbUutVkOj0TgssNvb28HzfJfApoaGBvz973/Hl19+iUGDBgHoqAr10EMPObR/b2bs2LEYNWqUT2CLEJ7nUVdXh6KiIjz33HMWwvrmm2/GH//4R0RHR1tsbzQarb7wKpUK69evx7lz51BZWSl8vnz5cuTm5iIgIADJyclCffTOtcE7Q9M05s2bZ/HZ2LFjQdM0UlNThcUMx3FQKpWC5kDGJoZJ29F0N3egUqmQl5eH9PT0XmnXYkpb6wxN05DL5b4a4iKkR4EdGRkppPGEh4dDLpejqKgItbW1gsbQmZCQEIeEdUlJCRoaGvDLL7/AaDQiOzvb4nuSEnP58mUhD3nixIl2799H3wgODu42rc+bqampQUlJiSCU4uPjhQUh0BF0c+nSJahUqi6/pSgKQ4YMwY0bN6DRaPDOO+/g8OHDgkYMdLTuTEtLQ1paGiiKEjQqW0LQaDSisLDQQlgHBwdj4sSJuOmmmyy2JUEvjjJq1KgunxHzOSmuQhYBJAqWoiiPTd5iLI/p7++P2bNnIygoyCE3nbeU+zR/Xn2Ihx67dc2cOVPwAWZlZeHYsWMoKirCwYMHodVqhajhhIQEJCYmgqZpNDY2orS0FAMGDEBERITVZt88z+PatWvYv38/Pv30UxQUFAgr+9dff91iW2sPTudm9tYCVXz0naCgIDz++ONYtWoVQkNDPT2cHmFZFkePHsWNGzcAwOYzcenSJaxbt05YBN522224+eabBc1Hp9Nhw4YNKC8v7xI/QdM0FixYgLy8PLS1tUGtVneZhJOTkzFv3jy7U3dMJhN+/fVXtLe3CyZWf39/rFq1CnPnzrXYlhTbcLYGTIQzeWfNg+PEUCJULDAMg5CQEId+Q+5Vd9YVseENY/y90aOGLZfLhcmDtCNkWRYnT57EyZMnLQT2qFGjsGzZMvj5+aG8vBw3btxAcnIyhg0b1mW/NTU1+Mtf/oIvv/yyy3cajabHgf/www+ora0V/l64cCEWLlzo0jQdT+KpyXLQoEF4+OGHLUy6YoXjOJw6dQoPPPAASkpKMGTIECxZsqTbKlUZGRn485//jCtXrgDoKL37xhtvoKioqMu206ZNw2233Sb8zbIsNm7ciJqaGgC/takEOgQvx3GorKzEsWPHBKHdE0ajEbt370ZQUBBeeOEFMAwDf39/zJkzx+IciInYlXmf1sy8RHhTFOXWlB+yGBeDCdnRAFjzvHiWZYVnwxtwV26xN0IWte62lDjkw6ZpGpGRkYiMjERNTY3Fg1dRUYHW1lYsXrxY8G0bjcZuU5FaW1tx7NixXg/8woULuHDhgvD34cOHwbIsFi1a5BWNDRxl165dQsSwO3nuuecQFRXl9uM6As/zuH79OoqKivDCCy+gpKQEUqkUI0eOREZGhs3fpqenIz09HUDH5JqVlWW1aciAAQO6+KEzMjKEXG8Cx3H47rvvsHnzZjQ0NODixYuYM2eO8L2tYB6appGSkoKnn34a06ZN6yIQiLAgOdfu1IBIeU6yYHd2UQ1rEdfmkdRiCTBVq9XYv38/hg0bhpSUlB6337ZtGw4cOIBXX30VCoXCa7RWsiDxBZ91jycUKIckm0KhwD333INr165h37590Ol0uHjxojBpGY1GlJaWIj09XdB0rb1oRqMRp0+ftkuTtpfy8nI899xzCAwMRHZ2tleUz7QXnudRX1+PpqYmtx6XoigkJCQ43JTCXfA8j5qaGhw/fhwbN27EqVOn0NDQAJqmMX36dDz22GMO7Y9hGLu7ZVEUhcTERKtjGj58ODiOw5YtW4Syk53TuKxNgjKZDA8++CDi4uIEHyLxKQMdE4Qn2y+aN0xxRe1rk8kkLAzIvEEagIhBaPA8j9raWiiVSruek/r6ehQUFKC0tNQrCtl0Hp9YrrtY8cQi0mENOyQkBCEhIUhLSwPLsvjiiy+wa9cuwXQSGBiIpKQkNDY2Qq/XIzIysst+tFot1q9fbxGg01d4nkdpaSkeffRRrFu3DosWLXLavj3N1atXsXv3brdrVDfddBPi4+PddkxHaW5uxj/+8Q+89957YFkWoaGh+OMf/4jAwEAsXLgQgwcPdvuYKIpCSEgIHnnkERw8eBA8zwslQ4EOoUu01O5+yzCMUD2J53mh/7xerxeFOZUIVVdo2cTEaO47F4vQ4HkegwYNQlJSkl3bX7x4EadOncL06dOtxvGIEbJoYhhG9IFxnoSYxN2tZfcosIkZjpjiSF1m4o8ZO3YsGhsbcc899yA2NhbZ2dmQy+VobW2FyWTqEqj0008/4bXXXkNJSYlLTujq1avYs2cPZs6cKUx03k5gYCDuv/9+zJgxA6+//jquXbvm8mMSgW0eNS0G9Ho96uvrwbIsXnvtNXzyySdgWRYDBw7E008/jdmzZ0Mul3s0ANFgMKCmpgZGoxEMw0AikVgIHoZhutVeSDMd8yJFBHPB72mI28mZudvmWnVvaqu7Ep7n0dTUBJZlER0dbXMRwbIsSktL8emnn8Lf3x85OTleJ7BpmoZUKoXBYBDui1juhRgwX1y6E5sCm+d5VFVVoaysTIgUJ2keZAKSy+WCNjB48GAUFhYKvx8xYoTwYuv1ely+fBmHDx/G7t27XXhKwLfffouRI0ciJycHycnJNmugewMRERGYN28eVq9ejfr6ercd1139ou2F4zjk5+fjn//8J1paWlBdXY2YmBjI5XLcd999mDt3rijM9xzHYePGjUJQJMuygv+XYO1lJ121Ok+MRHhJJBLRmFaJFuZMSJMPsUWjk4j83bt3Qy6X495777VYVHSmra0NH374ISoqKrB06VIkJyeL6j2yBpnPzeMkpFIpZDKZr+qZFUjWhLvpsdLZt99+i3PnzuH555+HTCbrYqKKjo7GfffdB4qisHLlSpw/fx40TSMpKQlPPvkk7rjjDvj7+6O2thb33HOPyzRrc0gE+tixY7F9+3a3lqZ0FVeuXMHx48eh1Wo9PRSPYTAY8OKLL6KgoAA8zyMsLAwPPvggZs2aBT8/P1FpMaTXNfBbVSvim+1OU1EqlV3Oged5p8Z6iBWyOCQCQkwCG+hobTtnzhyhupwtWJZFfX09Ro8ejdtuu81reiuYp5uR59Xnx+6KJ2ut92gSNxqN0Ol0NiNblUolWJbFtGnTMHLkSNA0jeTkZNy4cQNHjhyBv78/1Go1xo0bJ6TQuBqtVgu1Wt1vHrZDhw7hyJEjbjueTCbz+ETD8zxUKhVMJhOMRiM+++wzXLlyRbinTU1N2LNnD26//XZRCWsAWLx4Mfbt2weFQmExNhKsZe25FJtFwxaeqqXsCoh7j2Fz3DhsAAAgAElEQVSYbnuHy+Vy+Pv7O/ROMAwjuufSFiQugSycyHvn4zeIwuqpZ99p+U8Mw1itoGQeWJaVlYX29nZs3brVWYe1icFgwLVr16BUKr2i6Ict3N0POCMjo0uxDlfAsizq6uqg0+kQEhIi3CeVSoXq6mq8+uqrKC4uBsdxKCsr65JyJVa/Gk3TGD58OHJzcwUhQALQgI73haZpYULUarWgaRr+/v6eHLZDuOrau/OeksmXCG2FQiGkMxF0Oh0SExMtqjdKpdJutc+2tjavXMyQcyYLR7FZOcQAKdfqrmdUr9dbWNjcGpmjUCiQlJTktlaHZWVlWLJkCT766KN+o2m7i4KCAuzbt8/lx/n1119x77334uabb8ZLL72E/fv3o7q6Gm+//TZuvfVWbNmyBcePH8fJkyetprW1tLSgvLzcKWMhvjtnRSYHBAQgJibGYiKkaRoymaxL85wbN24IFde8DXP/p73/HNlnX8djazvgtwVC5zrq5LPy8nKUlpZa/LazNYTnebS1teHUqVP48MMP0dDQIFR+9AZMJpNgSRVj7XZPQ66Lu2vAX7582aI3gdsrjIwcORLLli3D5s2bXd7f2Wg04vr169i1axcWLlxodzqGj45GLN988w1yc3Ptzk3uDZ988olQEOadd97Bu+++i08++QRvvvmmXQF2BQUF+PTTT/HKK6/0eSxGoxEGgwEymcylgYqkZrd5Ba9Ro0Y5XOpSLBiNRuTn53ebvSCXyzFt2jQcOXIEGo0Gubm53Rbj+eabb3D9+nXwPA8/Pz/MmjUL4eHhDo3HYDAgLy8PtbW1GD9+vFAYxxqd3RMk3oAI2oaGBqjV6i79DTqj0Wjw0UcfYcuWLcjMzMSKFSuwcOFCh8btScwXN+625nkLJLjanej1eou4JY+UBBs7diz27NnjcoFN+OWXX3DmzBkMHjzYa0qXarVaNDc3o7m5GRs3bsTRo0fdaiXgeR6HDh3Cww8/jClTpuDRRx+1mlPfm/02NzcL6UCdK4UBHebGoKAg1NfXY/jw4XjqqaegUCjw1VdfoaCgQNiOZVk0NjbiyJEj+OmnnzBy5EiEhob2+R6bTCbQNN2lMIhUKrXqfya+SmJG3LdvH86fP4/s7Oxux2Ler5o08dBoNF5hEtdoNNi6dStOnz4tRFCfPXsW9fX1UCgU8PPzQ1tbG0wmE5RKJYKDg1FQUIATJ05Aq9XiypUrFn25zTl69KgwL4SHh+PKlSsWAiQuLg7333+/hXZLugMS5HI5QkNDceXKFWzevBnHjx/HsmXLLNI8yT3sfI/N/ZM839GF7eTJk5g0aVIX/zXx9ep0Onz22Wf44YcfkJ2djRUrVnhVoKuYW32KAXPt2tO4XWCTdJDY2Fio1WqLeuCuwmg0Yv369cjOzsaAAQNcfry+QibEt99+G3q9HqWlpR7pVczzPPbu3YsjR46Apmm8+OKLfd6nXq/Ha6+9Jpjbr1+/DqAj1zwxMREymQyjR4/G//zP/+DTTz/FX/7yF8ydOxcMw2D69OkWZvH6+nqsX78ehYWFeOmll5CUlIT7778fwcHBkMlkSEhIsKvinXmtAeC3LlidBXN3hULIi0y6XCUmJiIyMhLx8fE2Fw/mQufy5cugaRpZWVk9jtcTVFdXo6GhAQBw5MgRfPDBB2hsbISfnx9iYmIQFBSEoKAgpKenIysrCzt27EBVVRUmTJiArKws1NTUoLm5GWq1GklJSTh27JjVLmhhYWEICwsDAMyZMwcRERH48ssvLXzCNTU1aG1tFf7++eefhVgVAMjJycG4ceOQlJQkzC8k4tl8MdZdtK+5aTwqKgqJiYnYv38/ZsyYISyoSLR/aWkptFotjh07hsjISDzwwAOIjIz0muBBwLNRz2KHXBuxuAgoAD2qbQMHDsTLL7/s9BzXq1ev4r///a8wabuSuLg4HD16FAMHDnT5sfrKr7/+innz5rnluvQEKfU6f/58rFy5ss/70+v1WL9+PV599VVh0lUqlfjf//1frF69ulfFbvLz8/Huu+/i4MGDaGlpAdDRKnPDhg1ITk62+VuiIbp7QURW7ebVywIDA0WpYVdVVeHFF1/Ejz/+aPG5UqnE3XffjdzcXLflv/M8j8OHD+Pnn38WFk8KhQKLFy92WVU+juOwd+9eSKVSYTEBdCwc3nvvPcTHxyM2Nhbx8fFYtmyZ1/itCaTkrY+ueGJuMOf06dNYv379b7UYPDYSdAjRzMxM7Nixw6W+AZqmMW/ePGFVLOYXiuM4qNVqUazmACAxMRFr1651mh9bJpPhkUceQWxsLH744Qfs2bMHkZGRWLVqVa+F1YwZM5CRkYHdu3fjp59+wgcffACO46BSqaDRaKBUKrtoPMTE5Yqa2PZiHsBiNBqh0WiEKOXu6Ivm1ptGGo2NjXj11Vdx+PBhobb87NmzwTAM/Pz8kJ2d7fbUpSlTpmDixInC36RUqqugKAq33HILzpw508Ui+MADD2DUqFGIi4vrEl3uDYip9KvYIIt5MWHXU05MhDKZzKkPJE3TyMjIwLlz51BcXOy0/XaG+GNfeuklvP7666IN7iFNPl577TW3VjTrDqVSiWeeeQZxcXFOC8KiKAqBgYFYtmwZZsyYgUcffRRSqRShoaG9frYkEglCQ0OxbNkyBAYG4oMPPkB9fT1efPFFzJ49G4888kiXCZ3jOJv1BdwFSfcqLi6GTqfDjBkzur0OpL1t59/bA1mg8DwvXAtri5jOf9fW1uLnn3+GwWCAv78/HnzwQUyYMMFji14inN3ZkY/4qidPnuy2Y7oTX651V8hCxisFdl1dHbZt24Zly5Y51fTF8zwuXLiAiooKp+2zu+OUlpZiwoQJLj1OXzGZTPjHP/6B77//3uMvEU3TWLlyJRYvXuyyzmexsbGIjY112v7UarVQSU+v1+PixYsYMWJEt9YKTwpr83aVADB69OgefYmdTXOdU8OA33pHE+FM0o/Mze8ktYzkh3fOOWZZFjU1Nbh8+TI2btyI9vZ2oXqhN6Uq+bAPTy9axYoYe4HbJbBZlkVJSQmuXr2K4cOHO3UAGo3G5UUGaJrGH//4R7zyyitOzQFvb2/HV199hdraWvj5+SE3NxdxcXF9GmdWVhbUajV27twpVPnyxAuVmpqK+fPni6I2t73cuHED77//vvB3TEwMbr75ZquBXyT40ZORn+bCkvSQt0Xn58Cab400GzEPkulcEpVYFzpX9iILBpZlsXfvXrz//vtCFP+ECRPwwAMPOJxi5cOHNyJWV4HddqWamhpUVFQ4XWC7ioCAAEEzlEqlWLp0qVPSksxpb2/H+vXrUVBQgLi4OEyaNKlPApthGCxZsgQzZ87EnDlzoFarsWHDBly8eBFAR/Uvd6360tLSkJOT45ZjOYvOJQMHDRqEOXPmWN2WpmmhFGN/wlrjjO7Met012SgvL8f3338PtVoNiqKQlpaG+++/H0OGDHHJmB3BZDJBrVZDqVSKqqkPWQCKzYRqD6QMaX97F/qCs1vHOgu7BXZcXByGDh3q9AEEBgYiOjoadXV1TnvY5XI5Vq9eLUzWxJznbCQSCZKTk8GyLJYtW2a1NGtvCA0NRW5uLoCOABsSTf3Xv/4V33//vVOOYQuFQoHo6GiXH8eHOGlsbMSlS5cAdORCP/LIIx7pLU5ob29HQ0MDGIaBVqvFG2+8gQULFuDmm28WLEAsy6KqqqrLHBIaGoqQkBCrddqdpUVJpVLBpy7Wid4a5Py9MVjOlZjHe4gNuwX21atXUVRU5NRVNkVRmD59OsaOHYutW7fi8OHDTrlIJJp1/PjxThhl94SHh+OLL74Az/OCKdLZmKclmaeUuJKUlBQ8+eSTbjmWJyETlRhfTLEgk8kQFRXlMb81wzCorq7Gd999h8DAQEyfPh0sy2LDhg1obW0VFpYsy6KwsLCLe23q1KnIysqyGjBLMgR6q1mSojc0TYNhGKHdsLUcfrHia/BhCQk0E6ulxG4J44rkemJGCg0NxfTp03H06FGnXCiTyYTt27dj6tSpGDx4sMsmGxI96i7mzp2LAwcO4MaNGy47BsMwmD9/vmgj6W0RFhaGnJwcfPTRR3ZtzzCM102wrsJoNOLgwYO4dOkSqqurAXQ83/bEMBgMBhw8eBA3btzAyJEjMWnSpF6NgWjBCoVCqBpH0zRGjx6NESNGCIF6Tz/9NAoLCyGRSNDe3g6gQ8t96KGHusQCmEeUdxbY5LvuBBapqc3zPE6fPi3UrDcYDJBIJLj11lst2m2S+cybTONi6rHuacQaGW6OR/OwCc7OozSZTPj222/h7++Pf//734iKihKVv6u3zJw5E0OGDEFlZaXLXjCe51FRUeGVq269Xo/Kykq7tycTrE/LBs6fP481a9agpqZGEJoBAQG44447eswSOHToED744AO0tLTg9ttv75XAlslk8PPzA0VRQl63Xq8XhLb5/JCRkYGMjAyHj9EZIsC7mxtIAJ7BYMDAgQMRGhoKjuOwZ88e5OXloaKiAs8++6zXlDu2hnkP7N8zZHFmMplEUwPDGqIQ2K5i27ZtOHjwIBYtWoTc3FwEBQVhzJgxXiu8Q0JC8O677+Kpp57qUnXKmYj5gbWFWq0WfK/mkOAyaxPT9evXhV7H7qKzCVYMPsTGxkahKEhKSgpeeOEF0DSNoKAgm4vp1tZWnDt3Tqgw5yhSqRSBgYFCu1HgN7Okp4OgiIWhuLgYcrkcmZmZ4DhOML2XlZVZjJEEPYpZQ+uMT1h3QBr/iB2HBDapzOQKE3NoaCjS0tJw9uxZpz1ERqMR1dXV2LhxI7744gukp6fjq6++QkREhEXAhbdA0zRSUlKwcuVKlwlsEqDnbYsac/MlgQia7ibQoqIivPnmm4iIiMC4ceOQlZXVY6WxvoyPjMN8FU+sS9aqhblLiDc3N1s0l1EoFHbV3Od5HkVFRTh69CgAICIiAiNHjrT7uBKJBIGBgULaWed9exrSoGXMmDEWroG0tDSrlf9IzWlvQAzXV0x4y/VwaGY6f/684N9yNuHh4ZgyZYpLArd0Oh1aWlrQ2toqrIDb2tpQWlrabRN6scIwjKCRuALiTrDWmEHMtLe3Y8OGDUKnp7CwMCxYsMDmb/z9/cHzPLZt24bXX38da9asQWFhIfR6fZ+1pM49mQ0Gg/DP3IJBFhp6vd5im84WAVfmhTY0NAjNWEjteHtoaWnBN998I+Rqx8TEYNy4cXb9lghr0uWsM562OBCIiZ4sYGmaxuTJk12SMeMOSCySM/u+ezPedg0cko4VFRVoaWlxWQON0aNH4+abb8bFixeh0+mE7kC9RSKRQKlUCsKnrKwM//73vzF16lSh4L1er3daOpa7yMzMxJNPPondu3fj6tWroqzI4270ej0OHDggCI+AgIBu/ZzEZ52amor//ve/uHz5Mv7f//t/OHz4ME6cOIHAwEBMmjQJCxYsQGxsbJe2ivZAtC1zoW2LzuZflmUhlUqFhRnx5ZJoZPP9WUtZ6i1KpRKpqak9bkcipKurq8FxHCiKwoABA+xaSNI0LQhraxCrA03TvoBAF0Aiw32xGxAqAHra/WIvDquzZGXmihVwQEAAFi9ejIULF6KwsBDvvvtun/ypAwYMQHZ2NgoLCwF0aPExMTEWCwFr/ZjFTkhICF5++WUsX74c99xzj3B+PuxDJpOB4zgwDIOEhATExcUhLy8PO3fuxLfffouffvoJZWVlyM/Px7/+9S+kpaXZvW/SprOv7fg6F4EBIGijJDgG6BB+RPCZVy2zF51Oh/Pnz9ttyiWZEQqFAnK5HDfddBO2bdsGhmGwbNkyuxY35sF+trYhCxQx+YTJYslZvdc9AcMwXmO6dwfeFLPjkMDmeR4ajQZ6vb7HiYGskG1hXhKR/C2Xy8EwjFPqV9M0bZFmYi0avba2FhcvXkRiYqLVrk6OwHEctFqtcAypVAqapq2u4r744gs0NTWBoijcddddDrUGpCgKAQEBCA8Pd/qEIZFIMG/evF61ufQkSqUSCxcuRHl5uU1zPsmXl0gkQgoQwzCIiIjAihUr8Ic//AH/+Mc/BPP6N998g1OnTmHEiBFIT0+HXC63+lyTidxcmDobsggwf45IYx6gYyFizR9si9bWVmzevBlqtRoymQwTJ05EUFBQt9v7+fkJ0dz19fXYsWMHDAaD8Lk9/n9rNdCtQd5XMQlsoOOa33XXXdBqtYKWKhYTvj0Qi4hMJhNNn2dPQAIbvcnK4JDA1uv1yM/Px5AhQ3qsfUxMLtYgDwt5uUmzeLlcDoPBIDxEMpmsz71ISaOD7qiqqkJtbS3q6+sxadKkXgltrVaL1tZWNDc34/nnn8fUqVNhMplwyy23IDY2FjqdDm+//bZQYhQAjhw5YtFUQSqVws/Pr8da5yaTCU1NTWBZ1qnV4QgRERFYtmyZU2uuuwN/f38sX74cO3bssLjOgKU/lGij7e3tQgUsgkwmg0wmw/PPP4/Zs2fj448/xpYtW2A0GhEbG4uhQ4fimWeeQXx8vIVgMvdTu9q0Zmv/JpNJMJkTejKXk0UGANx222245557us3BJ+le5tHcvdHUXBXY52xsTeQURaGpqQkHDx7E4sWL3do9rC8YjUYYjUZBofKmhYYzEXuBlO5w6CnjOA6VlZV2TUo9rdo6p0MAsEjgT0hIwG233Yb8/HyhOIKrIM1NmpubMXXqVERGRqK5uRmXLl3C8OHDoVAoUFBQYPEbmqaRkJCAuro6oVGCVqtFbW0t8vLyAABr166FRCIBz/Noamqy6mvmOA4PP/ww5HI5Zs6ciTVr1lhE6F66dAnNzc2IjIwEz/O4ePEi/va3v6Gurg4sy6KxsdFp10GpVOKVV14RRc3o3jB48GCsXr0aK1asED6TSCSQyWRCNTqKotDc3Ixdu3bhqaeesrqfkJAQ3HLLLUhJSYFUKsXx48dRXFyMqqoqqFQqrFy5EkOHDhVq07tLWPcEaephDrEo2DM5x8XFiapgjhgCgohwM4eY6TUaDa5cuSLMdUQ5EGtuM3HXAL8Fn4lxnK7G1ZYwV+KxZaG1B8X8M6lUiptuugkURWHfvn1oa2uza7/mvrHhw4fblZ6kVqtRWFiI8vJy5OXlYfr06WAYBk888QTuuusuhIWF4d133+1ynFmzZuHMmTO4evWqhRmW+MXt9Y8Tobt161YolUqMHTtW+O6zzz5DcXExxo0bB5ZlcebMGbS0tLjEjMWyLM6ePYvc3FyEhoY6ff+uRiqVCgKnc+ASx3FQKBSCALentnx0dDTWrl2L4uJifPrpp8jPz8evv/6K5557DlOmTEF2djaysrIglUo9LqwJnd8rYvbrzlReUFCAtrY2wWdsC4PBgLNnz2LcuHEwmUw4fvy4059Dc/cY4PlezaTimvnfBD8/P6Snp1tUOiPPglieB3PMc9vFOkZ3wHGcV+RcW0PUdhwS1CKVSrFly5Yet1cqlZg7d64gpNPT0+1qW3jw4EHs378fOp0OBw8exJdffolRo0ahvr4eb7/9dre/27Rpk/0nYwcajcaiPaQ5e/fudeqxrGEwGLBhwwY89thjXimwO0MmWzIx6XQ6SCQSwdJhMBis1pgm0DSN0NBQTJ48GePHj0deXh5WrFiBxsZG7N69G4WFhUhJSUFERITbzqk32DJd5+XloaGhAcnJyRg9erTN/XAcB7VaLcSyfP311w5raAqFwmbcBdH8xGBiJpYTa8+HRqPB6dOnkZOTYzFWZ0bs+/DRGdE7kqRSKaZMmYJ58+bZfNFlMhkWLFiA6dOnIysrC1lZWXYJa6Aj3cvclNja2opffvmlz2P3RnieR1VVlcc1m75SXV2N1157DVVVVYJQIYVyQkJCkJmZ6ZBJTCKRYPbs2Vi3bl2/WMx0Jjo6usfAR5lMhtGjR3d5D+VyOVasWGFX3IO1BRJZUGi1Wuh0OhgMBmi1Wmi1Wo8HRHVndaiursahQ4dQU1PzuzQreyverF0DvRDYJpMJV65ccZv9nwSoDR8+3Gb1JZ7nhdU/WeX2tNLleR41NTVeVyTElRgMBrz++utO9Y27k5iYGCQlJcFgMGDfvn348MMPYTKZBFO4TCbrVfoTSUUaOnRot/nD3k5P18RoNKK4uFjQOlNTUwVT+sCBA+2+LsTqYd5sgQSaks/E4F81r2veme3bt+PUqVP48ssvhbmQnIunFxn9BVcEJpr78b0Rh6+IXq/Hjz/+6PZiHUlJSRgxYkS333Mch8bGRoduBs/zKCgoQFVVlTOG2C/geR719fVe698aN24cZs6cCaBj8dHc3AyJRAKFQiF0geoLsbGxyMrKAgC0tbXh+PHjog0ycjYsy6K2thY6nQ5SqRR33HGHQ5OqeXcsYsGxVlJWLOh0Ovzwww84efJkl+/a2tqg1WrR1tYmjJ0E/XmzQBAT5n3GHcFWsSKxPmv2InqTuDkTJ05EcnKyxaRLGhSEh4dj0qRJDtXALi8vx7Fjx7z6BvqwDRHWnQWLwWCwmGztJSEhAevWrcP9998PiUSC9957D88++yyOHDnilVGnjqBUKrv4bMnn9rx3DMMI/QiINkpSOsWIRCJBYmIiBg0aZPX76OhoLFmyRBT+dnswb7AidiQSiZDh4ChVVVXYsmULmpqaXDAyz9Kru6fX6z1iRo6Pj8ddd91lUdQjMjISq1atwqpVqzB48GCH9qdSqYQORT76D7GxscIz0p1r5Nq1a/j22297ZUlISEjAmjVr8NVXXyEuLg5Hjx7FG2+84XWWmtbWVqekTGZnZyMlJcXmNqRqGbnexJcoZkuOTCZDRkZGt5Y9Pz8/JCcne40Q9CZzcOc0xO5qzpvD8zxaWlrw0UcfYefOndi9e7fFd2Jws/SVXj1plZWVOH78uLPH0iMkajc5OVkIfJFKpQgPD0d4eLjXdZjy4XwoikJWVla3WhEhKSkJd999d69W8BRFISwsDFlZWVi9ejWUSiUaGhpw5swZaDSa3g7d7fzyyy8oLCzExIkTe4wQN5lMKCoqsnp+/v7+TqlM6E3QNI329nZcvHhREARiXnwA3hPBTtO0UCGSXFN7BC3Hcfjxxx9x7tw56PX6Lmm1/SG+oFcCmzR19wRKpRKLFy/G2LFjIZVKMWnSJK8xSflwPTzPY+vWrSgqKrK5HenD3JcJTCKRIDMzEwsWLIBer8d7771nsaoXO3q9HgqFAg899BByc3N7vBb93eTvCLfccgsoisLXX38tFHwSe2YFMTOLHXNLALmm5kW1uqO0tBS//PILTCYTIiMjMXHiRIt99ofn1yslXUhICAYNGoTCwkIMGzbMYYHN8zzKysqwf/9+F43Qu9HpdCgtLYVMJkNERIRXrMqtkZiYiKVLl7p0kkpISMA///lPcByHnTt3YuPGjdi3bx/uvvtuJCQkIDAwEGFhYaK8hpmZmaioqLArulsikSAjI0N411QqFT766CPRa5V9QaVS4fvvv8fcuXO7pIiOGTPGIo2NZLOIoXOeyWRCfX29xQLC3h7nnoZUi3O0kxjJYCgrKwPDMEhMTMSwYcME4d+5ra234pUCG+joxDVixAiHTXEcx+H69evYuXMnKioqXDQ676a0tBT33XcfnnrqKTz55JOeHk6vqaqqQn5+PiZOnGghtJ1d8jI+Ph4vv/wyzpw5g8uXL6O5uRmhoaGQy+WQy+V46KGHEB4e7rTjdabzuRB/HdDVF0gmQp7nERISgiVLltjdPtT8uhmNRlRUVCA4OBjR0dFOOhNxoVQqkZaWhqqqKiQnJ1t81/mak/S23rSs5HkedXV1uHbtmrAvR0hISEB4eDhUKhVKSkqEhYbRaERcXBwoikJoaChmzZqFyMhIi+ptLMvi0qVL4DgOcXFxNmsMuNKkTtJxScMkAHYtfsi1PnHiBPLy8hATE4OhQ4di0aJFkEgk0Gq1Ftt5O14rsMeNG4dx48Y5/DuWZbFv3z6Ul5e7YFT9A4PBgIqKCq+PsgwNDcXo0aO7TDJqtRpnzpzBwoULnXIclmVx7tw5i0DMe+65B1FRUdi+fTtUKpVLBXbnDl7mvjqGYYTFCk3TQvcrlmVhMplsduYyx2g04uzZsxgzZgyqq6tx9OhRNDY2Yvjw4Zg6darzT0oEMAwDqVSK0tLSLgL7zJkzaG5uRmxsbJftHXUXNjY24qOPPsL+/fuRlZWFwMBAh34fEREBf39/VFZWYteuXUhPT0dsbCwSEhKQmZkJhmFQXV2NyspKRERE4OjRo0KwrcFgwM6dOxETE4OJEyfaVIBmzJhh9/PiKCUlJfD39xeygOxdVHMch7Nnz2Ljxo3w8/PDQw89hLFjxwqdE/sbvRbYBoMBer0ecrncmeNxKSaTCSqVSvS+Jh99Izg4GHK5HPHx8bj99tu7dNbSarVONQ+yLItt27ahpqYGNE1jxowZiIuLQ3R0NJ588knQNA2WZVFUVIRdu3YBAObPn+9wkxWiOZNe3ubFRroz95mXZiW9tHsTLUsm0ffffx+1tbWorKzEggULMGLECLuCPUmzDG9r2xoZGYmYmBjhb51OJzT7oWla0OQcwWQyCTn8p0+fhkajwY0bNzB37lzMmzfP7gqNhKtXr6KxsRFDhgzB448/jqFDhyI0NNRCI46OjsbFixfx/vvv4+LFi4iIiMCkSZMQGBiI+++/H1FRUUItC3PMux26MlaooKAAoaGhSExMFBaY9hTyOXbsGD799FMEBgZi+fLlGDNmjFfEE/SWXt+BCxcuICUlpVdarqeor6/H5s2bUVlZ6emhiBaKojB48GAoFArR18i2Bk3TeOKJJ3DlyhWhQ5c5LMvixx9/xPz5851q3jNPV/r111/R0NCAmJgYYZKjKAoJCQm444478MEHH2Djxo3405/+ZJd/27wQhF6vF8yHjvrk+hLJLJFIkJycjKNHj2Lp0qWQy+WIjo622yV17do1lJSUIDc3t1fH9wdR8JgAACAASURBVBQURUGj0aC2thZRUVEoLCzEm2++CZqmMXz4cIwaNcpiQWjrXra1taGlpQWNjY3YuHEjVCoV6uvrERMTgwceeABxcXHw9/d3eIxJSUk9NrOhKApxcXEICgoSyjaHhYV1SUnrvB+JRGJ3//K+4Ofnh3PnzmHSpEnCAslWUx2TyYSzZ88KleZWrFiB0aNHg6Zp6HS6fhFgZo1eC2y1Wm13NyqxYDAYUFNT0y9NJc6AYRjcdNNNeOuttxAVFdWrycPTUBSFQYMG4Y033rBqmmQYBvPnzxdaY7ri+AMGDOjiF6YoCkFBQQgKCsKqVavw3//+F2vWrMHjjz+OuLg4q/simjPp22uuFXvCJxcQEID77ruvVz3jZTIZAgMDwXGc1+QtE8rLy7F3714MHToUN27cQGNjI5599llkZ2dbLFjIPaFpustiqqmpCZ988gkOHz4MjuOgUqkwe/ZsQZtOSEiwO5agtwQHBzvU554E0rmDnJwcZGZmor6+HlFRUUJqlzVYlsXJkyfxwQcfICAgAKtWrUJaWpqwOO8v/mpr9Fpgm9fN9cQLSLQFWzfWfFuj0SjqqkqehLSiJBrpd999h8cee8wrBTYhKCjIqlmMoij4+/sLeZ7O0hzkcjlomoZUKkVubi4SExO73TYuLg6rVq3Cm2++iXPnzmHgwIHdPsOkNagYoGnaYXMtISYmBjExMWBZ1mvygQkjRoxAcnIyTpw4AZPJhNWrV2PcuHGCP5fML921rOR5HpcvX8aBAwdgNBoxa9YsDBgwAImJiUhISADgeKCZO3HH2BQKBQwGA7Zs2YKKigrcfPPNQilh8zmbtHXdtGmTsIAcO3asqK+fM2EA/F9vfsjzPJqbmzFq1Khev8R9ged5nDlzBv7+/j2uTDmOw65du3D48GE0NTX5hHYn4uPjsXjxYsE32draiuzsbK9IA7GFLbMYz/M2W2s6AkVRUCqVOHjwIFJTU7FixQoEBAR0u2+yaNDpdNi3bx9GjBgh9PG2dg794XklQpoEwXnTBEvGHR8fjxEjRiAlJcUi+Mq8eUlnVCoV6urqsHHjRlRVVUEmk2HJkiXIyMiw8DOL9XqQDneA6wU3wzCQy+XYsWMHzp07h+DgYIuiPCaTCceOHcMXX3wBiUSCRx55BKmpqV3cXv3lnQE6usIdP35cOJ8+RRHU1dV5LO+Qoii707p4nsf169d/t2lcDMMgLi5OuA7mE8ugQYPw8MMPY/To0cjMzBTK+/30009CSUaxTia26KnIvzO1VpZl8cMPP6ChoQEZGRl2pzlNnz4dp0+fRlFREQYNGtQlBas/YjQau9S09sZzthXoZ84PP/yA77//HjU1NaKxlDgCySiQSqXCQsvW/ep8jt1tb+0ziUSC8ePHQ6PRIC8vD++99x4GDhyIBQsWQC6Xo7a2Fp9//jl4nse9996LlJSULgGl/R2vTeuiKMrh9IffCykpKRb1jxUKBWbNmgWWZZGfn2+xyJo8ebIQODhw4EAAHUI8MDAQ169fR1RUlFdlAhDc+fKSNq2OpPMQn3ZaWho+//xzSCQSZGdne0Ulqr5AXGlkovU2bZtAAgB7EsKtra1CjfkhQ4Zg1KhR3VpTxArP88KzTdw+5Dk1dwGQVEFzSHU1Irg5jrMZbS6VSjFt2jSMGTMGhw4dQmFhIT7++GMMGzYMAJCRkYH09HSrwc7ETdqfBXefBDbP89BoNB7xY3Mch8LCQsTHx/eYG1hYWIiamho3jcy9MAwDpVJp0cRh/PjxWLZsmcV25P6sWLHC6uedUalUaG9vh8FgQEhIiNWI0p4gkc1iNvk5g4MHD+LMmTOQSCQO+/2nTp2KrVu34r333sOpU6eQk5ODxMREr5vUHcE8toCYQQFYxKQQ3yXZViKROOU5IpN5b55L89xgW3WpOY7DtWvXsGPHDhQXFyMgIACxsbFYvHgxhg4d6tWLMo7joNfrrQpsa5CASXOBzXGcEMzWnfatUChwyy23YNy4cdBqtRZ58Lbmof5QL9wWfRLYpNh6bGys2wOUKIpCbGxsjyZxjUaDoqIitLS0uGlkvYdcQ0ei72NjYzFz5kx8/vnnCAkJgVwuR2hoaLerWEeELs/zWLduHcLCwrBy5UqEhITYHWXK8zza29tRVFQEmUwmlL8k982RaFVHsNUL19p2ZEx9obCwEFevXkV0dDTS0tLQ2tqKoKAgu/Yrk8kwZMgQnDt3Dt9++y1OnjyJtLQ0PPfcc4LpuD9PQCzLQqfTAeiYT4i/WC6XWwS2mkwmyGQyC3+qo/eN3HNSppL05zbH2n7NnykSuNrdPaEoCiqVCps2bcLhw4ehUChw9913Y+TIkYiMjPS6CPnucDQ9sPNihxTxsQbDMMK8Tu6RPTng5Nnpz+Vy+2wSb2pq8siEQjom2UKr1SIvLw+HDh1y06h6h1wuR1paGjIyMsDzPM6fPy98V1hYiObmZovtw8LChHaGsbGxiI6ORlBQEFavXo3hw4c7dQU/f/58AMCOHTswZMgQZGZmQi6X2xS4HMfh6NGjOHjwIF555RWL72QyGVatWoU///nPLhHaPM9DrVb3mIfJsizUajX8/Pycdr1qa2vx97//HU8//TQWL15s12/Cw8PxySefYO/evbj33ntRWVkJiqJw5coVDB06FDKZrN/mlBLM5w8ipHmeFzIXyDZEsAOwMMua013WCBG25tq9wWDo4sYwXxQQWJbtsRCHXq/HxYsXYTAY0NzcjNLSUmE80dHR/bZ8a2+xtXAhgpfneYdS3Uhp0+6i9fsDXuvD5jhOCNaxZhLneR75+flC3qNYkclkWLRoEXJzc4UqUHPnzhW+f/nll3Hy5Enhb7lcjpEjR2L16tUAOh78mpoaLF26FAMHDnS6v5loxqmpqaBpGhcuXICfnx8GDx6MgIAAKJVKCy0JAPLz8/HSSy+hrKysS1CiTqfDhx9+iDvvvLPHlo720jntw94qR0ajUQiC6m5/9mhxU6ZMwahRo3DhwgW7ezwTwUTMf+PGjcOMGTPw888/o7q6GmvXrkVGRgZycnIQHBwsTEa/F3qadMm96wzpu90Zcr17orddCFmWxdmzZ/H111+D4zgLU35vtGrz55hhmH7VOpi4Onqaq3pjQWFZVtTzfV/xWoFNCtrbmsTOnz8v6v7EFEUhOzsbixcvtlh0mJ9TQECAEFynUCiwZMkSpKamWrgC4uPjER8f79KxkknQaDSiqqoKO3fuRG1tLZ555hmUlJRYdG4qLi62Watdr9ejvb1diIHQ6/WQSCQICAjotZ9cr9f32n/V2TxO6hDL5XK7hGR6ejqGDRuGCxcuOHTcM2fOYNCgQUhJScHQoUPx+uuv48SJE1izZg2uXbuGsrIyHD9+HAEBAbjpppswZcoUIYfch3XMWzO6E6PRiGvXrlksXBmGweTJk3vszd4Zkr505MgRAB2L5VmzZvWLBRspxuKqZ9gXdOYEzOsfOyv4iKIoixq/nY/X0NDg1p7dDMMgOjoa1dXVNicMiqIwcOBABAYGgqZpjBkzxmbQ3MqVK7F8+XIAHdpDRESEy6K2m5qaUFtbi8TExG6PUVVVhXXr1uHq1avQ6/X46aefoNVqhWYC9tDW1oYXX3wRL7zwAnbs2IG8vDxMnjwZb731loWZ3Hy1TLohdX7RSY3q3prAiDZEqt+R8+4cnET8lqTgCsuyFoFQSUlJUCqVdmv3FEVhypQpCA8PFxYcgwYNQmRkJMaOHQuDwYB//etf+PrrrwEARUVF2L59O/7+97+7rEqbj95jMBgsFqkymQzTp0/HggULHMpm0ev1OHz4MHbs2IHW1lYAHZXWoqOjkZGR4fRxuxOpVAqpVNrvg1BdiVMFtnn4vzkkl08ul0Mmk9ldoay3sCyLvLw8NDQ0uGT/1vD398cDDzyAkpISnD9/HhcvXuyyTUREBKZOnYpbbrlFqHDUUzCFO4uXHDlyBB9++CEWLFjQrX+5qakJV65cESwXV69edfg4HMfhwIEDOHbsmOBXHDhwYJeFjl6vFzQWUmzEWrBYX/xV5hoRAAuLDAl0Iv40o9Eo+MgMBgOUSiUUCgWkUimeeeYZ7Nq1C8XFxTh58iRmzJjRo98yJCQEgYGBYFkWWq1WqDRHno2cnByhs1Jrayva29tx7NgxzJ49u1+ZSPsbcrkc2dnZuPPOOx3Sinmex759+7Br1y6Lzm8ajUbUlsKe0Gg0OHHiBBITE5GSkuIT1n2gzwKbBIOQABFbGoZerxd8UyRK0HziMTdlEM2nc49U822J+bKiogJ6vR5Dhw4FRVEoLCxEaWmp000jxEQaExOD4OBgFBcXC99lZmYiNTUV06ZNw+XLl1FUVNTl9+Hh4ZgwYYJDL7FGoxF8bxRF9SlIinQr+/nnn1FeXo6UlBRMnjwZQEfA1M8//4z/z955B7dxnvn/u4teSBAAe+9NIilKoiQW9WZZimVJlntcxpOb5BL7cnFymctNLrnJTYpvJr54Lne2Y8c97rEtW10usrpEibLEIlEUu8QqVoDou78/+HvXCxAgARBd+MxwbJGL3ReLxfu871O+j16vx9tvv+3V+T2BYRi7bPirV6/i6aefhkQigUAgQHV1NbZs2YKxsTH09/cjPz8fRqORi5fr9XoIhUK/lj+RnS8ffhyUGHuJRMIlSjEMg+PHj+Phhx92K9GITF7OntW7774bDMPg3//93zE2NgabzYY333wTAoEAGzZsCMv6+EjEZDLh4MGD3I5YJpOhrq7O40UVy7I4fvw4Z6yJN2716tUz2nv6GxJikslks2p6T01N4fLly1ytuTMMBgP6+vrstCEcIZs9k8mETz75BLm5uRgcHIRQKMSmTZvcetYd28xGIvM22ORGu+N+5ht0cnNJNigpteAfS/5tsVjsjLvRaATLshCJRLBarZBKpejo6ODO+cknn2BwcHC+b80OmUyGXbt2oaysDHK5HBKJBDqdjjOeSUlJXM/jgoICFBQUzOt6LMticnISr776KpdxSkpEysrKvGp119vbiz179qC+vh59fX04ceIE1+5xamoKPT098xrzfLhx4wZeeeUVAEBubi6USiWXWCSTyZCTk4ObN29Cr9fj9OnTePXVV5GQkICnnnoKubm5QeksxrIsjEYjLBYL/vSnP6GrqwsCgQD33nuv25+/SCRyubCUyWS45557YLVa8cILL6Crqwujo6N47bXXYDKZUFdXh/j4+GhMO8hYLBZcuHCB2wXHxMT4JN6clpaGxx57zKvabYvFgtHRUe7ZEovFiIuL41qsztXr/syZM7hy5Qp2797tUnp6eHgYZ8+eRWlpKaqrq2c9n1wud9nkBpi2B2fPnkVJSQkUCgVee+01TE5OIj8/H2vXrnXbYEdywhkQ5KQzsoOZS96UYRiniwKymlIoFCgrK8MXX3yBU6dO+aUXanV1NXbt2mXXq9VVaYkvYBgGn3zyCfbt22e3ahwcHMQf/vAHJCUleXzOhQsXYt26dXjppZdw5MgRXLx4ES0tLb4c9rwgNdr33HMPVCoVpx4mlUpx/fp1/OIXv8CZM2fsMoiPHDmCxx57DL///e+DMmayYG1ra4PBYIBQKERaWtqcfZ9J6YrBYJg1e1kikeC73/0utm/fjmeffRYvvfQSRkdH8cILL+Djjz/Gz372M6d6ylGCx5133smpBnqDSqVCdnY27rrrLhQWFnrsQr558yYoisInn3yC9vZ2DA4Ocr3hBQIB9Ho96uvr55TuFQgE2LNnj8tj0tPT8fjjj0Mul8970SgQCLB27VqIxWKkpKRgdHTU43mcxMajSWezQEQNfNn5yBvEYjGWLVuGs2fP+sRgp6SkID4+Hm1tbVCpVKirq5vhHiIuHKFQyCVT+BJnJQqeZEEyDIPr169DLBajsrISMTExiImJwQ9/+EPs2LEDv/3tb7F3796QafYuEomwatUqrozJZrPh7Nmz6OjowKFDh3Dq1KkZxs1isaC+vh5//vOfsXv3bsTHx3Mx5qGhIaSlpc3QrvY19fX1aG5uBgDk5+djwYIFc76GJOC4U2pE0zRUKhWefvppJCYm4sSJE5zr9NVXX0V1dbVLjwvpUqdSqVBTUwOpVMqFHaL4B2814SmKwrp16yCTyVBZWcl1q3KXkZERzp2el5eHn/3sZ2hoaMC1a9dA0zQmJiYATFee/NM//dO85yuapn3WK9tqtXJJnMD0fF5bW4uFCxe67a0QCAQQCoUhM5/5g3kb7NHRUTQ0NGD16tVBNdhkx+urMaSmpuLxxx/HzZs3IZfLUVlZaTfpW61WfPTRR2hsbERFRQW2b9/u80QgkhnNMIxXq8a+vj588803eOihh5Cens5N6jKZDHl5efjVr34FhmFmXUUHEseSD4Zh0NjYiK6uLs4gOqOhoQFdXV1YuXIlWJZFQ0MDrFYrJiYmoNFoUF5ejtTUVL+N+/z581w+Q2FhIcrLy2c9nqbpWbt5OYNoj//whz/Etm3b3PaM7N+/H2+99RZkMhmOHTsGkUiEJ554Ajk5OW5fO0pgoCgKGzdu9Oq1NE1Dq9VCqVQiPT2de7Zqa2tRW1trdywpWwwlTp8+jaSkJCxatAjAtMFev369z7QaIoV5G2yTyYT29nZkZWUhOTk5KK02CUqlEjt27MDf//73Gdm/nqLT6TAxMYEvv/wSY2Nj0Gg0nBRqc3MznnnmGYyOjsJkMuHixYuQSqWcKth8kclkkMlk+OlPf4p//Md/RFtbG55//nmYTCYMDQ2htbUVQ0NDyMzM5LK5BQIBsrOz7ZSBiouLsXLlSm7HSiD5AampqVxGcihQVVWFvLw87t/80j2WZTE8PGyXLZuUlASWZTE4OIjR0VH84Ac/wAMPPGC3cNLpdEhMTERCQoLf6liTkpKg0WhgMBhclhryIf3HvSUrK8vtz62urg7f+9738Oijj+LChQsAgHvvvdfra0eZSX9/v0dywv4gJibGZ7vdYLB8+XK3Oi/OBlnwR7J4ik9i2B0dHRgYGODE7YMFTdOQy+XzemiFQiE2b94Mi8WC3/3udzAYDKAoCnv37sWyZcug1+uxcOFCbNmyBTabDaOjo/jss89QX18PkUiEdevWudxpO2oQO7rOSBZ4SkoKJBIJF26Ij49HZWUlWJbFhx9+iPHxcej1euTl5XFlXzRNQyqV2l1bLBZDLpfPaKIATCfuMQyD0tJSJCUleVRH7S9ITgBfU5p0GbPZbNizZ49dudzGjRths9nw/vvvw2azYWRkBFNTUzPuf2trK7KysqDRaPwyoW3YsAFVVVW4fv26nUpdKKBUKpGcnGy3QLh48SLy8vICrv8fibAsi0OHDnGte7OzswMqQ0pCkeHemlUul/vEQxnpNd4+MdikjjQUUurJw+vN60QiERQKBb7//e9jYGAAhw4dQmxsrJ2MplAoRGVlJVauXAlguhzp4MGDOHnyJFpaWrB8+XLONR8XF2cXK+zp6cFHH30Ek8kErVaLjRs3QqFQQCAQcIaXvJYYLfI7uVwOqVSKp556yuP3xm94IJVKuRI8lmVRW1uLrKyskDDYbW1tXHewqqoqSCQSbtXNMAwWL16M3t5ebjcjlUqhVqtxxx13cLrDzrSHp6amcPXqVSxevJiTivRlTJuU+/GbFoQafO/CV199hQ0bNkQNtg9ob2/H5cuXYbPZQFEUFi1ahOzs7IBdv7u7GxKJJChVEr7idijH8hVhK03qipSUFKxYsQLHjx+fM/uckJSUhJKSEjzxxBOQy+XIycnB5OQksrOzkZiYiHvvvZf7Ejq6MjMyMvD9738fzz//PCYnJ/HWW2/hiSeeQExMDFQqld1EKRAIcNddd3H1jZmZmdxEr1aruRpjZ/Xss3Whmsv4WCwW7gthNBrtOkB9/PHHIZMp3tPTg56eHqSnp2PRokV2pRw0TaO4uBgqlYq7N0lJSZDJZDNidI5YrVa0tLRgYGAAQqEQpaWlyM7O9nnildlsxtjYWMg1eiAJa//yL/8yZzlPFPexWCxoamrixIMyMzOxatWqgJXZCQQC5OTkcD2nw5Wenh5MTk5i+fLlM8rRvEEkEnmd9xPqRJzBlslkqKmpwcDAgNvazr/85S9RV1dn1xJxyZIleP/99yEQCBATE+My5iiXy7Fs2TJcvnwZZrMZGo0GCoUC8fHxM14TGxuLysrKGefg94l1hdVqdRonI80jCI7yr46rVyKrSejr67NTVQplaJr2ulzGZrNhaGgIKpUKN27cQHJyss93mN3d3fjwww/xb//2bz4973wRiUQoKCgIuhY1X6IY+LYsM1xdun19fXj77be5DOf8/HzEx8cH7H2QjoWeLBBCMb6bkZHBPZt9fX145513kJCQMGdppCsiWZcg4gw28G3JjDtUVlaitLR0hhSnWCx22820bNkyLjOY9PL1ZAJiWdatrE1nK0bSQANwnilP4uDOIM3lbweIy7yyshJJSUmcJrivJlexWIx77rmHU46LMg1fk91isXDGDYCdgh/ZJZLPxdlzSfIaZvvMAmUsp6amcPz4cU7dLC4uDhs3bgyosfYmySwUv/MikYjzppHwanV1td8bGoUjEWmw3YUI9M83U9qTBYI/caXl7gybzYYjR47g8OHDfh5VaDA5OYnPPvsMBw4cAEVRyMnJwS9+8QvIZLJ5T7JWqxUikQiPP/44cnJy3A7FBJJguAfJNUlIhuzsHA0GMeYkDuyYnMlntoUwSVoKhNHU6/U4evQo1ybyjjvuQEJCQsAMNkkyDTevxGwQIS2iYumtm59sXALZ/ClQ3HYGW6vVcjW5FRUVeOSRRyLqoXeX69ev45lnnvGqeUc4Yjab8c0333BhBYlEArPZjJ/85CfzijkT45KWlgapVMoZlFCJnxE3NCmRC2RyIcMw3ATs7vHzOcZsNnMepkC6RUlJZSC03fV6PSwWC7KyssI6bk3gZ3XrdDq8/vrrkMlkLpsPuXvOSLg3zvCZwSaqWqTV4HzqTH0BX3SEz5o1a/DP//zPXAmVP5tHhDImkwljY2PBHoZL+LF3f8Q3TSYT/va3v6GyshL3338/AODWrVsYGRmBRCJBWlrarM8wyQUgKn+PPvoo15hlLrUlvV6Prq4uLF++3Ol5HfHkvZNxkXtmtVphMpmQkpKCXbt24eLFi9Dr9WhpafFITMaTFrnkPQS6NzEp/5tNeTDcF+cTExN2jY7cJVQWkI4IBALOO0nKZBcuXIglS5YEeWShiU8N9vHjx9Hd3Y2MjIygGmyaplFWVgaZTIb6+no7F+WVK1fw+uuvIyEhAbt37w7aGKO4ZmxsDF9++SVXZrdixQq/7F4MBgM3AQLT9dqNjY2Qy+Worq62E3FxBuk+B4Drae7OxGg2m9Hf3z/r30l83VP1PlJpIBQKIZFIuMqCkZER1NfXA5iWsDx8+DDWr1/v9nlPnz6NtrY2bN++3a3dD2ncEgzIIorfrxwA1740XKFpGkVFRU5LF+eC5AWEWvkUCSfxn3GxWByy5ZHBJiJd4uTBVqlUuHTpkp3BbmpqQlNTE4qLi7Fly5Z5uV7CFYZhMDAwEHJfXgLp+wxM5we0tLRAJBKhoqIC165dg06n445NT0/Hpk2b5pyIVSoVHn74YdhsNuj1euzbtw/AdOMYUo5FjOjU1BROnToFAMjJyXGZEOjq/pGe2a7ctzExMSgvL0dPTw9SUlK4yYokBPHPS1rMCoVCCIXCOV3MxEVPjD5hZGSEu6cJCQnYuXOny3M4o7u7Gw0NDdi8ebNb35lgP1tkt03uLQlTOLbr9VZoY3R0NOAxUpqmvRIXIc9EJGts3y5EpMEmX0CJRIKEhASnZUuh6iIKBFarFS+99JKd4QtVLBYLpyJ18+ZNTqGNQERg5kIkEnG19OPj4xCLxVi1ahXq6uowPDwMg8EwI3GQNM7wxPhYrdY5Y7EUReHq1as4deoUfvzjH3PeKGfvg5yLNDTx5Ll1VssPTAvOpKenu3UOo9GIxsZGLFmyBOvXr4darXb7+qEAP0ud/JdvaImQDsHdErN9+/ZxC7zU1FSvS5C8gTwTpByUeA6cjZmESCIxAet2JCINNkGtVmPRokVob28P9lBCCpZlMTY2FnL1mHPB1xEHpg1PTk6ORzskhmHQ2dkJhUKBRYsWoa+vD52dndDr9XbGUC6XQyaTeTzR0TTtVuyW5BDYbDa33bTeLjJdCe7MhdFoxOHDh/Hyyy/j0UcfxY4dO9x+rVAotGuDGkrw74XjooZ4M8gz5Sy0d+3aNbS2tnLZ7nV1dX5tLkMgbm3iKSC9rck4BQLBjGfJmbcllODfa3/gLI8pnIlogx3obNFwQSgU4pFHHsFvf/vboDct8AaRSIRFixZhwYIFHiuWsSyLa9euQaFQQKvV4vLly06PIy5oTyGT5tTU1KzGisjNBiIJSqfT4eWXX+Zqhh3bxLpiZGQEe/funbGYmQt+c5NQNNiz4agyyB8/yT7+5ptvOK8PaacaiHmGeAecXYuEU0jSI1k0hrril78MNil7o2l6hlcunIlogw1M78IUCsUMw0Q6X82n0Xy4IhAIUFZWBrFYHHYGW6PRoKCgABs3bvTK4NE0jQ0bNsBms2FsbMzl60nvcE+ZTUKWT2lpKQoKCgKSnGk2m9HQ0MDlcjzwwANuiQLt3bsXPT09Xl3TUVEvXHF8DzabDWVlZcjJycHVq1ehVqtDSsc7VL0agYYsGkN5seINflkWhtJNKigowKZNm2b0H+7t7cVbb70VxJEFD29dpMGGpmmsWLEC69atg0Kh8GplTpqyaLXaWV+v0+m4mLkn94uIP8y2ohcKhVCpVEhKSgpKmZG7rUZVKhWn2ucJfJdtpGGz2bj+6zKZDNnZ2QHz4oXjd3Y2AiVHG0leVp8v70dHR9Ha2upUMzsYiMViLF26FAqFAmNjY+js7ERjYyOsVmvYaGj7GtKq0jEmHOoweHKOSAAAIABJREFUDINvvvkGFRUVfr9WX18fBgYGkJKSgri4OJSUlLi1G55L+pGUWwVzEiFx0Lm46667kJCQgNHRUU56112IDGmk0dvbixMnTsBkMiEtLQ0bN24MWKnY2bNnsXTpUq88P6GIY8KfP+BLuEZClrzPDfbk5CRaW1tRWloaEOUfd6BpGgsWLAAw/QE2NjYiPT0dDz30kNvnIBNcuO8aTCYTXnjhBbz99tshKaE5F8PDwzhx4gTWrFkzpzSjxWLB+Pg417xlfHwcly9fxo0bN7B27VokJSXBbDZzNZ9El51vaEZGRpCcnIzCwkKfuK+JXnYwcddlKpVKsXbtWo/OrdPpMD4+zom3xMXFhf13hs/4+Dhu3LgRcEGYU6dOQavVhsyc6gsC+VwE+zvnK/wSQGtra0N7eztKSkr8cXqfoFAokJub6/LvJAZHEtesVqtdMo0/IG5Ufz5cvb29OHnyZNjtrgkmkwnnzp1DfHw8li5d6vK4vr4+9PT04NixY1i6dCnUajW+/vprjIyMwGQyISYmBps2bcL169e5xZzNZuN2hpOTk1CpVEhISIDZbMbNmzc5N7JCofCqvClS3cR8Tp06hb/97W8ApqV/H330Ua9qh0OVvLw8rFmzhqvjDwSTk5PIy8tDZmZmxNzLQC5cIyWfAvCTwTYajWG1eyPlEmQyJTKMxIUiFovBMIxTY02ySkkGqbsPocVimbFKJ9KPvn6QSSLK4OAgnn32WZw5c8an5w80RqMRra2tKCoq4hTGHDlw4ABaW1u5/+cjk8mwcOFCrksaEU65fv06LBYLcnNz0dbWhrq6OmzatAlvv/029u7dy70+NTUVJSUlyMzM9KhFJ1+GMVJRq9WgaRrd3d2QSCQ4evQoFi1ahISEhGAPzSfIZDJUVFTAaDTO2nbXlwwPD0MikUTU7hoI3A6bpmkIhcKICNFEfJY4gWEY9Pf3o7m5GUKhEPfddx/i4uJgtVq5XRVfwpAPqcV17C1NjiUPgqOx5SsqOQo2uIojkmvQNM1N7vN5sMmCwmKxoKmpCceOHfP6XKECy7JoamqC2WxGTk4OlixZAplMZjd5Ll68GGNjYxgbG5tRS82yLG7duoXExERkZGRgZGQEe/bswfDwMORyOUZGRqDT6VzKI968eRMDAwPYvn27ncF29nzcbtTW1iI9PR3/9V//hY6ODvzlL3/hdtpardYrWc1QY8mSJaisrAxYq8qioqKIM9ZRvOO2Mdh6vR579uxBT08PEhMTUVNTA7lcDrPZzH3p5opLkZ23KxxLKhwnb3dqAfnnsFgsEIvFs9YqkgxmR3cr+T2ZVBiGwa1btyJilQlMv7/W1lZ0dXXh0qVLuPPOO5Gfnw+z2Qy9Xo/U1FTceeeduHr1Ks6cOWN3741GI/bs2YP+/n4sWLAAer0e3d3dePDBB3HvvffCaDRCKpUiJSXF7pr8RYGzGv9QdL2xLIvR0VHuc4+JifHbLp801KmpqcGzzz6L48eP47nnnsP58+fR39+PZcuWYfPmzVCr1WHraSDfM5qmOVEOf9b4WiwWmEymiFjozIZOp8PQ0JDf5qdICUXdNgabpmkolUqIRCKsWbMGAwMDyMzM9GschR+TdtU9bK7Xm81ml7KDxLhbrVau0QO5DnH3kutNTk7ij3/8Y9jGrl1hMpnQ19eHa9eucf9PNLOB6QnP2T23WCw4c+YMLly4wBlakUgEsViMrq4uFBQUYGxsDFNTU1wjiZqaGk7eFEBYxBNtNhv+/Oc/48aNG6BpGvfddx8KCgr8ci2xWIzY2FjQNI3c3FykpaVBoVBg7969OH36NPbs2YPDhw/jV7/61ZyNVcIBiqIgk8lgMpn8ZmjGx8dx8+ZN1NTU+OX8ocDo6Cj++te/4uTJk9DpdMjKyvL5NYjHMtwzxW8bgy2Xy7F69Wp0dXXhvffew6VLl/D8889Dq9X6/dpkhzxbQwhXOApxEBc3X6YQAFf7S9M0ZDIZlyBH3MEsy4adSIon8F397mbw8l2aWq0WU1NTOHz4MFiWtesTTgy2UCicNTOd5DG4mrzJ4iqQnexYloVOp+OeDblc7vb1+R4Dd9pqOnodJBIJduzYgS1btmDv3r04evQo9u/fj48++ghlZWVYs2aNXdgo3PD3rk2v1+Pq1atYuXKlX68TTPR6PV5++WV8/vnnEIvFuOuuu1BeXu6XZyISdtm3jcGmKArx8fEoKyvDqVOnuN1pIFyYzhLM3IUIcQDfdoFytkok74NhGBgMBq4rkUQi4ZKqIk14gc9835tSqYRcLofFYnGqkGSz2XDp0iWkpaVBLpc7PQdN07MabCIVGS4MDAzgww8/REJCAnbs2OGVG5ssEnbv3o2qqioAwKFDh9DY2Ij6+nps27YNCxcuDNu2l/6cQ8RiMbKzs8M2fDAbRGny448/xldffQWpVIrvfOc72LZtm0eJnLcbAgC/9vVJaZpGaWkpkpOTfX3qeSESiWAymTAyMoKEhATk5eVBKBR6rZoVKMgO293JgRgG8qPT6fCnP/0JLS0tARhteGIwGNDT0wOtVuuyfaTBYEBKSopd9QAfct9n+4yIUQ/U88ayLBobGzE5OYnJyUlkZmaiuLjYpREgC5WxsTG88cYbOHToEGQyGWpqaubcmctkMsjlcpe7o9jYWCxZsgS9vb2YmJhAS0sLOjs7kZmZCY1GE5ZlbwzD+MUdTrw6SUlJAfXIBIq2tja89NJLOH36NAQCAbZv3+53Yx2KOSZz0dfXhzNnznDfy9vKYANAUlISli9fjtTUVLz55psYGRnB8uXLw26icAdi6A0GAz788EPcuHEj2EMKWeRyOVJTU5Genu5y0iCNQ5qbmyGVSu06NJHJYK5JgeywA2W0aZrGqlWrUFVVhQMHDuDMmTOoqqpCUlKS0+ONRiPOnDmD999/H1988QWsViuysrJQW1s7q+GgKAopKSlzHqNUKrF161YsX74cVqsVbW1tOHHiBEQiEZRKpcsyvVDFHYPN76LlicRte3s71Gp1RBpsIg0sFotRV1eHu+66y2VVhi8g4Sp3OumFEo4G2y9PAsuyMBqNHrUODDSxsbGorKy8LcolpFIptmzZgoaGhojJEvc1LMsiOzvb7UYOVqsVRqPR7vUkTkwmBleQdodkh052ls40y+e763S3GQlBIBAgMTER27Ztw+TkJC5cuOD1tWejsLAQv/71r3Hq1Ck0NTXhk08+QUNDA7Kzs7FmzRrEx8fPqWQXDgiFQojFYq539Vw68wSBQBAR7382amtrUV1dzX1nAkG430+/GGybzYZjx44hJyfH5Uo+2FAUhaysLCQnJ3MTbaRisVjQ3Nwcdu6gQKLT6dDf34/c3Fy3ngVXuQTuGkaLxcIp6YnFYtA0PUN/m/83bw030RlwZ1wkkXHNmjWQy+U4ffq03ww22XWuXbsWK1aswMqVK/H222/j5MmTuHTpEpYuXYrvfOc7LvMFQgXSztLVQpiUf/H/3x2DLRQKUVRU5NOxhhrB8ByQPKBw2mXz8dsdGxkZmSFYEWrIZDJMTk5ibGwspFrk+RpSH0t2cVGc09TUhMzMTOTk5Hh9Dk/uL5m4SZKgs9caDAZOIc2ZwZ7Lte7peC5cuIDExEQ7Q+nvvvIymQzl5eUoLCzE1atX8eSTT+KDDz6A1WpFRUUFSkpKQtZTN9u99/d9CyZmsxlXrlyBxWJBdnZ2QKpt5gPxMoVT0qcz/LrEaW5uRnx8fEgX/RMFtNjY2LCoq/UGuVyOf/iHf8DExAT27dsX8gupYCAQCJCamoq4uLigXH82w+oq2ZCU7gmFQjuDRow/2bG7MvaOkOQflUoFq9XKXZPIYpIMeH8s+khNM/keWiwWfPzxx7hw4QJ+85vfhPxO2xHiHQnVhYY3DA4O4vjx4zAajVyuw9TUFBYuXIjMzExkZGSgrq5uhvYBqVgJtjvaarWG/dznV4Pd0tKCZcuWhbTBBoChoSHk5ORErMGmKAqxsbHYunUrTp06FVGKZ74gJiYGdXV1SEpK8qqpR7AgRplI2fLlbMnfifuPCMAQw0vTNMRiMcxms93kSuKtR48exYULF6BWq7Fp0yauJShFUXNOerMZdGeTNv/4hIQE3HPPPXj++ecxNTUFg8HAKX35asLnX2++53T1XsVisdflWGRRFGr5Ne+99x6+/vprmM1maLVa3HPPPejp6cHRo0fR3d2N+++/HwaDAXv37kVfXx9MJhPEYjG0Wi3uuuuuiGkLGkwiL/0wiktKS0vx85//HH/5y1+iJV7/H61Wi7q6OuTl5c2YvCmK4ho8GAwGGAwGANM7zlBahPLlMYkwC7/X8OjoKJ599lmMj49j9+7d3HslsVfyWpZlcfPmTWg0Gpw4cYKTbi0oKOB22+4aOKPRaLcQIAsEZztOkqTKsixomsbu3buxcuVKvPXWW2hoaMDbb7+NzZs3IyUlxSc7baJtMFuowd3z8D0RwLducMf3yfd4zEVPTw8mJiZQW1vr1bjmwmQyzdoiVKlUIiEhATRNw2g0YmBgAGq1GlNTU0hPTwdFUdixYwdWrFgBg8GATZs2cXr8f//73xEbG4sVK1bg6NGjqK2tRWVlpV8zwF3hTHQq3Ika7NsIpVKJ7u5urovV7UZsbCxycnLsJuj8/HxkZGS43PkxDIMNGzbg1q1bXFlcfHy8nURpKEHkbC0WC2c0bDYbbty4AZvNhpSUFJelUySGrVQq8eabb0KpVOK73/0uZDIZt1N3ZnAsFgsuXboEtVoNpVLJXZM/QTIMw9UW89vUOhMwkkgkyMrKwtNPP43BwUF8+OGHeOONN5Ceno7S0lKfyHQSTwHJ1vfUaBMD7OhtIFnhjthsNrfdsZ54E3p7e/HNN99AoVCgqqrKZUni8PAwzp07h8LCQrS0tOCtt95CQUEBJwPa0dGBjo4OVFdXo7y8HFqtFjRNo7OzE8899xx2796Np556ivtMyeIrJiYGMTExUKlUKCoqwuTkJNavX4+srCysXbuWWzwGC36viEggarAx/aG2tbVBKBQiLS0taHFMf0NR1Iwdwe1CbGws6urqUFhYaDcZOsu+ZhgGPT096OzsRFJSElJTU5GWloaqqiqYzWaMjo5icHBwRnOQUIIvXUt2u8SYuHLV0jSNZcuWoaenh9ud86VJycTrmB1PURSkUinXqMIVxDATmV7Addc6YNpwp6en40c/+hHOnTvHtT99//33AQDLly+HRqOBWCz2KJxFdvvkHnmzy3a1eCH4wn1vNBq5KgFg+v61tbXh+PHjkEqlEAgEuHHjBhobG1FdXY3BwUGUlJRgwYIFoCgK3d3daGho4HbqpBRRJpNh586dKCws5Bae7e3t6OzsRE1NDTQaDRdmSUhIwN133428vDxIJBKX7ysuLg733nsvgG97J0Ri/Xiwid5RTD/Ivb29AKYTtEgDg0jDZDJFXPMPd5BIJFi6dCkKCgrcSgIaHR3F0aNHMTExgfz8fLS2toKiKKjVatTX12N8fByZmZmIjY2FQCCYdSILNgzD4J133sHg4CDKysqwYsWKWbXQKYpCTk4O7rrrLuzZswcffvghioqKuEQwZ4s9kUiE2tpat2OuZHfqDmTir66uRnV1NXQ6Ha5cuYIPPvgA//M//wORSIRVq1Zh3bp1HsWM3amXDxbJyclgWRZfffUVFixYwIUBhoeH8frrr+P69evYtWsXsrOzkZeXhzVr1iApKQm3bt1CTEwMjEYjKIriPBVEHnbdunVgWdZpc42CggIUFBRwjYOsVisEAgG0Wi02bdo055iJMEkU/xI12A60tbVBo9G4lKcMR6xWK65du4azZ8/igw8+CPZwAo7JZMLly5dRVFTk1qrfbDZjfHzczrBdu3YN7e3tnKFpbm7GlStXkJaWNqcKWDAhjUxMJhPi4uKQkJBg93eyM+WXvMTExHBhAnIPZjOwg4ODoChqxrn9gVKpxNKlS5GRkYH//u//xr59+9Dd3Q2r1Yri4mJkZ2eHlOHgywR7SklJCT744ANukU30Iu677z7O3cyHeAbJtZRKJdeZzd2FCQmpkP8nHQDDGZKlHu4Z4kAADPZcKkukYxLf9cPHscezq7/5inAuqneFzWZDS0sLXnzxRUxOTgZ7OEFBp9Ph4sWLyM3NnVMyl98KlTwPjpMuce+Ojo6ipaUFmZmZYbnIIzsxADNUuJRKJXbt2jVrwtDAwAAuXbqEVatW+X2sfBISEvCjH/0ISUlJaGhowFtvvYXExEQ88sgjqKiocMtoE9e4N+5wYDpM4MoQ8w2d2Wz2eCdPPDoPPfTQjPlIJBIFZFFCFmnOPBfhZMTDaaxz4Ve/L8Mw0Ov1mJychMVi4f6f/6PT6aDX66HT6ex+TzJy+Zl+JpOJ+7vJZPKZYfVUvjHckEgkWLduXUQlX3iKwWDAqVOn0NPTM+excXFxKC4u5jp0zTbZjo+P4+LFixgbG/PlcP2Cs4mL7KKdLYxJbJr8zVmsVyaToa6uDpmZmX4c+UxomkZaWhp+/OMf4+mnn0ZKSgo6Ozvx0ksvoaGhwa3vMl821F1IqZxjOZzjMfwWuN663YkrW6FQ2P14s8jwBpZlYTabubpr8hNu84i/GrQEA7/usIl7hWStzvYlcnS5kQeFD9+okvO5ckUSBSiyQyK1p47nI4sK8oHGxcVF1IqMEBMTg3/913/F73//+9syjk0gi8HZyrKkUinq6uqwePHigOoc+5OsrCw88sgjsx4jFosxPj6OTz/9dMbfJBIJl+HNdy3Gx8cH3bOwYMECPPvss/j1r3+Nixcv4sUXX8Tjjz+O5cuX+zwXhcRqXZ2XaIZ7Igkb6pBEQSLIE45qYeEwZovFgv7+fu775axVr18NtslkQl9fH1QqlVcP7mw3mYhBOIOvwUzqO0lWJcl2JSUdjqUZKpUqLAVUyMrflVSlQCDgaitvZ5qamiAWi7F06dJZXb1E3StSEIlEcxpWmqahUqmwZs0aO6PNzxAPxZ2KQCBAZmYmfvazn+GZZ55BQ0MD3njjDUgkErfd454wl667o9JXJEAWrvy2vYB9FcFscws/rEQWfr6Gfw3yGYXq59DX14crV67Y/W5qagrHjh3D+Pg4gGnvVUFBgd178KvB1ul0aGlp4UppfP0huVoEkFIWPsTFLhQKub7Yzj7Mnp4eFBcXu5zMZ+tARt4fiW+SBzPQO3ZivOfTNCJSMZvNaGhogMlkQnZ2tk+SlFiWRXd3NxITE0NKUAWYfhY9mbQoisLQ0BBOnjzp9Pnhx20nJiZw+fJlbNu2LeiLXJqmsWDBAvz4xz/G119/jYMHD+KVV15BbW0tamtrOcEPV9hsNtTX16O9vR2pqamora31qgVqJOyoneFYK082OWQB52iEaZq2836SkCZJZHP2vJAQAjHqrr6Xs+UyEc8GPw8lFCD5MCdPnsTw8DC6urq4xjrOvMRFRUVITk7G0NCQ3e/9nnTW19eHixcvoqyszGupPl9CktxcYbPZ0NjYiMWLF88w2vwWivy4HhGp4D+0xBXvqsaT796fj1Hln4eUZJBOUgKBIOgTaShiNptx8eJFdHd3QygUOi1z8QSWZdHT04OCggJOwjNU+Oqrr9DU1IScnJw5FyYsy6K3txevvPIKTp8+jcceewz5+fnc95aUWJHw1dTUFBoaGnDHHXeEzHNWWVmJsrIylJeX4ze/+Q3ef/99nD9/Hk899RTS0tJmfDZ8o3zu3DkcOXIEsbGx0Ov12LJli0fXnm/MOpxwnENdCeqQe8t3pfPvj2OYkzxbxOCS5D1HI028GI7zLv+8ofA5sCyL8fFxtLa24vPPP0dnZyf0ej3EYjHUajVUKhU2bNhg970CgMTERMTGxqK5uRmNjY3+7YfNx2Aw4Pjx44iPjw94Yoo3sCyL4eFhjI6OIjEx0ekxjpKL/F0MX+6R/E4kEnGyi3yDTlapRN+ZPwa+W8fZw8jvPuOqXIGf8R6usaf5IBaLIZfLXSaEpaamzpkx7i5WqxXt7e2Ii4sLigyjKwYGBmC1WvGDH/xgTkGgnp4efP3116isrMT+/fuRnp7uVBWNTKAqlQp33HFHSCzE+QiFQqxcuRK//OUv8cYbb6C1tRXPP/887rnnHmRnZ3N68UKhEPHx8ZBIJLBarSgpKcHJkycxMTGBxsZG5OfnIysry+3QCOl3HWUaZ/MNCVcC385JJIGYb5SJ8SKeQscFATmWbE6IEI679f2BgGEY9Pb24uWXX8bNmzdhMBggFAqRmZmJBQsWYPXq1WBZFnK53O3GJAEpHg23mI7RaERHR4dLg82HPCDkYXHMSCQG1TF2w09I4es5k3NZrdZZE55cdXDiw9dMJguESHXZOSMxMRElJSX44osvnN4rX8omCoVCFBYWhlzcmwi7xMTEzLnz7+/vx5o1a2a44fjQNA2JRMKVKo2NjYXkM0WMdkVFBQ4dOoTe3l709/fbLUJkMhknA0rTNB544AEcOnQIV69exdmzZ3HlyhXs2rULGzdudOlB4BuOKHPj6IVwnPv4xxED5u48FyqQTd+FCxdw6tQptLe3cxu2FStWYPPmzYiJieFqw92ZywmhqfYQZIgkoqc4kyvkP4yuVn+uXPSefJCu4O/0IyXj2R2USiXKy8uRmpqK1NRUp+Vcvr4X3sQ8/c2KFSug1Wqh0WjmPLaurg6Tk5N49dVXXR7Dl5xUq9W48847Q+49E4RCITQaDe6///45j7XZbFyXKWD6OzkyMoIvv/wSq1atcmmw+QvyUL0PoUYo7YJ9DcuyGBsbw5tvvomLFy/a5TItWrQI27Zts/NaSSSSOSV9+QTEYMvl8pBzm80G2UVEGjk5OVi+fDkOHz4c7KH4nZqaGhQUFEAoFGLt2rU4ceIEhoeHuQzM+Ph4LFmyxKfxZuLWC5WJm2VZpKenu+32ZxgGExMTaG5unvNYgUAQkjtrb2FZFk1NTZiYmOB+505lBYmVCoXC6C77NmdychJDQ0P49NNP0dDQAIZhuHaxGo2Ga5QCzAxruovfDTZFUSgqKnLLvRwqGAwGNDU1ITc3F1qt1ict/UIB0tknUqEoCgqFAqmpqUhKSoJQKATLstBoNNiwYQM6Ojpw5MgRJCUlITMzE0ql0mfGlWEYDA4Ocu04yXicEQijTrw97pZhDQ4Oorm5GRkZGSgsLERHR8ecrwmnRbg3KJVK3H333W5l/odiuVuUwMCyLHQ6Hfbt24fjx49Dp9OBZVmkpKTg7rvvRklJiV3ojWSMe6OAF5AdNhFdCBdYlsXQ0BCGhoawYsWKiDHY8fHxyMnJweDgYLCH4nMKCgqg0Wig0WhQWlrK/X54eJiLIY2MjICiKCxduhSFhYU+vT750pI8gdlqTWerl/fleDxxPTY1NWHv3r148skn8Z3vfAcHDx6c9fjboVyQpmkolcqQyvqPEpocPHgQBw8ehNls5oSXSkpKsHDhwhnHMgzjtXhV+FjRKPMmPT0dTz31FJ555pmI2mmnpqZi5cqVM7Kgh4eHsW/fPty6dYubfFUqlV92hgKBAKmpqZyhJOpQ/HpUkpBIylFmC7vws2YdExkda1z5xpO8zlOVLZlMhg0bNiAzMxNxcXH44x//iLy8PJfHE5GHu+++O+IN92yQzyK6w749sVgsOHDgAA4cOACz2YyYmBhs27YNK1as8MsmNWqwbyMoikJKSgq0Wm2wh+JTSBkeKdch8AVkMjMzUVdXB4lE4lePCTFe/JpTMpnzDahjQiFf+pGMm28EHF9L/iYSiTjXP3G1zdZj2hkGgwEajQYLFy4ERVFQqVSorq6e9TVSqRSrVq26rY01gcSvIymmH8U9bt26hcbGRk6oq6qqCsuXL/dbuCgg3boGBweh0+m4gHuU4BJpk6zZbEZXVxdSU1PtaqC1Wi02bNiA9vZ2lJeXQ61WB+W9O5vIHdX4+Ds1d5JQSBycrOLnU7an1+s54Rd3oWnaaY22q7GSMfLFgkItq96bsTAMM0NVMUrkw7IsRkdHsWfPHrS0tAAAkpKSUFhYOGcJ4HwISHCmvb0dAwMDYbkCna0rTzgiFotx9913B6R3cSBpaWmZ0TqU7Kzj4uJw+fLlkO6Hyy8PchdSf2oymeZVYx8fH4/169d7ZLD0ej3ee++9OcdLxmQ2m7lxkh/iCQiFeYGmaWzduhUpKSkev+52KZWMMp1caDAYMDIygr/+9a84ceIEGIZBSkoK7rvvPpSXlzt9HQlTGQyGeS3wAuYSP3/+PJKSksJul33w4EFs374dqampwR6KTxAIBCgvL0dMTMysAhnhBsMw0Ol00Gq1M5KExsbGMDw8HFELL0KwSolsNhtu3LgBi8Vip+DnCJmonHXKI7F+kUjEyVACgU9oI+EEb9qk0jTNqR1GiVwYhsGtW7fQ1NSEY8eOwWQyoaurCyzLIi4uDjt37nTqoSILUqvVyjWichfSrIpPwAz2+Ph4WCZmaLVaGI1GO2GEUHLjeQNFUcjLy0N3d3dYfibOsFqt6OjoQEpKygxp0GXLlsFms/m9tj7cnwtPUCgUePjhhzmXPD9Bzlm83VlMj8TqiQoUSdQjBny2RQBZfJHEvvnce5LUJ5FIUFBQgCtXrnjkjRGJRB43WYkSHrAsi4GBAXR3d+PAgQPo6+uDTqeDSCRCUVERRCIRli1bhqKiohnGlTzfxH54YqzFYjFUKhViY2Ptnu1o0tkc0DSNpqYm6HQ6CAQC5OTkhH2Zl0gkwoMPPoizZ89yQiLhjlgsRllZmVMdb39/XhRFIS0tLSLFdlwhEAgQFxcHs9lslwXvaqc5W4kZX42PuPnnkuXlG2yxWOyTjNzdu3ejsrISP/3pT9Hf3+/2626HErfblYGBAbzyyitoamrifldaWory8nJUV1fPmlxms9lgMBg8XsiJRCKo1WqIxeLg7bDDGZPJhNbWVojFYqSkpIS9wQamH4rk5GRN41JIAAAgAElEQVRYrVbo9fpgDyesoSgKycnJIdOxKpD4q+EC34jPdX2Scc/fwfC75Dkm8hEjzzey890di0Qij3dRUUIbhmHQ3t6OtrY27neFhYXYuXPnnLkO/FahniCRSBAXF+dyIRBVBLhNSU9Px3/8x3/gvvvui4gFSCgQ3WUFB6LoRgy3zWaDyWSC0WiE0WjkYuX8H747fr5GlrjlaZrG2NjYjOTHKOGJXq/H/v37ufCIWCxGfn4+EhMT5/SqMAzj8UJWIBAgNjZ2xmKST9Rge0BcXFzE7KIkEgmysrLwwAMP+Fz163ZDqVRGFz0hBl+r2RkWiwVGo5HLXic0NjbCYDB4fD2KoiCVSnHu3Dl88sknaGho8HrsUUIDm82G0dFR7hlKTEzEunXr3Oor783uGsCcqnoBNdhmszmsO7UkJydDJpN5LEwRykSK4ENxcTGUSiWGhoZw+PBhDA8PB+S6KpUKFRUVM0RbooQu/K56jkmXn332GZfXsWrVqjl7iBPIjquiogJ9fX1488038de//hUXLlyIZpCHIZOTkzhy5AgnIapUKlFTUwOJRDKnJ83bdp9yuXzOxUDAYth6vR4HDhxAfn4+amtrA3VZn9LZ2Qm5XI7x8XEUFxdHRP3lwYMHce3atWAPY16IRCJkZWWBYRj09/fj0qVLyM/PR3x8vN+vLZfLodVqo+7wCIFvXEtLS6FQKDx6fW5uLn7wgx+go6MD//u//4uWlhbQNI309HTIZDKPzxclOHzxxRecO1ypVGLr1q2orq52a3ft6c5aIBBALpcjJiYmdAw2wzAYHh4Oa8GOiYkJXLhwAQqFAhqNBnFxcW518gllhoeHvRaiDxUKCgqQmJiI/fv3Y2BgAMB0dqdUKvVYCMMTSMwpaqzDH4Zh0NHRAZ1ON+9zJScnIz4+Hk8++SQ+//xznD59Gq2trSgtLUVVVRWkUiny8/MjYsEfqYyMjHC75KVLl6K6utqtcCgJsbjrtRQKhdBqtRAKhW41mQlolrhSqURubm4gL+lziErTqVOnUFVVhYyMjGAP6bZGrVZzNZB6vZ5TETp58iS6urpw3333+e3acrkc+fn50W5OEYDNZsO7776Lnp4eANMhlvT0dK/PJxQKUVVVhSVLlsBqteLIkSMwmUzo7e3F6dOnsXnzZrd2bFECC8uy6OjosGsvK5VK3TLWVqvVo6Y7FEVBLpe7bayBABtsmUzm1x1PICHlLEajETRN25WRhBOrV6/GsWPH0NnZGeyheEVcXByysrKcxoz8nSCYnZ09a0ZnlPDh0qVLuHDhAoDpEEtZWdm81Q2JXrpAIMDWrVsBTE/qBQUFuHHjBt555x0sWbIEhYWF0UVfCMAwDG7cuIHXXnsNnZ2d0Gq12Lhxo9ubTMeGPs4gnzNpQiSVSj367AP6lIyOjuLcuXNeBeRDEb1ej4mJCS6ZzrEOk8QzQrU+k2VZZGdnR0TCFE3TiIuLg1arhUQigUKhQGVlpd+uR1EUZDJZ1FhHACaTCU1NTbhx4wYAoKioCJs3b/bLtYRCIRYvXow1a9aAYRi8+eabPnHDR5k/Op0OH3zwAa5fv474+Hjs3LkTtbW1bnla3CkPJHNUQkIC4uLiIJfLPV6oBdRgW61WfPPNNzh9+nTYd7hhWRZXr17FuXPnMDY2BpPJhKmpKa4mlBjqqakpTE1NeZ0pSjJavS0TmA0iZB/Okop6vR5tbW2wWCzYvn07HnnkEc5F7k/depZl0dLSEjGLz9uZtrY2vPPOOwCmvYALFixAfHy8XxdjMTExKC4uhsFgQGtra1hXz0QKVquVqy5Zu3YtKisr3Q5ZkOY9rhAIBFCr1ZDL5fNS5guKH6axsdFjkf1Qg8hR5uTk2O2giWCDyWSyM4TEfe7shxxLzkFWaxaLhevGRI7zJKHBGfz6VHKecN4pDg0N4cCBA5yUJEVRKC4uRk1Njd8zcjMyMvzW9zZKcIiPj8fq1asDcq2lS5ciOzsbBw8eDJpEsON84OonimvcuUdisdgnCcpBMdih6iL2lISEBGRmZkKj0cxwbZD+xPx/k52y44/FYuHaI5KdORF14Nd8k3PM997xMxlJu81wzXZ3FCmgKAoZGRkoLS11qivuKyiKQkJCgk80rKOEDvwe4/5GLpdj69atuHXrFo4ePRrQ9q9krmFZFgaDgfMEOvshbV9DObznC4xGI9c9zt2FOH+jNtd98YXmfHS28SOePNhEWtGd17nqDCQQCNz6QvFfT9M0cnNzUVhYiMuXL0dFHtxAKpVCpVJFd9dR5gVN08jKykJqaiq++OILZGRkYNmyZX6/LsuyXLUL+fdsOG4+hEIhRCIRBAJB2HrmnLF//3709fWhsrISixYtcvt1RPrWFb5cBAbFYNtsNly/fh0ajSZsOxxpNBqfu1zdMfCuVHRIRqo3ymUqlQr33nsv2trawjIBJiEhARqNJiDXIjHOtLS0aElOlHlhtVpx+fJlaLVatLW1cTu8+bYLdQWZFxzlWD15LTBtoEjLVMdxOuvhDISHzr7JZILNZoNYLPZoMS4SiVzusGUyGZcR7guC4hK32Wzo6OgI64QdrVbr16QmTyGuYW/cVZOTkzh06FBYfR781T0pp/C39K1QKMSCBQu42HW0FCfKfKBpGvHx8UhPT4dYLMaxY8fw0UcfYXx83KduZxJjtVqtXKjNF+ckhp//QxYd/OYrjjk6oUpVVRW0Wq1Hr5lrIeKugpm7BGWHTUQFog0TQgOr1YqbN2+GjTtcJpNh8eLFGB4exujoKIBpFbrz589DoVBgzZo1Pr8mTdPIy8vjanMZhoka7AjAarWir6+Pe/YTExMDFsNWKpVYuXIlqqqqEBcXh/3796O5uRkTExNYvXo11853PuMhsWqj0RgQo8kwDAwGw4zrWK1WbucaqrttjUbjtXaD4waC/M7Xc0RQDDZN01CpVNGEnRBBrVbjiSeewG9+85uQd4lLpVJUVVVh8eLFdrq9DMNgcHDQr8lzcrmc250IhUIIhUJu5exsMoy0GF8kMjExgRdffBETExMAgJ07dwZMl4C05JTL5bjnnnuwfft2DA4O4v/+7//wu9/9DnK5HPfffz+qqqq8zpew2WycsQ4UzhYFDMPAarVy8dxQ/F4cPnwYExMTyM3N9djQknmHJPFZrVZIpVKfh3yjFjMKaJrmEl6OHj0a0jvt2NhYrs6aD8uyqK6u9tt11Wo1lEol92+SJEgWnY6JgGRichbTczVZubP78eVEx79eKE6ggYC4dgmB2gEKhUK73RxZAGZkZOB73/seAODEiRN49913YbVaUVNTM+cGx/H5YRhmRnlpMOF/ZwQCwayLkEA/j8S9Hxsbi2XLlnlksF2N1RdZ4Y5EDbaXkBKHSHGLJiQk4JFHHsH4+DgaGhpC5kvuCEVRM+45KY+jKMpvcqSxsbEzkgxJrbwzyN/ISpuiKJjNZrtduSNzZZuKxWKnz5s3kwLLslyZYFReNfCQTGtHSOjlhz/8IW7duoXGxkZ8+OGHkMvlbgl5WCwW7pn0pnOUv+F/L5x9d2iahkQi4RYfgZpfT5w4gWvXrkGtVoe05zcyrE0Q6OzsRHd394x+uuFMamoqfv7zn6OqqiqkH1pHrl69ildeeQUfffQR9Hp9sIdjBzGMxDgajcZZ613Jsc5+SBIPOd5gMNj9nb/DmiteSZSZyJhCPSHIHzAMg56eHlgsFlAUhdTU1IDpEcxleFNSUlBZWYmCggKMj4/jxRdfxJkzZ+ZMquQ/b6FmrPnwx8n/sVgs0Ov10Ov1mJqa4iSf/YlOp0NzczMYhsH27dvnfT6iD+6POTQoBpt8WOE8SVitVnR1dUGv14dFBqQ7UBSFuLg4fO9738OuXbtQVFQU7CG5hUqlQmFhIbKzs/3yJZFIJIiNjfX69Y5lNN6qSbEsC4qiuONJMhH5IbsropBHduzOXKUMw9jtqvnjIPHGSHimZ8NiseD999/H6OgoaJrGnXfeGZDmRAKBYM6FgUAgwKOPPoonn3wSarUaRqMRBw8exK1bt2b9bCLhM3P2fJO6cb6YlC9U2AwGA/bt24fz588jPz9/3u2fiQcwNjbWL0nVAgC/9vlZ3YBlWaSlpYW1+AR5oKxWa8T0RSZGu6KiAiMjI7h06VKwh2SHUqlEcXGxnes7NjYWubm5SE9P94vBVqlUyMvLC4m669l2G467bbLLckx+4yvrAd9OkCTmRiZFx9c5e77nG3d3fL3jsc7OP9f3bK5zkmMsFgsOHDiA3t5eCAQCVFdXIy8vb9Zz+wKFQjFnGIKEd5RKJTIyMjA6Ooru7m709/dz3gDHGCnxmkSC0eZDFpDkh/+Mk++k4+JzNvjHjo2N4Y033oBer8eWLVt88vnTNA2FQuETd35fXx/OnDnDvaeg+D0ZhsHNmzfDXvCeYRgMDQ0BmC4HCVd5T2fodDquZOp2hvSsDdfFGEk8EgqFXPjGmdEnEyFFUdzfjUYj974d5RqJkSduTGfQND2nYSJCQEQml7/gIp4AkhRGjJizhEPH3ZbZbOaOd7YIsFqt+PTTT7kF6dKlSwOiMuZqTK5QqVRYv349ysrK0NbWhpdeegmvv/46Pv/8c+zcuRNFRUUYHx/nOj+FshvcV5DngsTBHZ8J/jMFTHvIaJrm8lz4Rt4f94tlWUxNTTn9G0VRkEgk3MJ4rgRfx3BV+AQqQ5hbt25haGgImZmZwR6Kz7h06RKOHDkS7GHYQVHUvOtSPUUikSA/Pz8kdtfeMlcnIYKj0eP/22azzagrJcpQs10XwIzPi29YiNEHMCMfxFkSnslksvOukM/FMRua/z74yXrEWJvNZiiVSkilUkxNTUGhUISUEBIfiqKQlJQErVYLsViMPXv24NKlS3jjjTewefNmXLp0CYWFhaiuroZIJAr7cKMnEC/nbJ4Z0hmS/I4cK5FI/HavZlsIGAyGGWN0heMxQTPYRqMRnZ2dqKioCNYQfAbDMCFdCuUNZrM55Fqg0jSNioqKgMrZhnLdaCAhxpRv+NzZnRA3Jh+hUOh0onR2rCNkggamPxuy63eVR+I4bmB6IcCyLKqqqpCbm4uRkZE530coIBQKsWTJEixatAgff/wxXnvtNbz++uuwWCy4cuUKaJrG+vXrYTKZIioZ1h1mM36OfyPPrsFgQENDA0wmEwoLC5GcnDzvcdhsNly9ehV5eXku56n5LBCCZrANBgOuX78eEQY7EhGLxYiLiwPDMNDpdCHjaptLZ9lqtcJkMoGiKC5bcz5EjfW3+MoI+Oo8jjXUnl7PX5rd7uBt7J8sIO+44w6kpaWhvr4e+/btg06nw0cffQShUIiSkhIACOtQjr/p7OzEF198gZaWFpjNZlRWViI9PX3e56UoCrGxsX4rRwuqS9xkMmFiYgIxMTHRByvEWLp0KZ577jn09/fjD3/4A27duhXsIbnFjRs3cOjQIcTGxmLz5s2Ii4vz+lwCgQD5+fkRU2sfxR6SvBWMEkaife/KcLsSFiE5AxRFoby8HAUFBVi/fj3effddXL16Fe+88w7kcjk0Gg22bt2KxMREqFQqf7+dsIMk7VksFixbtgxVVVU+OS9N0z4x/K4IWpY4MG2wpVIpd/PCGa1Wi7i4uLB/HwSRSISYmBhIpVL09fWhq6sr6HExmqZRVlYGmUzm8j6TkiatVou0tLR5CakIBAJkZGREVDJhlG+x2WxcJURWVpbPJu3ZIIZ4rjCaY2Y0P0Oaj0gkgkqlQmVlJRYuXMglwvb09ODixYsYHR3FxMQEJiYmkJCQEDHz03wRCoW4evUq9Ho97r///pCduwcGBnD+/Hlu7g2awVYoFFixYgWysrKgUChC8mZ5AsMwUKvVflPaChYymQxyuRxff/11SMTF5toVKRQK5ObmIjMzc96fBU3TARXTiBJYTp48iZdeeglSqRR33313QGqwifSpL0NMJPM8Pj4eK1asQHx8PBobGzE+Po4bN26gsbEROp0OS5YsCevkSV+jVCqRk5ODzMzMkBWKcjTYQfP1icVi5OfnIzExMeyNNTDdotLXbfFChcLCQuzYsWPO4wQCARITE3HHHXegqqoK8fHxPh0Hy7KYmJgImXh6lPCmq6sLt27d4ur4/Y0/tKWdsXz5cvznf/4nHnvsMc4QmUwm9Pf3uyw3uh3JycnBokWLfLrJstlsOHXqFJcJ7muiwTkfYbVa0dHRERK7UF+jUCiQmJg453FKpRKPPvooNmzYgF27dmHXrl0+HYdAIEBVVRWkUqlPz+sKhUIR1sI+UVwzMjKCGzduQCgUIj8/PyCfs0gkCsgOVyQSITc3F2lpadwCobe3Fy+88AJaWlr8fv3bGYqioFar/fY5B81gm0wm9PT0BOvyfiESVYYAYGhoCE1NTXMeZ7FYuBaXsbGxPk12oSgKWVlZiIuLC0gSmFKpRFFRkV2HriiRwcTEBN59910cO3YMNTU1ePDBB2c0dvE1IpEo4BUHaWlpuOOOO6DRaGCxWLh4fX19fUTOU8Gmr68PR48eRVdXl9+8gEGLYRNRd1KCEAkIBAKkpKSEdJN2b2htbcXrr78+q/dAJpNxWr9Lly4FRVHQ6XS4cOGCTxTtiHRkSkqK3+8tRVFIT0+326FEiRz6+vrwl7/8BWazGQ8++CCys7Pd+pytVivGxsbAMIzH33GibhXI50mj0WDJkiUoLy9HVlYWWltb0dHRgZaWFrS1tcFqtSI5OTka1/YRZH5cuHDhrImxnhAyMexIxGq14ubNmxEVY+3u7kZPT4/TjFayQMnMzMTWrVtRVlZmJ56flJSEDRs2+GxCCNSEl5CQgIyMjKixjlAkEgkX4hkaGnI7jDUyMoLnnnsOn3/+uVff8UA/T0RYpqSkBFu3bsXu3buRm5sLlmXR3NzMNb0YGBiIqDkrWIhEIqSmpkKpVPrtsw7N1LgwRSgUIj09Peh1u44Sk21tbejp6YFWq0VpaemMjEhiCIlMZH19Pdem8u9//zt6e3vtBCrUajXy8vKgVCqxcuVKxMbGQiwWo7q62s6oCoVC5OTkIDExEX19fQF45/NHIBAgLy8vYHHyKIFHoVBgwYIFaG9vx549e9xKkCSSpkNDQ5iYmAjQSH2HVCrFjh07sHbtWrzzzjvYu3cvRkZG8N577yE5ORkrV65EQUGBzxNFIx0yz+r1ely4cAFardavde9Rg+1jaJrmOh8FClLTSR6es2fP4uzZs9zfW1pa0NnZifj4eFRWVtoZbJFIhG3btiEtLQ2XLl3CV199hePHj8/aV5q4p4uLi+3ep2PiDkVRKCwsxIMPPoi2tjbs37/fLWUqZ2RmZiIpKcmr13oCaQ4Q3V1HLiMjI/jyyy9RUVGBlStXuhW/ZhgGx48fx+TkJM6fP4/ly5ejoKAgAKP1HRKJBElJSXj88cfBsiwOHz7MSUT39vZy9cjR5999LBYLzpw5g6GhISxcuBCFhYV+vV7UYPsQi8WCixcvIjExERkZGbPW9pnNZoyMjHCuZrFYDK1WO+vufHR01GlZRmtrKw4dOsS59vr7+9Hf3z/juOHhYRw+fNjudzRNo7m5GUqlEsPDw+jt7eX+JpfLuVaLfEiGbXFxscux8snLy4NKpcKhQ4fcOt5xfFlZWVi5cuW8VMvchd8oIkpkk5OTg9WrV7t1LEVRqK6uhkQiwSuvvILBwcGwM9iE2NhYPPLII6AoCocOHeK6Rn3++ee4du0aNmzYALVa7Zd+zpHGtWvXcO7cOaxfvz4gpYFBNdhTU1MYGRmBWq2OiBUdy7IYHR2FXq8HwzDIysriVqvETd3f34/e3l4MDQ1h3759nAFOTk7GnXfeOWtji88//xytra0zfk/uozcwDIO2tja738lkMmRmZqK8vBwDAwMzZEkpigqY60ypVKKuri4g1xMIBMjJyYm6w6PYQTxm+fn5GB8fD/ZwfIJGo8H9998PiqJw8OBBmM1m9PX1YWhoCO3t7Vi/fj1WrlwZEfOyP8nOzsZDDz0EjUYTEPGVoBrsgYEBNDc3o6amJqIeDLPZjLa2Nq4USSAQwGg0Yv/+/aivr8e5c+dmvKa3txf19fVBGO23kG5YhYWFWLZsWUgofJFm8IF6Pkjv3ChR+DQ0NCA/Pz/Yw/ApSUlJ+P73vw8AOHDgACwWCxenb2xsRGlpaTSmPQcKhcLvJYF8gu4SN5vNmJycBE3TEAqFkEqlEWG8WZZFR0cHACAlJQWjo6N47733vNoJCwQCFBcXo6ysDAaDAcePH/dLM47S0lLs2rXLL7q6xPD6SwFovhAZ0tjY2GAPJYofsdls+PTTT6HT6Tx6XUJCQkgsYH2NSCTCww8/jIqKCnzyySe4fPkygOm8lzfeeAMFBQXYsGFD1OsUIgTdYF+9ehU9PT2gKAo5OTmoqamJmLpAi8WCjo4O9PX1Qa/XeyWBFxcXh/T0dGzZsgVqtRo2mw1SqRSfffbZrIlhcyESiSCVSjE5OQlgOnabnZ0NjUbj9TlnIzY2Flu3bsWePXswOjrql2t4i0wmg1qtRm5ubnRiinAYhsGVK1cgFArdzualKAp5eXkRqXpHURQ0Gg1qamrQ1taGW7duob+/HzabDdeuXYPRaERJSQlSUlJ8VlscxXuC2q0LmDZqU1NTsNlsyMnJiYjOXXwYhoHZbAbDMEhISADDMDCZTDCZTNwxaWlpMBgMM2ohExMTsXPnTqxYsYKr7aNpGikpKYiLi0NPT4/deTwhJSUFS5YswfXr1wEAGRkZ2LFjh98MFhn35OQk2tvb3X6dVCrFwoUL/dZURSQSoaysDBkZGRCLxRH17EWZCcMwOHDgANLS0nD//ffPmjPCRyAQwGw249SpU2hoaEBtbS0yMzPdfm2o91WnaRoLFizA0qVLMTU1BYvFgomJCeh0OnzzzTeYmpqCQCCASqWKmA1VOBCywik0Tbv95QlHKIpCcnIyNm7caNcVKC8vDzt27EBdXZ1d0gJFUSgrK0NWVhanksTHnYbrarUaO3bscJrNStM08vPzceedd2Lr1q1Ys2aN33cQZOLyBIPBgJaWFr9qtIfDhBpl/thsNhw/fhzDw8OQy+UeLwL7+vpw+PBhVFRUICsry+3XhcPOnKIoSCQSZGVl4Sc/+Ql+9KMfIS8vDyzLQq/X4+jRo3jttddw+vTpYA/1tiZkDLbJZMLg4GBEa9xSFMWJmBBG/x975xXc1pXf/+8t6B3sXeykqEKJVC+WZEvW0m09u/HuxLuT7Cazk0neMnnPf/KamUzeMplkk9niTXZjb7G1XlVblqwuURJJsYoCi9gpkiDRgXvv/4Fzri8aCZAAAZLnM4ORCNxycHHv+Z1fn58HwzCor6+PW9AkkqGhIfz7v/87hoaGVjyfXq+X80VjCcr5+Xn09fVhYmICOTk5ePLkydq+WBJotVp5AlOr1atOmn6/HwMDA3A6nSkpcUrZvgiCgCdPnoDnebS1tSUlSEOhEP7whz9gZmYGdXV1Sbfi3CyLQVIdbe/evfi7v/s7uRSwKIpwOp3o7u7G/Pw8fRYzRMZN4gSz2Yympib4/X643W7odLotGa1L0r5IAJZGo8GePXsgCAKePn0qa5IMw6CqqgqVlZVRD7vT6cTz58/hcrlWfHBIgFdrayuGhoawsLAgf0ZM311dXbDZbKitrYXH40FZWVnYMQKBAEZGRjAzM4P5+Xno9fp1pS8QtwDHcWhpaYHRaFy1CprX64XD4YDdbofNZlvzuWNByqtuxYAiSjiSJGF8fBw8z+O1115L2P2zsLAAr9eLy5cvY3x8HDt37sSuXbsSnp94nt90cxnLssjNzUVFRQWWlpaQk5ODhYUFzM7O4vHjx+A4DhzHwWg0brrvtpmINIlnjcD2+/14/vw5uru7MTw8jIaGhi1pIi8pKcGhQ4dQX18va8DEF8bzvJyX3dLSgrq6Otjt9iiBbbFYsH//flitVhQXF6OmpgY+n08OICMYjUYcOnQIeXl5CIVCeP78eVgpvZcvX0KtVuODDz5AbW0tSktLo851/fp1/M///A++/vprPHr0CG63G+Pj47I/K1nNQa1Wo6GhAYcPH0ZdXR0cDoccTR8PURRhs9nQ2NiY8hQKKrC3DwzDoLGxES0tLQnFK3i9XnzxxRfo7e2F3W7HkydPMDU1lZTA7uvrA8uyMJlMqfoaGwaJOzl16hTOnj0rB5319/eju7sbPT098Pl8MBqNm/L7bQYiBXbGo8QBYM+ePSgsLJT/JhHMW425uTn4/X7s3r0bFosFJ0+elM3eVqsVp0+fRmVlJbxeL2pqauIuWMg+e/fulX2vXq8XTqdT/mz//v2oqKiQS+UdOHAAGo0GAwMDePbsWZhPmGVZCIIAr9cr3xiSJKG/vx9Xr16Vo9EDgQBu3Lgh55f/+Z//OUpKSpK6BoFAAC6XC7du3cLi4uKqwppQWFhIc0Ip6yaZBjIcxyE3NxfV1dVyDnZ5eTkOHTqUkLAOBALgeT5tAZMbASnVCwDf/va3cejQIRw5cgRXrlzB8PAwLl26hIGBAeTm5qKgoAAnT56kwZtYdqGQ+dRgMKwYqBcMBuOmu0ZWtswKgV1eXo76+vqk9iGVwyRJCqvfTW4USZIgiqIcWZ0N+Hw+TE9Po6SkJCrakjwY1dXVAJYf9vn5eRiNxrgPPMMwcmnTw4cPY/fu3XIeu8ViCfPRqVQqtLS0oLKyEpIk4dmzZ2EduCYnJ/Hb3/4WPp9Pfm9hYSGqshO55g6HA8PDwzAYDLBYLFHXPxZ+vx9fffUV2tvbMTExkbQfLN2TgLJpSuS9pDy/clGzGhvdUpGyMsFgMOE4GY1Gg+PHj4NlWbkGfm5ubsIFVIaHhxEMBpGTk7Pm8WYTHMfJbWd37dqF3t5e/OxnP0N/fz/6+/uh1+vBMAxOnDixJa2jicKyLBYWFnDlyhUIgoCjR4/CbDZDr9fHTI2bmprCtWvXYoRFkJAAACAASURBVB5rfn4+7H7NCpO43W5HQUFB0r5Rl8sFj8cDlmXh9XrlBhiCIEAQBCwuLiIYDMqCLdYLWNukSrr3hEIh+TirLQyMRiNcLhd+97vfoa6uDkajMWobQRDw4sULPHr0CL/5zW/A8zyKiopWvTY6nQ4WiwUGgwF6vT7uik6r1aKurg7Pnj2D2+0GwzCw2WyYmZnBo0eP8OrVKywsLGBhYSFMeMfi2bNnGBkZwYEDBxAIBMKaBpDfgSyaGIZBb28vPv74Y7x69Srpdn5FRUWorKxMap9EMJlMyM/PB8/zCAaDcu10Mj7SWEUURdkSIUlS2LbxXpIkJRV9Ts5FhXz6IL9lIjAMI/9+kiRheHgYfr8fR48eTWj/3NzcrOjel2qIQlBZWYnS0lJ0dXXJqWB9fX3ydjabbct999XgeR42mw0FBQU4cOAA9u/fj3/7t3/DhQsXoFarUV1dLStnGo0GGo0G5eXlOHz4MI4cORL1MpvNuHv3bnb5sJeWllBUVCRP+EphQzRlj8eDQCAQ9goGgxAEAX6/H6FQCMFgUM5x9vv9stBQvqd8KSdcMgEDCNufYRj5/16vN+z8Ho8HXq9XPr8gCFFjjByvTqeDTqdDRUVFlNlfFEU8efIEFy5cwPPnzyEIghyQVVBQIAsNYNnk0t7ejqGhoYTzQQHIFgeSKjY1NQWHw4Hnz5/H1XhZlgXHcVETHTH3NDc3y0EoRNAEAgH4fD5Z+AmCgLm5OTx9+nRNmnVpaWlSqTSJQqwdym5nAMIWfkrhTe65RLU0lmVXFL6CIMj3DikNSe555fnJMYiGqGyJGkmqhD05tiiK8hiVx95Miwrl75nob/f48WNYrVa5XG1lZaU8Ga/G4uIinj59ioqKii0rtBiGQUFBAYqLizE0NAS/349gMIihoSH09fVBq9UiNzd3S3b/IpHzPp8PwWAQHMfJ1RxJwDSZE9VqNerq6rBr1y4UFBRAq9VCr9fDaDTK9xbP8zFfExMTuHXrVnYJbJVKhdLSUnAcB5VKJZtyycTlcrnkC0NeZGJbL2QyUh6bCFfy/0ihG+v8ZDJf7SUIAsxmc1jnKZZl5R//9u3bGBkZkY8dDAYxPj4Oh8OB3t5e5OfnQ61W48GDB7h69Srm5+dx6NChpL4zwzAoLi6G2+1GX18fRFGMq3WQ36axsRHT09PyWMlngiCA4zgUFhaGXQNyfZQTpUajwdzcXNK9sfPy8nDgwIG0BLbY7faEypGSezFZiOCNp4UrhbJSQCpf5HOyvdLVQwrzkIVRpHBYbaJc6RkilgRy35LxhEKhrHI1JQK5N5P5DSVJkrVEv98PlUqF/Pz8hPflOG7VDnybHWImb2xsREFBATo6OmT/7dDQEIaHh1FUVASz2bxlhDbDMDCZTJiensZHH32E+/fvo6GhAUVFRdBoNGEKJ1noNTQ0oKCgABqNBmq1WrbcrGZNGxsbCxPYWeHDVkK0VOAbTXctE+V6zk9YSZCtl1/+8pdwuVzYtWsXGhoaMDs7i6+//jos9Yrg8/ngcDjAMAzGxsbkaPJQKJTWQCyr1Yr3338fhYWFUKvVOHbsGJxOJ27evAmv14vjx4/LN6nSnx4PrVa7pubuc3NzcDgcSee+ZgNKv/h6UN6HkiTJi0fyN9lG6eZRqVRRGjERHmQBonTpxBt/rHEk852yIZ5kLc9ySUkJNBrNmvadm5vDxYsX8Td/8zdbvjIYy7Koq6tDWVkZGIbBjRs34HA4sLS0hK6uLszPz6OtrQ3l5eVbojMjMWcTwUuUkY1oHJR1ApuYmYHkJoXNhtPphNPpxK1bt3Dv3j1ZA1gJSZLCUream5vxxhtvpGV8JAq9urpannC0Wq2cSiZJElQq1YZMRoIgrOpPXytLS0vw+/2bMkgm1vOhDIiLLFtLzHTk87VUj1urfz0QCEClUmVEYBNLwVr2W20RGgufz4f79+9HBQxtdbRaLd577z20trbin/7pn/Dy5UtIkoSxsTH87Gc/w/nz53H27NlNL7C1Wi14nkdlZSX+4R/+AQBiVqNMB1lhq/H7/Xj27BlevHgBn8+H7u5u9PX1bembnQSRER/7eioHEYGWjBbgdDqjemtzHAetVhv2ipxgif9bq9WuSVjv2LFjVbMiwzBQq9Wora3FwYMHN0Vpx81ApMtiLZDfZjXBqzTVA1h1cafM+oj3WgvrtXAov0OieDwedHZ24s0331xzkaH1fu9MQO6N/Px8nDt3DjabTW6N6/f74fV64fV607b43ihIXArHcdDr9XKQ70YI7KzQsIPBIF68eAFJkrC4uIienh7k5+ejpqZm06/G4tHU1IR79+6tuXkHAHR2dsLr9WLXrl3o7OzE4cOHYbfbYTQa4xYYIdd4ZGQkqrTpzp07ceLECQDf+GlSzdzcXFSBl0jsdjtOnTolF3wZGxtLW89Zk8m0KbXrTEKeSbJAjEyBIyZwkqER+SJECn3i14+EZVmo1eq4C9J4Wr/S7L8ewbcWt5jZbMaRI0fWdD5yDYPBoFwlbTPNgwaDAd/+9rfR2toKt9uNjz/+GA6HA/fu3UNfXx9ycnLw1ltvwWw2b2gv6VRAUrMyRVYIbILb7YbX60UoFILP55PbbqpUqk3pv1wJu90Ou92edACWEkEQ0N/fj8HBQYRCIbx48QIsy+L06dM4depUzH2CwSAuXbqEzs7OqMkxGAzCYrGktSf04uLiqj2xSSCbwWCAJEn4zne+s6kmrK2MKIphvx/LsmEWEBJgR1BqiUrzcuR+AOSodxIFT+orkOPF8yXzPB9Te0/EzZSNRAYYbsYiUjqdDrW1tZAkCY2NjRgcHMQ///M/Y3h4GCMjI+jq6sKxY8fQ1ta2aYQ2z/MZD57Liihxgsfjgc/nA8uy8Hg8GBsbw+joKObm5uSKXVsFUgxF2QhkrUTmDANAaWmp/CCQlLSvv/4aL168wIsXL2JquSS9zmq1ylGuhMi8c2V0czKm8cHBwVWblvj9fszNzcHlcuHly5dYWlqCzWZbVw3zWDAMg5ycnJj58JTEUGYBJJPjHLmfsi4C8I2/naTPKKPoI1GmwK1lLOmA53lUVVUBiI41iJzwIwMAlfnfLMuuqGFHFvWJR7xrt9pxE90+HuS72O12lJaWwmq1YnZ2FouLi5icnITP50u6tS3J6tnodDFiAt/IOIysjhKXJAnV1dXIycnB48eP4fV6w4qebDbT0EqkM2LW4XBgampK9hUHAgFcv34dX3/99YqmQVJ6tL29HVVVVTh58qT8mSiKuHXrVpSwzc/PR1tbW0LjSjTaVpIkTExMyNYHnU6HYDCIffv2JXSeRLHZbGuKWqekn1j3CtHIs11r1ul0UebwQCAgF9KJXOCSOg/K70uEkTLFFQgXmMqguNUWzZHWhlgWDuVxgW+uM5mDExGq8RYQHMfhwIED2LNnDyorK/Gv//qv8Pl8uHHjBliWRVtbm3xtSIGieAF/7e3t6O/vx/vvvy+7syIzIrYqWSWwNRoNCgsLUVpaCo1Gg66uLpSXl8uVv1paWrZ8ikQqCQQCmJqags/nw+Dg4Kp+PBLRCSw/4Hv37oXZbIbf78fdu3fx5Zdfyil3hNXM20ocDgfa29uT/h5erxfz8/NJ77caWq2W+q83EamqvbBRKH35RPhEFp8h20Wi3J5Agro4jpOFNVkIJCKslOeJJ+hJymCscfn9fvn88Y4fCATCrCOR49JoNDh9+jR4nseFCxfg8/lw584dPH78GDqdDu+++y5aW1tx//59PHv2LOZ53G43nj9/jv7+fvn4f/Znf4adO3em3AqnJBsKwGSVwC4oKEBhYaHcJYbU4JUkSa6RvZUwmUzIzc3F7OxsSo8rSRL6+vowNjaG9vZ2uShLMjgcDly4cAFnzpxBV1cX7t69GyWsCUptiFgOYv1WpBJdNqBSqTLuj6Ikx2YS1sDygjlWZbVkc9iV/ycNRYiLKpm69pHEyhZY6Tgk8j9SKBJBpjweqd4VC4ZhcPjwYTQ3N8PlcuHSpUvw+XzycQoLC/Gtb30Lr7/+esz9Q6EQbt68ic7OTty7dw/BYBCXL19GaWkp7HZ7MpdgRciCi2TPZENHsqwS2KSUG/k/icZramrK5LDSRk5ODlpbW3H79m0sLi6m7LiSJOHRo0frOkYoFJJrBL98+TKusAaWmxx0dHRAkiTk5+fj8OHDaRGEiWoSiUDKJlKBTUkHa81zXw0iNFNFsoI+1vnJAj2y6NRq4yQR1x9++KGcCUCOpVKpoNfrASDKPM5xHN555x3s2LEDT548QTAYxNTUFDo6OuIG264FkmJ84sQJGI3GtGrviZJVQWc2mw1lZWVbupSfEoZhoNfrYbFYMD4+npYHfL3Mz8+vWDzC6/ViYGAAz58/x9jYGEZGRmCxWGJG9RsMBgiCgMnJyaQLUrjdbuTl5YWVdF0PKpUKubm5WyougkLJBGvNF49Vu5/M/cQyQawUylK9ZHEwNTWFmzdvylX/SF+DVMHzPEpKSpCTk5MRV6wgCOju7sbDhw+zM+hsO8IwDIxG46ZdpJAa6wSfzxc3z1qn08k9wO/cuZOUeZxkEKQKj8eD8fFxlJeXU4FNoWQBpDpfvKY2BKXZPZ0Qga10O2xk5sHi4iIuXLgQds7NKSW2GGq1GsXFxZtWaCeDTqfD0aNHk9KUTSYT9uzZA5vNlrJxrLXsJIVCSS+JaOterxcPHz6MinxPNco2mBupZfv9fty7dw9zc3Nh71MNOwvQaDSoqqrC8PBwRnNH14Oy9ORKvh6Sl0ny0BPBZrPh2LFjKY/oXim3l0KhZC9LS0u4ePGibKWz2+1oaWlJ2fEZhoHBYJDb2a61Hv1aWVpawqVLl+B2u8PepwKbsm70ej3a2tpQWVkJAKuW7tNoNHjzzTdx5coVvHr1Ci6XayOGGQbLsvB6vVhcXEyp5k6hUDae0tJSlJWVpex4JPAt1UF+iXLhwoWYRbWyyga7tLSEoaGhpHJ7two6nU5OY8tWSMqW3W5HYWGhXOQgLy9PTqmw2+2rCmyWZbFjxw784Ac/wM6dO1c8n1arRWlpacrMXQzDwGq1orS0FA0NDWktw0qhUFIPcWcR6xjLsjhz5kzKKxZmKrZlYmICAwMDMYOQs0rDnp2dhdPpxKlTpzJaYD0TmM1m7NixA5OTk5keSlz27dsnC2aNRhNWBz1ZgcpxHIxG44qduKqrq1FbW4va2tqUdOzS6/UoKiqCzWbbdvcXhbJVEAQBt2/flou0HDp0CEVFRSn1YW+0z1pJd3c3ent7Y36WVQJ7OzM/Px/V7jKbIAUNampqACynaFVUVKTtfGq1GpWVlWhsbEzJ8RiGgdlsRmFhIY0Kp1A2MQsLC3j06BGCwSDMZjP27duXUu1ao9HAZDJlJAjY7/djYWEh7udUYGcJgUBg1baTmUSSJNy4cQN3796FyWTC66+/ntb2pzt27EBdXV3Kjk8i8eO1YqRQKJuDO3fu4Pnz5wCWWwKnch5iGEbWrjMxT4yMjODTTz+Nm8FCBXaWoNfrkZ+fL9fyzkZIcJharcbU1BRmZmbkz1QqFXbu3Jl0q7yysjKYzeaoSm9qtTqlbQVJswMqrCmUzY3b7ZYDwbRabUrnCdLWNxPzhMfjQXt7O5xOZ9xtqMDOEoxGI1pbWxEKhTA1NZXp4azI5OQk/vjHP4a9x/M8nj59Gjf1ymQyoa2tLSqdq6mpCWq1Gp999hmCwSC8Xi8EQcDIyAgGBgZQW1ubkjGLooiZmRlZy6ZQKJuPrq4u3L59GwBQWFiI1tbWlJ8jU/PDH/7wB3z22WcrbkMFdpZAKp6R+rmbjVAohMHBwZifMQyD8vLymDnmPM+jrq4OP/7xjxEIBHDhwgU4HA4sLi7KZVEXFxfliFCLxZJQMAgxbZG87/Ly8qS1fwqFkl3MzMzIVkiDwYCCgoIMj2j9SJKExcVF9Pb2wuPxrLht1glsURQxNzeH3NzcrCi2vtFsJe1Pq9XCbrfLkf/xtG+O45Cbmwu/3x+2zezsLLq6uuSKRizL4uDBgygsLJQf1HjXy2azoaKiQtboeZ7fFpXkKJStSmTN8lTPlSqVKqmCTqlCkiRcunQJPT09q26bdRJREAT09PSgoqJi2wlsoolOTExsiVx0nudRX18Pq9WakCma53kcPHgQo6OjcLvd6OnpibqJr127BrvdjjNnzqC8vDzusYqKilKel0mhUDLH7Ows7t69C1EUodfrcezYsZQKWKPRmJF0z5GRkRXbFyuhKkcWIUkSnE5nVnbtShaTyQSNRgNRFLF///6ECpRwHIeGhgacPXt2xTKk8/PzGB4ejnmdTCYTdu7cSYU1hbLFcDqd6OnpgSRJ0Gq12LVrV0rqMwDIWNe+YDCI/v5+vHjxIqHtt5cKuwlYWFjY0Jq1qUan06GkpASHDh1CYWFh0gUIGIZBZWUlCgoKMDIyEnMbSZLQ1dWFmpoaFBUVyQ8ay7Iwm81ZXzGOQqEkR2TN/1QLV71enxFz+OzsLC5evJjw9lTDpqSUsrIy/OhHP8KuXbuQm5sLk8mU9MOVn5+PtrY2FBcXx93G6/XixYsXYWYkjUaDkpKSNY+dQqFkJ6IooqOjQ65ulqrqhwzDQKfTQaPRZCTGJRQKrZjGFUlWatikM4okSVsqCGs1GIZBVVUVpqamVo0WzBRGoxEHDhyA2WyGWq3G7OwsvvzySwDLq9TW1taU/GZlZWV4//334XA4wvw7oijC6/VCkiT09/dj165dKe/iRaFQsodQKITLly/jd7/7Hfx+P5qbm/H222+vW2CzLCtn5mSTnOF5Xs4tD4VC8Pl833yWqUGthN/vR29vLw4ePJhVFzLdMAyDvLw8mM1mWShlGz6fD729vWhpaUFlZSVycnLw5MkTAN/UQ0/Fb8ayLEpLS+VyqKTyz9zcHK5cuYLZ2VmEQiE5snwzuxEoFEp8RFFEb2+vXAmyuLgYdrt93cfV6/XQ6/UZyx4RRRFOpzMq3bWmpganT58Gy7JwOBy4ePGivE1WCmxRFKP6gG4XeJ5Ha2srHj16FNZcI1sIhUKYmJjA5cuX8eTJE3z3u9/F3/7t3wL4xryUSnieR1FRkfx3UVERVCoV7t+/j2AwiKdPn2L37t3QarWyuYxCoVBWg3QbzBRutxsfffRRVO1wvV6PkpIScBwXVQEyKwX2doa0f2xtbcXLly8xNDSE+fn5TA8rikAggNnZWdy6dUsO2GhtbU37A8BxHOrr61FbWwuv14uenh7cunULZ86cQXV19bayyFAo24G+vj44HI5MDyPlSJIEj8eTlCU1awW2IAgIhUIZidzLNERoW61W2Gw23L17Nyt92j6fDw8ePACwvCqsqKiA0WhMu9BmWRYsy8JkMuHgwYO4e/cuBgYGUFpauu1y9ymUrc7g4CBGR0czPYyUQ6pbsiwbswpkLLLWfvjq1SsMDQ1lehgZx2azwWq1ZnoYMcnNzUV+fj6A5ajtK1eubKgrY3p6GiMjI5ifn8dnn32W1b3EKRTK2rBarTCZTJkeRsrR6/X44IMPEqpRQchadYQEFG13dDodmpqaMDk5mfAqbKPYuXMndu3ahfb2dgDLY90IDVcURYyOjuKTTz7B7OwsJEmCRqPBgwcPkJOTk5FqRRQKJT0cPXoUjx49ws2bNzM9lJTCcRzsdntSdSqyVmBTlmEYRo6+TrQazkagUqngcDjQ2tqKt956C8DyWFczhwcCAYRCIWi12jWbziVJwuDgIObn52X/j9/vx7Vr13DgwAGUlpbG9Qut1cediJ+J+s8plPSQjmcr08+r1+vFtWvXkrJKZq1JnPINer0eBQUFGb/BCCqVCkeOHME777wDi8UCnufB8/yqTd+DwSAePHiAX//615iYmFhz2hrLsmhubo7q1DM9PY1Lly5BkiSIogi/3w+fzwefzxfXWkMaCihfsT4n+ZDKl9/vl9/PNusHhUKJj0ajyXj9hmAwiMePH4flWa8G1bA3CQaDATqdLqPBZyzLory8HHV1dTh58mRS9XcDgQBu3bqF69evIxAIYHFxEWfOnIFGo0FpaWlSbUUZhoHdbseOHTswPT0t52AHAgGMjY3FXLEyDANBEORFhSRJEARBLtIjiqLcklNp1pckCX6/X84Dj4TUMw+FQmAYJkxwK88liqK8GCBBc6tBxpTphRr5TjRljpIJpqen8erVKwDL/mwSN7NWyHO+Ge9nKrA3CQUFBcjPz89oIN6ePXvwxhtvwGw2r+h36e/vDxvnjh07MDExgRs3bsgVy6ampvDxxx+D53k0NjZix44d2Lt3b1LViw4cOIDu7u6E0t4kSUIgEJDHTbTmyG1CoVDYQoRhGKhUqrgCm0Aq85FFAOnDTQiFQrLA5nkearU6piAOhUKygBRFESzLQq1WQxCEhFwOZMzxrsFq2ymrDCrfI+OgUDYSQRDw8OFD9Pb2QqVSoaGhAXv37l3XMXmeT0pBSBcajQbHjx/HzMxMmCI2Pj6O8fFxlJWVRe1DBfYmIVPdZAgMw6C6uho2m21VoTE4OIgbN27If+fl5cHlcsmmH2Vvar/fj0ePHsHlcqGpqSkpgc3zfNQ1EQQBXq8XarU6alEhiuKqpmsiWInAZVk24SpqygUAEXwrnSMWSk2cfB8yboZh5GIP8Tq6cRwX9xoKgiD3FVepVHEFtnLRQFCr1duuVDAl84yOjuL27dsAgPfffx9VVVUpqyGe6XtZo9Hg8OHDuHjxYpjAnp6exuzsLBXYmx2j0Qie5zPSflOSJHz11VdyudB4eL1euYQgYWZmRv6/zWbD66+/Lt+MT548wcuXL9HW1pa0T4lUQRNFUa4W1Nvbi3/8x3/Ej3/8YzQ0NCR1PIJSKBKNOdWsprHH2paY1omZPd628e4P4o8ni4B4GjPHcVECOxgMyouYTE90lO2BIAjo6+vD6OgoGIZBXV3dig2BEiXbazWUl5fHbWKU1SN/9eoVHA4HioqK5GLo2xmbzQa1Wp2xftlLS0srntvv9+Prr79GZ2dn3G2am5vR3Nwsa7+nT5+GIAjQaDRJCwKTyYTvfve7ePDgAT7//HN5DOPj43jw4AE8Hg/279+f1DGBZeHEcVzW9iVfbQGRSAAcsUQkc85AICBr2Zku60jZ2gSDQdy/fx+/+tWvYLfbUVVVlRIzNsdxMBgMKRjh+gkEAujs7IwKOhsdHcXY2FhMX31WC+zR0VG8evUKp0+fpgIbwNjYWFZWPAOAx48f48WLF+js7JQFXW5uLsrKytDX1weNRoODBw+iuro6zFStUqnWbOJiWRZarVZOEVMKqitXrmBkZGRNAjuWf5vyjdAGsGmDdiibA5/Ph0uXLsHpdKKlpQXvv/9+Su43rVabFVYiYrH89a9/HRYka7fbceTIkbiWhKwW2MCyJuB2u6HX69ekhW0lMpk6pNFoYLPZ4gabjY+PY3BwUO6Ao9fr8cYbb6CkpASHDh0Cx3EoLi5OyyRfX18flacuimJSZmfK5oCY9TfSB6m0aGzn+WejIL8xme+IRScVZMtC0+v14uHDh1G9sM1mM44fPx53v6wX2H6/Hzdv3kRFRQUOHz6csh9uM2I2m6FSqTLSSnLXrl1499134/p/zp07hzfeeEP+Wxm0le6ygiaTKaa5zOPxYGxsDMXFxXSiTTGiKCZkhYiXwhaZ6kYgkfAkDS9WXrzf74dKpZLnAuU+qSIyQDEUCkGlUoFlWXkhmI7zRqK8TqvVOdgqhEIheL3eLV3b4P79+3j48GHYezzPIy8vb8X9sl5gA98E0oiiuK0Fdk1NDUZHRzE3N7eh57VaraitrY0bpEQmMDKhZYJY98X4+Dj+67/+C3/5l38ZM+KSsnaCwWBCC0eO4+TfhmVZOTYgXnCcMrAtVrR6rPNHBsNF+tcjo/LJtiSAj2yjZKUFCXmfYRio1eqwRWwyAnWlNDvyGakMKEmSvEhRLlSSPW6iY9rohUHkmAcGBjA7OwubzYbKysqUnCNW5shGI0kSpqam0N7eHmYBZFkWe/fuxalTp1bcf1MIbACYnZ3F5OTktp54MxXok5OTs2LE9YsXL9DR0YEzZ87AZrNt4Mi+obW1FcPDw2G9ZUVRlKNMt/N9k0kEQYjSSFdyVayUDpfoPpFab6xUObIfGVci7pNYeftEoBLhnYygC4VCct5/5GKYpOApxxUMBuUOhqtFOgcCAYiiCJVKlVRUNMki2Gg/L7kWZAzPnj3D9PQ06urqUF9fv+7jq1QquSpjJllYWMAvfvEL3LlzJ+z9PXv24OzZs7BYLCvun/UCm2EYFBQU4MCBA9u+qQPDMDAYDJibm0uLuchgMMBut+Ps2bNYWFjA3bt3ASwHj6308M7Pz6Ovrw9Hjx5N+ZgSpbu7OyqdjJJdEGGQblZ7NlI5BuV3Ui5MYglv8rff7w9bRCgFf+SxY53P7/cjGAzK5yALFGI+J4IdWL4WgUAgbDzE/x+p0YdCITl9j2XZsMwAAHHz99frFiDXkFy/9vZ2Ofc6FXAcB4vFkpL87fUyOjqK3t7esHtUp9OhpqYmoa5dWS+wNRoNdu3albUtJjcSlUqFpqYmuTIOeUjWkydcVlYm51WXlZWhoaEBer0eoijKK1ue51e82fPy8tDc3JzRBVVOTg60Wi28Xi9qa2tRVFQkfxZZc5xCSQdKAezz+aKEGMdxMRctiRT0iYTUyifHJbnzkeZ/EsClrKVPqvfFGj8R+iTVKFYRn0giy/kmOn5yHZTuB5fLhcePH2NpaSllMQKJVghMJ6IoYnBwEL/4xS/CKjPqdDocO3YMu3btSug4WS+wyWqVEr1y37t3L3Q6XZR5JVHKy8vx1ltvoby8POqzlSpmRVJZWZkyP9NaYBgGBw8ehE6nA8Mw2LNnD3bs2JGx8VAoQPRCOtWpguT4SnNyImOJFOCrbb/a+8rI/dUg+wuCEHMM8/PzuHnzHzteYQAAIABJREFUJjiOw4EDB1BfX79uzVjZGTBTPvqRkRH89Kc/xcDAgPyeSqXC8ePHcfTo0YSLRmW9wKaEQ3KPJUnCvn37YDab0dnZCZfLJW+j0+lW1XatViveeuutlFQOygZUKhUOHDiAnJycrDB9USjbBaUZPV66HRGUxGQfyy0hiiIWFxflbb1eL/bs2bOu55njOOh0Ollgk1iHSNN+OgV5MBhEb28vent7w963WCzYvXt3UjVGqMDeZOh0Ouzfvx8mkwmVlZVgWRbvvvsu7t27Jz8Eu3fvRlNT04rH4TguKwrgpxJBEDA7Owuj0QiTyZRxMxiFsh1QmudJm91YkMyAeNq7x+PBp59+CkEQoNPp0Nrauu7Ft9FoDOuiF5lmqPT7Kz9LtKPeShBXx8TEhFyJUcnRo0dht9uTOmbWC+xYPYq3MyzLoqqqCqWlpbLfaOfOnaipqZG3Wc3nvJUhq3SNRkOr41EoGwSZoxNN94u1fygUki2FpIToeoQm2ZdU5yMZCiTKnpxTGVhHIAuP1XzzkS1wlRq6IAjw+Xxob2+X24MScnNzUVJSknSaWdYL7GAwiIGBAeTm5mZ6KFkDz/NhNxIx+1C+gUThbodCExTKZkcURdy5cwezs7MAlq2EKzUZSgQS5Kc0xwPLApwU5Vmpzz15rTSHKDV3IuDJ9qRc8hdffBFWfhRYjh+KFTu0GlkvsAVBwPT0dKaHkTXwPJ+0GWU7srS0lFC+KoVCyTySJGFoaEgWbMXFxQmlOa31XIkGACaaAkgi3UVRlOeceFH1wLJ/fnJyMumYGzqbUbYkoVAIfr+fCmwKZRMwNjYmt+G12+2rluhMhExUNVPmwK/kzn3+/DlmZmZw8uRJ7NmzJ+EocRqVs8lQBnhQ4iOKYljkPIVCyV4ePHiA/v5+AEB1dTUaGxvXdbxE/M/pIpG4q2AwiNnZWVy8eBGPHz9O+NhU/dhEkEpnJJhhu3cvWw1lpzd6nSiU7OTFixe4f/8+gGXt+syZM+vWjjeym1s8lpaW8Pnnn4e5dAsLC3Hy5Eno9XoEAgHcvHkT169fB8MwaG5uXlXTpgJ7k0CqExF/h9vthiRJq64iSXpCpm/eTEBy1ikUSvaytLQkm8M1Gs262/BmQ7Etr9eLq1ev4sqVK3LVOKvVivPnz6OmpkauTGc2m/H555/j8uXLsNvtqK2tXfG4VGBnIbFqEatUqjDhI0lSVORhLFQqFQwGw7b05ZKmEIn6hygUytYg00rK6OgoLl68KAtrhmHQ0tKC2trasFzv8vJynDhxAh999BGeP3+OkpKSFetjbL9ZPIuIvKGIUCbadKwbLtmbMBgMwuVywWAwyP10t4u2HQqFMDc3B7vdTjVtCmWbkGzXtHRACrIoibWIYBgGpaWl2LNnDzo6OrCwsCCbxysqKqLzw9M+ckpMiOar/AFJLl+qCYVCWFpagkqlkuttA9lRFD/dKLsAUSiUrQ9RTDYLFosFbW1tcLlcmJmZwdWrVzE5OQmj0YiqqqqwbanA3kCUWjMxU2/UjUWiy5VViFQqFfR6fcabuieKcrUZed1W+oxCoWwOtsKzGwgEMDQ0lLCiwDAMLBYLLBYLCgoKsGPHDrS3t8PhcODevXthmjoV2BuETqeT69pmEuWP7/f7N1VNcVINiRTNVxIMBvHw4UPodDrs27cvQyOkUChrRa1Wo7m5edMoEPFYXFzEp59+KpdEBYD8/PwobTkWPM/DarXizJkz8Pv9+NOf/oT79+/LCgkV2Ckgll+YYRjo9XrZb5GtQV9+vz9rKoJJkiTnTlssFjAMg7GxMVy/fh1+v1+uhqTVatHe3g6DwYBDhw7BYDDA6/Xi3r178Pl80Ov1ci9vCoWSvZBoakEQkJubi3379q1LqVGpVBl385nNZrzzzjv4zW9+IwvtvLw8VFRUJHUctVqN2tpaPHjwgArs9RAIBOB0OsGyLHJycqDVauVgMSWbwZeyUvm8jYLnebAsi1AohL6+PgiCgHPnzkGlUuHXv/41Ojo6wkzefr8fTqcTHMdhaGhITpFYWFiAIAgYHBxEeXk5ra9OoWQ5oVAIo6OjAIDjx48jPz9/zXOmy+UCy7IoKChI5RCTQhRFzMzMhLk/VSoVbDZb0t8rliJIBfYaEAQBo6OjUKlUKCkpgclkyvSQso5AIIDBwUF4vV6UlZXFLDXI8zw0Gg1MJpOcX/7+++/Ln4dCIVRWVkKr1UIURQwMDMjNAYDl3yGyCw4A3Lx5EwDk5gEtLS0wGAwp/X4UCmX9qFQqVFdXw+l0hs0Da2F2dhZ+vz+jAlsQBPz85z/Hs2fP5Pdyc3Nx9OjRlBw/6wW2SqUKax2ZCSL9vDk5OSgpKdnUUdakqEg6ItN9Ph9u376NO3fuwOv14s0334TRaAyrOMZxHKxW64o50hzH4e2335ZTJPr6+sIE9vXr1zE+Pi7nOiq5deuWfC6z2QybzRbWyJ5CoWQetVqN1tZWPH36dF3HmZmZgd/vx/79+1M0srXBsiwOHDiA58+fw+/3y21+U2VpzXqBzfP8utusrRXifzYajVuu+IZSYK8H0pReaX7u6elBR0cHOI6D0WjEs2fP4HQ68eGHH8rXkWXZVaPkI33/e/bsCfu8trYWDx8+xO9+97sos77y788++wxPnjzBD37wA+Tm5ma9m4JC2Q6IoohXr17h6tWrYFl2Xdr106dPsW/fvowHrEmShOHhYYRCIXAch3PnzqGmpiZlFr6sF9iZQqfTyVo11cri4/F4MDU1hePHj8uC8MyZM1EmICK8U3ktdTod2tvbV/XBT09PY3Z2Fnq9Hn/1V3+VFQF2FMp2x+v14pe//CXGx8fx1ltvoampKeljiKKIiYkJHDt2DLm5uWkYZXJIkoTp6WkIgiBHfBcVFaWsFgSduSJgGEYW1ltZUAuCgEAgIGu8sfKalV1nlFV6SP42y7IoKipCfX192OdGoxFGozHt30Gn06GhoQHDw8OrCm1RFLG0tARBEOT66hQKJXN0dnbC4XCgvLwcR44cWbMV0+Vyobi4OOPatSiK6OrqwtTUFACgqqpKjsHxeDyrdvBKhG03a0mShEAgILeoJJM3y7JQq9UwmUxbXlgDy9fB4/HA5XLJqz9JkuD1erG0tISlpSV0d3fj4sWLePToEQDAZDIhJycHNpsNZrMZRqMRPM9nLBreYDCgqakp4d9qaGgI//Ef/4EXL16keWQUCmU1+vr64Ha7cfTo0TU36wiFQmhqaoLFYknx6JKnp6cH//u//4vZ2Vnk5ubi/PnzKCgoQCAQSImwBraZhs1xHCRJwosXL+Dz+dDS0hLme93qna1Ylg3TREVRRCAQgMFggEqlQigUQmdnJ8bGxsAwDOrq6vCtb30LGo0GNpstK3Ic18PCwgIePHiAgwcPZnooFMq2xu12w+Vyged5lJeXr3leGR4ehtlsXrXLVbrx+/0YGBjA2NgYWJZFSUkJcnNzEQgEUloaeUsIbJfLhWAwCJ/PB6/XC7vdDrvdHiacNBoNVCoVxsbGsHPnTpjNZgBboxTeagiCgLGxMQiCgGAwiOrqatnfwzAM8vPz5eYYyrQqZc3xbMVms6GyshIDAwOZHgqFQkkAl8uFTz75BO3t7WhsbFyzKXxpaQkWiwXV1dUpHmHyvHz5EpcvXwawbIlsa2sDz/MxM1jWw6YW2IIg4MWLF3j58iVEUUQwGATHcSgsLITJZEIoFJK31Wg0CAQCcDgc6OnpwenTp7dU/jRpJSmKoiyEDQYDgsEg3G43bDYbfD6fvPpT5ioqE/SzWTjHoqysDD/84Q/x9OlTfP3115ienl7V/BQIBCCK4qa2FlAom5WZmRl88cUXaG5uxnvvvbfuCOpMz1miKMpVFlmWRUtLi+xWTZUpnJD1Apv4nAmRwsVqtaKnpwdVVVWoqamBRqNBbm4uOI6LWrnxPI/i4mLcuXMHPp9v0wls4mMWRRFqtTrM7xMMBvHkyRO5Ats777yDgoICOe1K2Yd1K8GyLKqqqlBeXo6ysjL8z//8jxz0EQtBEHDjxg00NjYiJydnA0dKoVCA5XlMEIQwS99asFqtKC4uTuHI1oYkSejs7EQgEADP87JPXZIk+P3+rWcS53keFoslZtUqn8+HBw8e4LXXXkNeXh70en1YWk5OTg6qq6vB83xC6ToNDQ2oqalZc5BDplhaWsLk5CTu37+P+fl5NDU14dSpU7Jpn2VZfPDBB3JJPLJY4Tgu49GTGwHP89i/fz90Oh0uXLgAh8Mh1yWPZHR0FIODg7Db7RlfnVMolK0FqR8RqWymgowI7MjALqPRiOPHj2Nqako2ISwsLKCvrw8A4HQ68fz5c+zYsSNmsQ3if02ERAV7NkEqqmk0Ghw+fBiSJIHjOOTn56OoqEjebisHzCUCy7JoaGhAZWUlrl+/jj/+8Y9wOp1R27lcLly+fFnuDLQdFjQUSrZgtVrx9ttvJ90MgyBJEtxuN4aGhtDa2rrplK/1sOGSi2VZ7N27N6x6mUqlQmlpaVgJ0qGhIfT398sCXBCEmMXQtzoqlQp5eXlRpT0psSFlZE+fPg2GYfCb3/wmrAc4sPzAj42N4ac//SmOHDmCPXv2bEl3AYWSjdjtdnzwwQfwer1rMhcLgoCOjg4UFhZmfD5Uxg4By/NPOueSDRXYPM+jsbERR48eTUor3spIkgSn0ykLFbvdHhaEUVBQAKvVSgVKkuh0Opw+fRo+nw+///3voyaGpaUl3Lp1CyMjI7DZbGte7VMolOQhKbRrEdgcx2Hfvn1yrFImCYVC+MMf/oDp6WkAwMGDB1FeXi5/nup5e0OlgM1mw5EjR1YU1oIgYGhoCCMjI2HvLy4uYmFhId1D3HB0Oh0WFhbw8uVLjI+PyzmF5GWz2aiwXiNarRaNjY0rBrbMzMzg6dOnKQ0MoVAo6YNhGNjt9owLa2A5Qnx2dlZWuMxmc5h802g0KZ2/N1TDdrvdcDgcaGpqinuxg8Eg7t+/j5cvX4aFxAcCAbjdbpjN5rBeo/GO8fz5c7mzU3FxMcrKylbdbyMgZv2cnByoVCoYDAbU1dWFfU4FdOqoq6tDXV1d3HQvn8+Ha9eu4fz581kxAVAo2wWe5xEKhZJOfRoaGkJ+fn7GmkIpef78uaxcVlRUoL6+Xv4sHamyGyqwPR4Pbt++DYvFEtcEyTBMzCACr9eLe/fuQavV4uzZs2EVypQIgoDe3l7cunULbrcbwPKqp6ioCK+//nrc/dKJsna1xWKB1WqFwWCgAmIDYBgGp06dwujoKIaHh2NODoIgwO12Z8WCjkLZLhB/bzLWrUAgAKPRmBX97YPBIHp6ejA2NgaO41BTUxOzFbRarYbP59uctcTdbjfGxsbihrur1Wq89tprKCkpCXvf4/FgbGwMXq93xeNPTk7i9u3bsrAGls3p4+PjG2721Ol0MBgMKCkpQUNDAxoaGlBSUgKz2UyF9QZA8iDLy8vxF3/xF9ixY0fM7ZxOJ/7zP/9zxfxtCoWSWtZStnNkZAQzMzNZUUNjcHAQX331FYBlK+6pU6dibpdKJSAjtteOjg7Mz8/H/IwUQ9m3b1/UF1Wr1Thw4MCKPnC9Xo+Ghoaw0pvFxcVoampaV7/VROF5HmazGVarFeXl5aisrITNZpPTyUj1G1I8IBAIRL1EUYQkSQiFQvL/NwJlh66NOme6IDmQgUAAwWAQeXl5+O53vxsWEKLctqurC48fP87ASJNjq/w+FEoy9zAJzuU4Dnv37k3jqBLD5/Ph0aNHsmLY2NgYpfWT+X2t2rWyngYhIwnJyjD4WMQziwPLQnulFYvNZsOJEydQVVWFP/3pTzCZTDhz5kxYKc50wbIscnJyYDAY5DGS8qjKix8MBiEIAkRRjLnCJLnmpBWkVqvdMFMt+W3WWt83WyDpFgSWZVFZWYm6urqogEbgm4cr2yENW3ie35AFKIWSDYiiiPv376OhoSEr8q49Hg+uX7+OQCAAhmFiKpKhUGjNtcQZhpE7Iirn/owIbFEUsbi4iPz8fHAch4WFBQiCEFZ5qqioCIcOHYLD4QCwnN60e/du2O32VY/PMAxKS0tx7tw5vHr1Cvn5+Sn/DpIkweVywW63Iz8/Xx638mZS1jJX/r1a72blfqIowuPxyH8zDCMLcGWv6tWOqdw/MqhNkiRZkyeLCUmSor5LKBSCWq2WzfnKVSM5piRJ8rWINSZyfnLOZMdPto+3gCGadbxFocVigU6ni+lauXHjBurr69HQ0JDwWNIN+U3IYoJo16FQCH6/HzzPQ6PRpGVBR861HesfUNKPWq2WFZfV4Hkex48fR25ubsbvRY/Hg//7v/+Dz+cDz/Noa2tDXl5eSs+hnOeVZERgh0Ih2c+s1WrR3d0NlmXx7rvvylXINBoNDhw4IJs/kpmYyDZlZWUoLi5O+Q9M6pTPzs7CaDQmPK5khNJK+/l8vjANnOO4qOIg8Yis9EaEJVkJEiEcDAbDFg7kfVLgnpyfQFpvhkIhaDQaiKIIv98fZQoi5yeaIrE8xNo2FsT6stL1Jq6EWBw5ckSODI9c/c7NzeHx48coLy+HXq8P+yzWxKIskkCEKClLmAqUgjny2iiFaaqI/I5ksaDRaDLW85yydUmmMqNGo4nSNjOFKIpy1gnJ+Em11q9Wq2NmC224wCYXfH5+Hl9++SWA5XzZ/fv3Rw0wssFFsqS67KROp5PbdJpMprCyoBuJUlAKgpBU4EYwGAwT7hzHxfWTx3sv1vmU5mQiTGIJzcjzR1YKWg1JktbVsk6v1+PMmTOy0I4c26VLlyAIAkwmE3bv3o2qqip58RFpMVH2Byffg2GYKFM1EeJKN0m8ikjk2gWDwbB/Y0GOJwiCvEggzV54npcXdIkuIJSavJJAIJCR7AoKBfhmHs8GYZ1unE4nXr16hUOHDsV8bjdUYFutVpw4cQJqtRputxuPHj2C1+tFS0tLVpeHJELfZDJlRXRiKklH5Hyyx4wUhOlGp9Nh//79UQKbjOXixYsAlheSRGDHGmMsqwaJTI+E3ENqtVq2XhAhqAwiI/snck3Itko3BdHIGYaRTebxnqvIPFGVShWmZdPANko6STR4Mtvq/ft8Pvn5JApcLFQqlawQJRp4ZjQaYbFY4sYQbajA1mg0KCsrg06ngyiKqKiogCRJ0Gq1WRdAQzQljuNgs9nCtCkKJVnIIob4zpX5p5Hug2QFZTAYlM2LREMmx4t0bSjheV62YJFaAcpFhM/nk+MZSP/w7aDlUDYGkhGzGtl2z92+fRvDw8MAgP3792Pnzp0xt0u2/Cpp6LRSwO+GCWxl8RDyt9Fo3KjTy7x69QqTk5MAllczOp0OTqcTFRUVYZOXxWKBxWKR/862m4ayPoxGI6qqqjA0NBR30hgeHobT6UxLkQZlMOF6NdlYbgLlMeMdnwjzWFkZSleLIAjweDxhi1alSZ88G8rzZPp5yaaxUGJD5tWV7n+O47JKmSPPbSgUgtlsRmVl5apuW4ZhwHFcQlaz1e7VDRPYLS0tKCsrS4lzPpYfNXJBEG+foaEhXL9+HcA3AhtY7pOdk5MjH0un01GNeguTl5eHH/7wh/j444/R3d0dc9J48OABDh8+jOrq6rSMIRtMzsQsuVpcQGRvX+Ib12g08vdQppwl6jdXTtipEqzkOxGXgDJ+YKVrnmrBThcNK6NSqeSslJXIpmvX39+Pjo4OAMuZTLt37151H5ZloVKpUuL62zCBXV5eHrfS1OLiIkRRhMViWfHHcblc8Pl8ePXqFR4/fhx2Afbu3StfPBJur4z09fl8uH//Pubm5qKCxc6fP4+SkpKsWslR0k9BQQHeffddLCwsYGxsLOpzUti/vLycLt4iIMKZBLzxPC+b0EOhUNj1IiVfIwPaiPYkiuKKuf/xAhhjpSiScZFMgVAoBK1WG7ZdrKh7MpZUWtMEQZDjGUgTCHofhUOyVLJh8ZoIbrcbS0tLaTl2IoF1GyawV0pDefDgAZaWlvD222+HBRdEbjs1NYV79+7B6XTK5kSdTofq6mrZbMlxHHw+HywWS1hxeEmSkJOTE/PGMJlMVFhvU6xWa9zKeYFAQC6+U1NTk1WBL9kCMZ0HAoEwH7xSa4oXxCYIghy4R4RZrEkrXgEKlmWjLHahUCgqC2Eld0HkWFYKIiL+/NUgC4lQKBQWu6DU9rdL1PNqkOvt8/liLsqy7ZlrampCS0sLrl+/jh07diQ8PnJ/x/qO5J4yGAyrWqY2TGAPDw+jqKgo5uTo8XgwPT2Nhw8fguM4qNVqNDY2Rj2MTU1N6OrqwsTEBIDloJmTJ0+ira0NS0tLcvpJPI0okaIrlO2FWq3G7t274XA4oh4mSZIwMTGBixcv4ic/+QlNbVqBlQRZIp8JggCv1xsV3LmSKZvss56xRW7n9/shimJMYapclKwG6USlPDZJaWRZNiuaV2QaUpCHmIwjsysSqbmw0Wi1WrlHxLlz5xKuCEksOLEySADA4XCAYZhV47o2TGB3dHQgFArh5MmTsiCWJAn9/f2YmJjA0tISbt++DWBZ462qqorp7zYYDLBarWhoaMC+fftQXV0NnudhNBrlFTqFkihqtRqtra24cOFC3OCzsbEx/PznP8fRo0dRUVEh32uU1BMrVW4jr3Wkr36trOSvJCZ+ZVpdZPDVSpX8SKAgcTMQzV2SJHpfphm/37+ucqORuFwu3L9/Hzk5OQkFYW+YwA4Gg5icnIwKMJifn4fL5QKAMJNavGO88847YBgGBoMBZrNZ/iwb6stSNh8kfa+goAAejwd+vz+sFCyw/FB1dHRgeHgYNTU1+N73vkc1pA1krRUCsxVJkmTLgLLHAMuycl59LF86EfSkTDAxsyp98pt1HiQ1AJS9F7IxO6erqwsPHz5c076RQXaCIMDn8+HUqVOw2+0JCewNXY55vV709/fD6XTG3YZlWRQXF8e05YuiCK1Wi4KCgjBhTaGsB6PRiO9///t47733UFlZGXMbSZKwsLCA4eFhOQeTQlkrJNCOpMx5vV65YI4y/51UnyMvj8cjV78jfncSaLeZrYvKevWk4ZFer88agR0MBvH48WM8ffoUHo8n6ZgWsgBRyjVBEDAzM4Pc3FyYTKaEvuuGFk5ZXFzE1atXUVpaKuc4z8zMxPVPRQapZcuPR9laMAyDqqoqlJSUoKOjQ14Jx2JmZgaPHz+OWyyBQlkLyu5yRPMigWuJkqhZPVshhariBR9milAohKtXr+L3v/89CgoK8MEHH2Dnzp1rClQm1hSScnjy5MmkOiNmxOHx8uVLPHv2DM+ePcP09HTYZ6Io4vnz57h//36UIDeZTLBYLNRPQ0k5JMClra0N3//+92Gz2eJu6/P5oszmFEoqiVcONxbk3iX+d6/XK5eYTUW6FDHFk1e6IBpovH4FmUIURQwMDMDtdiMvLw+tra2rpiDHgyyq5ufn8eTJE7hcrqSOk5WSTxAEOJ1O6HS6sBZjZAVGoaQD4o5pbW3FsWPH4m7X09ODR48ebZrcUcrWhphZfT6fnIPu9XrhdrvlyPbVXsQvTgQ9yWNXFqFxu91yHW2ybbwGQYm+lBX1iMmflMFdCbJv5PHWQ6zjSJKEV69eYXFxERqNBgUFBevW/JeWlvDw4cMwS3OiZKS9ppIdO3aguroaS0tLePDggXyxtFotioqKIEkSJicn44bDUyipRqVSob6+Hk+fPsXo6GjU516vF52dndi1a9eKmjiFshFEdsADvgncJWlqKwlAURTl/ZVlNEmKnTIYjAhrsm28PhArdZkDvon8J62ClZXAEk3lItuT3HZRFNfd2pak3RGT/OzsLH71q1+ht7cXZWVlOH369LrPUVRUhB/96EdrEvwZFdgMw6Curg5vvfUWRkdH0d7eDkEQYDQaw3qfqtVqWK3WpGz9FMp6qKysRFVVVUyBLUkSenp6MDIyQl00lKwnXjxGLIi2nch+JCLd7/eHmbCJCT2RMrBKDZ5A0upIe1giwIPBoFw1jywsyGKFaNtqtVoWqMpANgIx6RMBH1nwh6TbabVa8DyPqakpDAwM4PDhw2hpaUlpr3vl9VG26SWxW7EEekYFtlarhdVqBcdx0Gq1KCkpAcuyOHPmDCoqKuRBk25ZFMpGwbIsrFYr1Gp1zLxcQRDw1Vdfobq6OiNNbCiUTEME+lr82isJc9IeVrkNKURDBKayXC2Jtif7BgKBMEEPLD/PZGEgSRJ4no/bLYwcWxAEzM7OIhgMYnR0FOfPn0+ZSzYUCsnzCikWRr4LSe2LJfMyJrA1Gg1OnjyJEydOgGEYFBYW4u///u8BhHcCAkCFNSUjHDt2DB0dHXA4HDE/n5ycxIsXL9DU1ERjKyjbjnQGoCmFNUlpYxhG1v5XErbKfHXgm1x3ZSnc1QL6BEHA4uIifvvb38Jms6G8vDyl2rWy77zSJUGI1z87YwLbYrHgyJEj8kQXq5A/hZJJNBoNDh8+jMnJyZglMBcWFvDb3/4WwWAQLS0tGRghhbJ9SKSrXKr2c7lc+PLLL+HxeHDo0CGcP38+ZQI70Wh7Yi0IM52nZARrgApoSrajUqlw6NAhtLW1xa0gNT09jb6+vqT8hBQKJbsJBoPo6upCXl4e9u/fL/vON5qoNtIbPgIKZROhVqtRV1eHhoYG1NXVxXTPPHnyBAMDAxkYHYVCSQczMzPwer0wGAzIyclJ2XEDgQDGx8fX7E7ImMAmJofe3t4tVyuYsrUoKSnBX//1X+MnP/kJTCZT1Odutxv379/H4uJiBkZHoVBSzYMHDzA3N4fm5uaUmcIBoL29HaOjo5tPYLvdbly/fh2dnZ1wuVxZVdmGQlFCKjBptVqcOHEiqkWsJEno6OjAzMwMXXxSKJuY+fl5/OIXv4DD4YDdbk+ZwCapoAzDYO/evQkfk+f5MHccB+D/rXs062B+fh6jo6OoqqqCXq/P5FAolBUh0aYi9jITAAANjUlEQVS9vb1yhzkCiSotKyuLqYVTKJTsRhAEDA8P45NPPsHBgwfR1tYGu92eslgrnudRWloateBfCYPBgNnZWYyNjQHIAh+20+nE2NhYSnrQUijpprS0FN/5zneQm5sb9r4kSejq6sKVK1cyNDIKhbIelpaW8Pvf/x4AYLfbUVZWljJz+OLiIoLBYNLFv/R6fZgCkHGBDQCNjY1UK6FsChiGQX19PT744AMUFRVFff7y5Us4HA5aZ5xC2YRIkoTy8nKUl5en5FjBYBCvXr1CZ2dnShoGrVlg8zwPnU4nv9ZT3KS+vp4KbMqmged5NDU14b333oPVag37bHx8HAMDAzQmg0LZpJSWlqK0tDQlxyLFXmpqarBjx451p4atWd8/ePAg3n77bfnvL7/8ck3mQLvdTks7UjYdDMOgqakJ3/72t/HRRx+FlWm8ePEiTCYTWlpa4uZvUyiUrY0kSZiamkJ3dzeOHDmSkmOuWWCr1eqwnqA6nW5Nx7HZbNDr9XLBcwpls8BxHHQ6XdR96/P58OWXX6K2tjbK102hULITjUaDQ4cOwWq1piTQbGxsDL29vdi3b1/KAqrXPKrBwUEMDg7Kf9fV1cX06SVynCtXrtAcVsqmhLTiiyRWWUEKhZK96HQ6vP7662hpaUlJbwCO49Dc3Izc3NyURZqv+Sjj4+Po7++XTYGlpaWw2+1rOpbD4YDb7V7rUCiUjFFZWRnT3DU/P48vvviC+rIplG1KcXEx8vLyUnrMNQtsQRBw7do1zM7OLh+IZVMaBk+hbAb0ej1qampgsVjC3g+FQhgaGsL4+DjVsikUSkpYl56ubHHGcRxOnDixpmhvnuep/5qyaWlsbERNTU3UPTwxMYE7d+5QLZtC2WYsLCyEuYxTRcrysBmGgdFoxNmzZ5NODt+zZw80Go3cXJxC2UyoVCq89tprsNlsYe9LkoTOzk4MDw9naGQUCiUTqFSqtKQqp7RwikqlQnl5edIO+zt37uBf/uVf8Omnn1JthLLpYFkWpaWlqK6ujvJZzc3NweFw0Ep+FMo2wmAwID8/P+XHzYpKZy6XC3Nzc1haWqIaNmVTotFo8MEHH+DUqVNRn928eRNzc3P03qZQtjiiKMLj8aCnpwehUCjlx88KgU0YHR2l5kPKpoRhGBgMhpj1CJxOJ27fvg2fz5eBkVEolI2ip6cHn3zyCa5cuSJnUKWSdQlsi8WyrpKkkUxNTWFiYiJlx6NQNhqdTgeDwRD2XiAQQHt7O0ZGRqK6fFEolM1PIBDAjRs38Nlnn6G+vh7f+973ko7lSoQ1C2yWZWO2xNTr9WhqaoqqsUyhbAfq6+tx/vz5qHK7CwsL+O///m90dHRkaGQUCiVdTE1N4fHjxzhx4gT27duHgoKClBVLUbLmI4qiiKdPn0ZVKCsoKMCHH36Id999F2azOenj0vQuymZGo9Hg1KlTOH36dNhiVhRFLC4uorOzE69evcrgCCkUSiohrXWLi4tx5MiRlFqdI1nXEkAUxahAGoZhoFKpsHfv3qhiEqtRU1ODurq69QyJQskoDMOA4zicOXMG3/rWt6JW2U+fPsXIyIhcv4BCoWxuJEnCy5cv0dzcnBatWklaji4IAj7//POk/dE2m23N5U0plGxCo9Gguro6KjcbAK5du4a5ubkMjIpCoaQSURQxNzcHlUqFwsLCtJ8vLQJbkiQsLi4mHdY+OzuL6enpdAyJQtlwSktL8Z3vfCdqETo9PY3+/v4MjYpCoaQKQRDw5Zdfwmq1ptUUTsiqtC6Hw5GWcm4USibgeR7Nzc0oLy8Pe9/lcuHevXsZGhWFQkkVLMuiubkZZ8+ehVarTf/50n4GCmWb88Ybb6CysjLMv/Xy5UtcuHCBpnlRKJsYjuNQW1sblcqZLtIisBmGQUlJyYasOCiUbKeiogLvvfdeWNS41+vFF198QU3jFAolYdIisHmex7lz5/Dmm2+isbExHaegUDYNHMehsLAQR44cQVFRkfy+z+dDb28vlpaWMjg6CoWyWUirSby1tXVDHPEUSrZjMpnw7rvvRqUtPnnyBKOjozTNi0KhrMq6BLYkSZifn4/bYUsQhKS1B6fTCb/fv55hUShZB8MwYFkWVqsVBQUF4HkeAODxePCnP/0JU1NTtDkIhUJZEQ7A/1vrzkRg7927F2q1OupzrVaL/Px8+P1+uN3uhFoMTk9Po7a2Nmb+KoWy2SkrK0NNTQ16enrg8XggSRKcTid8Ph+ampqSbk1LoVC2Nj09PXA4HABSYBL3+/1xNQOWZaHVamE0GmWNYjUCgQACgQDVNihbDoZhoNFokJ+fj8OHD8tR46IoUqsShUJZlcSk6BqZm5vDp59+iu7u7oT38fv9uHr1qmw6pLXFKVsNnU6HkydPyl28RFGESqWC3++nMR8UCiUuaRXYfr8fk5OTSe0jiiJ6e3tx+fJlfPjhh7IWQgU3ZSthMBhw7tw5HD58GKIoYmBgAN3d3Thw4AC91ykUSkzSGiVuMBhQU1OT9H6iKMLhcOCrr77CnTt3aHEJypaDYRjo9XoUFhaiuLgYZrMZ3d3dtJMXhUKJS1o1bLPZjNbWVjx9+jRpH93U/2/vflqbeMI4gH/3f5KatFVBBUULFtSDFBEvCuJNT0XwtfkyfBE9CD0JXjx40ZMWD1qt2Wx2/vwO8gy7m02yadJ2++v3AwVNspOJtn1mnnlm9uAA7969w/r6Om7evIl+v39CvSQ6e7dv34a1tnGtBxFdPCc6w/Y8D1tbW3jx4kVtFfk8xpipW8aI/k8uX76MR48eYWNj46y7QkQtdeJnifd6Pbx69QrPnj07VtC+ceMGut3uCfSMiIio3a5fv4719XUAJxCwq9uxPM9DFEV4+fIlXr9+jZ2dnYWKap48eYIrV66suptERESt9/jxY9y5cwfAitewrbXIsgxxHJfuTAQAly5dwtOnT7G1tYVfv37hy5cvjdrM85x7somI6EIKgsBNclc2w7bWQmvtDj6ZZjAYuOl9E3t7ezg4OFhFF4mIiM6tpQO2MQbj8RhZliFNU1hroZRClmWlL2MMfN9HFEW4d+8eBoNBo/aPjo6glFq2m0REROfa0ilxay1Go1FpO4rWeqK6Wynl0uQ7Ozv48OED/vz5s1S6W66V2b3Wemphm+d5sNbC8zz3Z7leHiMiImqrU9v0WZwle56H58+f4/v37/j9+3fjNqpBVgYLxhgYY9zsvk4cx8jzHEEQII5jd36ztRadTqe0TkBERNQ2Z3JKg7UW/X6/0Z2Jrl27hk6n4/4+Ho+htUYURVBKIc/z0uun7dtO0xQAXLq+aDgcotPplAK27/ul/hUHBSIIgoniOnmdPF8dBFhrS6+p8jxv7uCh2IbneUsdtiHZCck++L4Pay183+cAhoioRc7sWKVer4f79+/j/fv3U19z9+5d7O7u4urVq+4xSXnXpd2Py1rrAroIwxC9Xg95nrvgqJQqBewoilxgD4IASin3Jc/XBT2l1NS+yzY4CdwSnKvvKcV9QRBgbW1tos0wDGsHRJKFMMa45yVLIe9pjEEYhrV9D8MQWmv3meeRTEjd4/Mc97q66zn4IKLz7swC9traGra3t2cG7MPDQ+R57mZ9sm1MAui0WeoqaK0xHA7d7LOOzO6jKIIxBqPRqPR8k/t/V1lr3XXFzy2UUvA8zwXnaf2Uf7e69iVTIEGsWAsgg41pfZcBjO/7E+0nSeJujSq3kpTBRXGpIkmSqVmB6mcoZlCSJJkYJMwKxPJ/Esdx6f3aELxn1W60oX9E1D6tPrj4x48fODw8BPAvUMlM8DTMWg+vqgaWVan7rHUz87p+NhnQHKfgT9qsa786aJDBRfV1MvsvDhhkECC1BRLoi+1prUvBLEkSdzvK4iBE3lNr7TIPku6XoL+KoFjs93Ha01pjNBqVPmO32+V54kRU68x+M6Rp2ujwlE+fPiFNU2xubuLWrVu1s0Zqh+oAoJodEFLsVwzYSimEYThzuaDaXjGVX5z5SwaimDmQ4Cr1D2EYIgxDd33T76vi0oj0u3oP6zAMGwVxeV76IJ+DBZBEVOfMAvbR0RE+fvw493X7+/vY39/Hw4cP8ebNGwbs/wFZ2qhatCahrp15bciSQ57niOMYSikEQeCKGKVGYBpJs1dn/kXV+gGpS7DWljIxxToMKR6UosgkSdzjRERAy1PiRCelGOwldW6Mmbr2X7xu3lJCsfAQQKmYb9ptZosz9yzLoJRya+/SH54dQHSxMWATYfba/LKstfj792/jPgD/BhFpmsL3/dK2RpndS1q/qMmWwEVorUsFhnXtSp89z3OHIzXZPUBEi2PAJmoxYwyGw+HE43Vn9gdBgF6vd+wtc9Wtknmeuy181XX6Yv9ki+B4PEYURRNnGhDRapybgC0pQyKqJz8fsv49i9YaWZa5tXvf9xGGIdI0nViTz/N8YsvirD5IBoDoPGrz9+7SAXs8HuPbt2/odrsLXffz58+FAvDnz5/x9u3bRbtHdKE0rXgvbkmT2bZsq1v2drY8JY/Oq83NTezu7p76+25sbGAwGMzfWQJgqZ9O3/cbp+GKJNXHe10TEVEb+L6Pfr9/6u/74MEDbG9vT60T2dvbw9evX5cP2ERERHTy/gOXv//CbeafyAAAAABJRU5ErkJggg==;" parent="OrEcLO75rSHBagCI1_9a-60" vertex="1">
          <mxGeometry width="362.08292143442867" height="275.237420156738" as="geometry" />
        </mxCell>
        <mxCell id="OrEcLO75rSHBagCI1_9a-9" value="" style="rounded=0;whiteSpace=wrap;html=1;strokeColor=#82b366;fillStyle=solid;fillColor=#d5e8d4;opacity=60;" parent="OrEcLO75rSHBagCI1_9a-60" vertex="1">
          <mxGeometry x="117.33373044237948" y="65.76190476190476" width="16.190532920339923" height="16.19047619047619" as="geometry" />
        </mxCell>
        <mxCell id="OrEcLO75rSHBagCI1_9a-10" value="" style="rounded=0;whiteSpace=wrap;html=1;strokeColor=#82b366;fillStyle=solid;fillColor=#d5e8d4;opacity=60;" parent="OrEcLO75rSHBagCI1_9a-60" vertex="1">
          <mxGeometry x="133.52426336271938" y="81.95238095238095" width="16.190532920339923" height="16.19047619047619" as="geometry" />
        </mxCell>
        <mxCell id="OrEcLO75rSHBagCI1_9a-12" value="" style="rounded=0;whiteSpace=wrap;html=1;strokeColor=#82b366;fillStyle=solid;fillColor=#d5e8d4;opacity=60;" parent="OrEcLO75rSHBagCI1_9a-60" vertex="1">
          <mxGeometry x="117.33373044237948" y="81.95238095238095" width="16.190532920339923" height="16.19047619047619" as="geometry" />
        </mxCell>
        <mxCell id="OrEcLO75rSHBagCI1_9a-18" value="" style="rounded=0;whiteSpace=wrap;html=1;strokeColor=#82b366;fillStyle=solid;fillColor=#d5e8d4;opacity=60;" parent="OrEcLO75rSHBagCI1_9a-60" vertex="1">
          <mxGeometry x="133.52426336271938" y="98.14285714285715" width="16.190532920339923" height="16.19047619047619" as="geometry" />
        </mxCell>
        <mxCell id="OrEcLO75rSHBagCI1_9a-22" value="" style="rounded=0;whiteSpace=wrap;html=1;strokeColor=#82b366;fillStyle=solid;fillColor=#d5e8d4;opacity=60;" parent="OrEcLO75rSHBagCI1_9a-60" vertex="1">
          <mxGeometry x="133.52426336271938" y="114.33333333333333" width="16.190532920339923" height="16.19047619047619" as="geometry" />
        </mxCell>
        <mxCell id="OrEcLO75rSHBagCI1_9a-23" value="" style="rounded=0;whiteSpace=wrap;html=1;strokeColor=#82b366;fillStyle=solid;fillColor=#d5e8d4;opacity=60;" parent="OrEcLO75rSHBagCI1_9a-60" vertex="1">
          <mxGeometry x="101.14319752203956" y="130.52380952380952" width="16.190532920339923" height="16.19047619047619" as="geometry" />
        </mxCell>
        <mxCell id="OrEcLO75rSHBagCI1_9a-24" value="" style="rounded=0;whiteSpace=wrap;html=1;strokeColor=#82b366;fillStyle=solid;fillColor=#d5e8d4;opacity=60;" parent="OrEcLO75rSHBagCI1_9a-60" vertex="1">
          <mxGeometry x="117.33373044237948" y="130.52380952380952" width="16.190532920339923" height="16.19047619047619" as="geometry" />
        </mxCell>
        <mxCell id="OrEcLO75rSHBagCI1_9a-25" value="" style="rounded=0;whiteSpace=wrap;html=1;strokeColor=#82b366;fillStyle=solid;fillColor=#d5e8d4;opacity=60;" parent="OrEcLO75rSHBagCI1_9a-60" vertex="1">
          <mxGeometry x="117.33373044237948" y="146.71428571428572" width="16.190532920339923" height="16.19047619047619" as="geometry" />
        </mxCell>
        <mxCell id="OrEcLO75rSHBagCI1_9a-26" value="" style="rounded=0;whiteSpace=wrap;html=1;strokeColor=#82b366;fillStyle=solid;fillColor=#d5e8d4;opacity=60;" parent="OrEcLO75rSHBagCI1_9a-60" vertex="1">
          <mxGeometry x="133.52426336271938" y="130.52380952380952" width="16.190532920339923" height="16.19047619047619" as="geometry" />
        </mxCell>
        <mxCell id="OrEcLO75rSHBagCI1_9a-27" value="" style="rounded=0;whiteSpace=wrap;html=1;strokeColor=#82b366;fillStyle=solid;fillColor=#d5e8d4;opacity=60;" parent="OrEcLO75rSHBagCI1_9a-60" vertex="1">
          <mxGeometry x="133.52426336271938" y="146.71428571428572" width="16.190532920339923" height="16.19047619047619" as="geometry" />
        </mxCell>
        <mxCell id="OrEcLO75rSHBagCI1_9a-29" value="" style="rounded=0;whiteSpace=wrap;html=1;strokeColor=#82b366;fillStyle=solid;fillColor=#d5e8d4;opacity=60;" parent="OrEcLO75rSHBagCI1_9a-60" vertex="1">
          <mxGeometry x="117.33373044237948" y="162.9047619047619" width="16.190532920339923" height="16.19047619047619" as="geometry" />
        </mxCell>
        <mxCell id="OrEcLO75rSHBagCI1_9a-30" value="" style="ellipse;whiteSpace=wrap;html=1;aspect=fixed;strokeColor=none;fillColor=#FF0000;" parent="OrEcLO75rSHBagCI1_9a-60" vertex="1">
          <mxGeometry x="101.14319752203956" y="98.14285714285715" width="8.095218239904058" height="8.095218239904058" as="geometry" />
        </mxCell>
        <mxCell id="OrEcLO75rSHBagCI1_9a-33" value="" style="endArrow=classic;html=1;rounded=0;endSize=1;startSize=1;exitX=1;exitY=0;exitDx=0;exitDy=0;entryX=1;entryY=0.5;entryDx=0;entryDy=0;strokeColor=#FFFF66;" parent="OrEcLO75rSHBagCI1_9a-60" source="OrEcLO75rSHBagCI1_9a-26" target="OrEcLO75rSHBagCI1_9a-30" edge="1">
          <mxGeometry width="50" height="50" relative="1" as="geometry">
            <mxPoint x="117.33373044237948" y="162.9047619047619" as="sourcePoint" />
            <mxPoint x="198.28639504407911" y="81.95238095238095" as="targetPoint" />
          </mxGeometry>
        </mxCell>
        <mxCell id="OrEcLO75rSHBagCI1_9a-34" value="" style="endArrow=classic;html=1;rounded=0;endSize=1;startSize=1;exitX=0;exitY=0;exitDx=0;exitDy=0;strokeColor=#FFFF66;entryX=0.67;entryY=0.9;entryDx=0;entryDy=0;entryPerimeter=0;" parent="OrEcLO75rSHBagCI1_9a-60" source="OrEcLO75rSHBagCI1_9a-27" target="OrEcLO75rSHBagCI1_9a-30" edge="1">
          <mxGeometry width="50" height="50" relative="1" as="geometry">
            <mxPoint x="145.66716305297433" y="125.66666666666666" as="sourcePoint" />
            <mxPoint x="101.14319752203956" y="114.33333333333333" as="targetPoint" />
          </mxGeometry>
        </mxCell>
        <mxCell id="OrEcLO75rSHBagCI1_9a-35" value="" style="endArrow=classic;html=1;rounded=0;endSize=1;startSize=1;exitX=1;exitY=1;exitDx=0;exitDy=0;entryX=1.133;entryY=0.9;entryDx=0;entryDy=0;entryPerimeter=0;strokeColor=#FFFF66;" parent="OrEcLO75rSHBagCI1_9a-60" source="OrEcLO75rSHBagCI1_9a-9" edge="1">
          <mxGeometry width="50" height="50" relative="1" as="geometry">
            <mxPoint x="145.66716305297433" y="117.57142857142857" as="sourcePoint" />
            <mxPoint x="105.19083075212453" y="98.14285714285715" as="targetPoint" />
          </mxGeometry>
        </mxCell>
        <mxCell id="OrEcLO75rSHBagCI1_9a-36" value="" style="endArrow=classic;html=1;rounded=0;endSize=1;startSize=1;exitX=0;exitY=0.25;exitDx=0;exitDy=0;entryX=1;entryY=0;entryDx=0;entryDy=0;strokeColor=#FFFF66;" parent="OrEcLO75rSHBagCI1_9a-60" target="OrEcLO75rSHBagCI1_9a-30" edge="1">
          <mxGeometry width="50" height="50" relative="1" as="geometry">
            <mxPoint x="149.71479628305906" y="102.19047619047626" as="sourcePoint" />
            <mxPoint x="109.23846398220951" y="98.14285714285715" as="targetPoint" />
          </mxGeometry>
        </mxCell>
        <mxCell id="OrEcLO75rSHBagCI1_9a-38" value="" style="endArrow=classic;html=1;rounded=0;endSize=1;startSize=1;entryX=0;entryY=1;entryDx=0;entryDy=0;strokeColor=#FFFF66;exitX=0;exitY=0.5;exitDx=0;exitDy=0;" parent="OrEcLO75rSHBagCI1_9a-60" source="OrEcLO75rSHBagCI1_9a-23" target="OrEcLO75rSHBagCI1_9a-30" edge="1">
          <mxGeometry width="50" height="50" relative="1" as="geometry">
            <mxPoint x="101.14319752203956" y="146.71428571428572" as="sourcePoint" />
            <mxPoint x="60.66686522118974" y="127.28571428571428" as="targetPoint" />
          </mxGeometry>
        </mxCell>
        <mxCell id="OrEcLO75rSHBagCI1_9a-61" value="" style="rounded=0;whiteSpace=wrap;html=1;strokeColor=none;fillStyle=solid;fillColor=#E05151;opacity=60;" parent="1" vertex="1">
          <mxGeometry x="179.90532920339925" y="31.19047619047619" width="16.190532920339923" height="16.19047619047619" as="geometry" />
        </mxCell>
        <mxCell id="OrEcLO75rSHBagCI1_9a-62" value="" style="rounded=0;whiteSpace=wrap;html=1;strokeColor=none;fillStyle=solid;fillColor=#E05151;opacity=60;" parent="1" vertex="1">
          <mxGeometry x="179.90532920339925" y="108.09523809523809" width="16.190532920339923" height="16.19047619047619" as="geometry" />
        </mxCell>
        <mxCell id="OrEcLO75rSHBagCI1_9a-64" value="" style="rounded=0;whiteSpace=wrap;html=1;strokeColor=none;fillStyle=solid;fillColor=#E05151;opacity=60;" parent="1" vertex="1">
          <mxGeometry x="179.90532920339925" y="176.9047619047619" width="16.190532920339923" height="16.19047619047619" as="geometry" />
        </mxCell>
        <mxCell id="OrEcLO75rSHBagCI1_9a-65" value="" style="rounded=0;whiteSpace=wrap;html=1;strokeColor=none;fillStyle=solid;fillColor=#E05151;opacity=60;" parent="1" vertex="1">
          <mxGeometry x="111.09556429195457" y="176.9047619047619" width="16.190532920339923" height="16.19047619047619" as="geometry" />
        </mxCell>
        <mxCell id="OrEcLO75rSHBagCI1_9a-66" value="" style="rounded=0;whiteSpace=wrap;html=1;strokeColor=none;fillStyle=solid;fillColor=#E05151;opacity=60;" parent="1" vertex="1">
          <mxGeometry x="34.19053292033992" y="176.9047619047619" width="16.190532920339923" height="16.19047619047619" as="geometry" />
        </mxCell>
        <mxCell id="OrEcLO75rSHBagCI1_9a-69" value="" style="rounded=0;whiteSpace=wrap;html=1;strokeColor=none;fillStyle=solid;fillColor=#3399FF;opacity=60;" parent="1" vertex="1">
          <mxGeometry x="111.09556429195457" y="108.09523809523809" width="16.190532920339923" height="16.19047619047619" as="geometry" />
        </mxCell>
        <mxCell id="OrEcLO75rSHBagCI1_9a-67" value="" style="rounded=0;whiteSpace=wrap;html=1;strokeColor=none;fillStyle=solid;fillColor=#E05151;opacity=60;" parent="1" vertex="1">
          <mxGeometry x="34.19053292033992" y="108.09523809523809" width="16.190532920339923" height="16.19047619047619" as="geometry" />
        </mxCell>
        <mxCell id="OrEcLO75rSHBagCI1_9a-68" value="" style="rounded=0;whiteSpace=wrap;html=1;strokeColor=none;fillStyle=solid;fillColor=#E05151;opacity=60;" parent="1" vertex="1">
          <mxGeometry x="34.19053292033992" y="31.19047619047619" width="16.190532920339923" height="16.19047619047619" as="geometry" />
        </mxCell>
        <mxCell id="OrEcLO75rSHBagCI1_9a-41" value="" style="ellipse;whiteSpace=wrap;html=1;aspect=fixed;strokeColor=none;fillColor=#FF0000;" parent="1" vertex="1">
          <mxGeometry x="115.14319752203956" y="112.14285714285715" width="8.095218239904058" height="8.095218239904058" as="geometry" />
        </mxCell>
        <mxCell id="OrEcLO75rSHBagCI1_9a-70" value="(a)" style="text;html=1;strokeColor=none;fillColor=none;align=center;verticalAlign=middle;whiteSpace=wrap;rounded=0;fontSize=16;" parent="1" vertex="1">
          <mxGeometry x="142.47094035422126" y="285.42857142857144" width="97.14319752203956" height="48.57142857142858" as="geometry" />
        </mxCell>
        <mxCell id="OrEcLO75rSHBagCI1_9a-71" value="(b)" style="text;html=1;strokeColor=none;fillColor=none;align=center;verticalAlign=middle;whiteSpace=wrap;rounded=0;fontSize=16;" parent="1" vertex="1">
          <mxGeometry x="609.0497180525772" y="285.42857142857144" width="97.14319752203956" height="48.57142857142858" as="geometry" />
        </mxCell>
        <mxCell id="_X6f1UxKjy7CpLs60cfO-3" value="" style="verticalLabelPosition=bottom;verticalAlign=top;html=1;shape=mxgraph.basic.x;strokeColor=none;fillColor=#FF0000;" vertex="1" parent="1">
          <mxGeometry x="34.19503137161463" y="31.19476190476192" width="16.190532920339923" height="16.19047619047619" as="geometry" />
        </mxCell>
        <mxCell id="_X6f1UxKjy7CpLs60cfO-7" value="" style="verticalLabelPosition=bottom;verticalAlign=top;html=1;shape=mxgraph.basic.x;strokeColor=none;fillColor=#FF0000;" vertex="1" parent="1">
          <mxGeometry x="111.09503137161462" y="31.194761904761947" width="16.190532920339923" height="16.19047619047619" as="geometry" />
        </mxCell>
        <mxCell id="_X6f1UxKjy7CpLs60cfO-8" value="" style="verticalLabelPosition=bottom;verticalAlign=top;html=1;shape=mxgraph.basic.x;strokeColor=none;fillColor=#FF0000;" vertex="1" parent="1">
          <mxGeometry x="179.90503137161463" y="31.194761904761947" width="16.190532920339923" height="16.19047619047619" as="geometry" />
        </mxCell>
        <mxCell id="_X6f1UxKjy7CpLs60cfO-9" value="" style="verticalLabelPosition=bottom;verticalAlign=top;html=1;shape=mxgraph.basic.x;strokeColor=none;fillColor=#FF0000;" vertex="1" parent="1">
          <mxGeometry x="34.19503137161462" y="108.09476190476192" width="16.190532920339923" height="16.19047619047619" as="geometry" />
        </mxCell>
        <mxCell id="_X6f1UxKjy7CpLs60cfO-10" value="" style="verticalLabelPosition=bottom;verticalAlign=top;html=1;shape=mxgraph.basic.x;strokeColor=none;fillColor=#FF0000;" vertex="1" parent="1">
          <mxGeometry x="179.90503137161463" y="108.09476190476192" width="16.190532920339923" height="16.19047619047619" as="geometry" />
        </mxCell>
        <mxCell id="_X6f1UxKjy7CpLs60cfO-11" value="" style="verticalLabelPosition=bottom;verticalAlign=top;html=1;shape=mxgraph.basic.x;strokeColor=none;fillColor=#FF0000;" vertex="1" parent="1">
          <mxGeometry x="179.90503137161463" y="176.90476190476193" width="16.190532920339923" height="16.19047619047619" as="geometry" />
        </mxCell>
        <mxCell id="_X6f1UxKjy7CpLs60cfO-12" value="" style="verticalLabelPosition=bottom;verticalAlign=top;html=1;shape=mxgraph.basic.x;strokeColor=none;fillColor=#FF0000;" vertex="1" parent="1">
          <mxGeometry x="111.09503137161462" y="176.90476190476193" width="16.190532920339923" height="16.19047619047619" as="geometry" />
        </mxCell>
        <mxCell id="_X6f1UxKjy7CpLs60cfO-13" value="" style="verticalLabelPosition=bottom;verticalAlign=top;html=1;shape=mxgraph.basic.x;strokeColor=none;fillColor=#FF0000;" vertex="1" parent="1">
          <mxGeometry x="34.19503137161459" y="176.90476190476193" width="16.190532920339923" height="16.19047619047619" as="geometry" />
        </mxCell>
      </root>
    </mxGraphModel>
  </diagram>
</mxfile>
